{"glyphs":{"0":{"ha":994,"x_min":32,"x_max":963,"o":"m 32 497 q 48 644 32 575 q 92 770 63 713 q 163 873 122 828 q 256 949 205 918 q 369 997 308 981 q 497 1014 430 1014 q 626 997 565 1014 q 739 949 687 981 q 832 873 790 918 q 902 770 873 828 q 947 644 931 713 q 963 497 963 575 q 947 349 963 418 q 902 223 931 280 q 832 120 873 165 q 739 44 790 75 q 626 -4 687 12 q 497 -21 565 -21 q 369 -4 430 -21 q 256 44 308 12 q 163 120 205 75 q 92 223 122 165 q 48 349 63 280 q 32 497 32 418 m 290 497 q 304 365 290 422 q 344 271 317 309 q 409 213 370 233 q 497 194 447 194 q 586 213 547 194 q 651 271 624 233 q 691 365 677 309 q 704 497 704 422 q 691 628 704 571 q 651 723 677 684 q 586 780 624 761 q 497 799 547 799 q 409 780 447 799 q 344 723 370 761 q 304 628 317 684 q 290 497 290 571 z "},"1":{"ha":644,"x_min":22,"x_max":601,"o":"m 460 210 l 601 210 l 601 0 l 63 0 l 63 210 l 204 210 l 204 676 l 22 676 l 22 874 l 85 874 q 158 880 129 874 q 204 902 187 886 q 228 945 221 918 q 235 1014 235 972 l 460 1014 l 460 210 z "},"2":{"ha":908,"x_min":42,"x_max":865,"o":"m 42 0 l 42 156 q 57 264 42 217 q 98 346 73 311 q 158 407 124 381 q 230 451 192 432 q 307 482 267 469 q 382 507 346 496 l 414 517 q 468 534 442 526 q 517 552 494 543 q 559 573 540 562 q 591 599 578 585 q 612 632 605 614 q 619 674 619 650 q 608 724 619 701 q 576 764 597 747 q 526 790 555 780 q 459 799 496 799 q 335 755 378 799 q 293 626 293 711 l 293 607 l 47 607 l 47 629 q 76 789 47 718 q 160 910 106 860 q 293 987 215 960 q 469 1014 372 1014 q 636 989 562 1014 q 760 920 709 965 q 838 812 811 875 q 865 669 865 748 q 856 586 865 623 q 832 519 848 549 q 795 466 817 490 q 749 426 774 443 q 697 394 724 408 q 641 371 669 381 q 585 353 613 361 q 532 339 557 345 l 481 326 q 420 309 450 318 q 363 286 389 299 q 318 255 337 273 q 293 210 300 237 l 862 210 l 862 0 l 42 0 z "},"3":{"ha":943,"x_min":32,"x_max":911,"o":"m 32 665 q 60 813 32 748 q 141 923 88 878 q 272 991 194 967 q 450 1014 350 1014 q 620 994 543 1014 q 750 939 696 975 q 834 852 804 902 q 863 738 863 801 q 848 653 863 692 q 804 585 832 615 q 736 537 775 556 q 649 514 697 518 q 759 492 711 510 q 841 445 808 475 q 893 373 875 415 q 911 280 911 332 q 897 194 911 234 q 856 121 883 155 q 791 61 830 88 q 705 17 753 35 q 598 -11 656 -1 q 473 -21 539 -21 q 285 3 367 -21 q 147 75 203 28 q 61 190 91 122 q 32 347 32 258 l 32 348 l 278 348 l 278 338 q 291 279 278 305 q 330 233 305 252 q 391 204 355 214 q 469 194 426 194 q 548 203 512 194 q 609 230 583 213 q 650 271 635 248 q 665 323 665 295 q 627 387 665 367 q 508 407 589 407 l 342 407 l 342 602 l 497 602 q 589 623 557 602 q 621 685 621 645 q 608 731 621 710 q 572 768 595 752 q 516 791 549 783 q 445 799 484 799 q 374 791 405 799 q 322 765 343 782 q 289 725 300 749 q 278 670 278 701 l 278 663 l 32 663 l 32 665 z "},"4":{"ha":1016,"x_min":42,"x_max":973,"o":"m 598 0 l 598 200 l 42 200 l 42 438 l 542 993 l 848 993 l 848 406 l 973 406 l 973 200 l 848 200 l 848 0 l 598 0 m 598 406 l 598 759 l 282 406 l 598 406 z "},"5":{"ha":938,"x_min":42,"x_max":906,"o":"m 906 347 q 892 242 906 291 q 851 152 878 193 q 787 79 825 111 q 700 25 749 47 q 594 -9 652 3 q 469 -20 535 -20 q 349 -10 405 -20 q 245 20 293 1 q 160 69 198 40 q 96 133 123 97 q 56 211 70 168 q 42 301 42 253 l 42 309 l 296 309 l 296 303 q 310 261 296 281 q 346 227 323 241 q 400 204 369 212 q 467 195 431 195 q 540 206 507 195 q 597 236 573 217 q 634 282 621 255 q 647 342 647 309 q 635 398 647 373 q 600 442 623 424 q 545 470 577 460 q 472 480 512 480 q 414 474 441 480 q 364 457 386 468 q 326 433 342 447 q 302 401 310 418 l 52 401 l 52 993 l 840 993 l 840 781 l 302 781 l 302 475 q 340 547 315 515 q 402 602 365 580 q 486 638 438 625 q 590 651 533 651 q 724 629 665 651 q 823 567 783 607 q 884 471 863 527 q 906 347 906 415 z "},"6":{"ha":961,"x_min":32,"x_max":929,"o":"m 497 1014 q 663 990 588 1014 q 792 923 739 967 q 875 820 846 880 q 905 686 905 760 l 905 668 l 659 668 l 659 680 q 647 727 659 706 q 613 765 634 749 q 562 790 591 781 q 497 799 532 799 q 407 779 447 799 q 339 723 367 760 q 297 632 311 686 q 282 512 282 579 l 282 405 q 379 551 300 501 q 594 601 458 601 q 738 583 675 601 q 843 528 800 564 q 907 440 885 493 q 929 319 929 388 q 899 176 929 239 q 815 69 870 113 q 679 2 759 25 q 497 -21 599 -21 q 148 101 264 -21 q 32 463 32 224 l 32 473 q 63 703 32 603 q 153 873 94 804 q 299 978 212 942 q 497 1014 385 1014 m 495 194 q 625 230 581 194 q 670 333 670 265 q 626 436 670 401 q 498 472 582 472 q 418 462 454 472 q 357 434 382 452 q 318 390 332 416 q 305 331 305 364 q 318 274 305 300 q 356 231 331 249 q 416 204 381 213 q 495 194 451 194 z "},"7":{"ha":857,"x_min":22,"x_max":815,"o":"m 215 0 q 232 157 220 84 q 266 298 245 231 q 317 427 287 365 q 388 547 347 488 q 482 664 429 606 q 600 781 535 721 l 22 781 l 22 993 l 815 993 l 815 772 q 713 657 758 712 q 633 546 668 601 q 574 432 599 490 q 531 308 549 374 q 501 166 513 242 q 483 0 490 90 l 215 0 z "},"8":{"ha":970,"x_min":32,"x_max":938,"o":"m 482 -21 q 294 0 377 -21 q 152 59 210 20 q 63 152 94 97 q 32 277 32 208 q 48 365 32 325 q 94 435 63 405 q 169 486 124 466 q 273 516 214 507 q 183 543 222 525 q 118 587 144 560 q 78 649 92 614 q 65 726 65 684 q 95 844 65 791 q 181 935 125 898 q 314 993 236 973 q 488 1014 392 1014 q 661 993 583 1014 q 793 935 738 973 q 878 845 848 898 q 908 727 908 792 q 855 587 908 640 q 698 516 801 533 q 878 440 818 499 q 938 284 938 382 q 907 157 938 213 q 816 61 875 100 q 673 0 757 21 q 482 -21 589 -21 m 485 579 q 622 607 576 579 q 667 692 667 635 q 623 773 667 747 q 486 799 578 799 q 348 773 393 799 q 303 691 303 746 q 485 579 303 579 m 485 194 q 642 225 590 194 q 693 320 693 256 q 681 374 693 351 q 643 411 669 396 q 578 432 618 425 q 485 440 539 440 q 392 432 431 440 q 327 411 352 425 q 289 374 301 396 q 277 320 277 351 q 328 225 277 256 q 485 194 380 194 z "},"9":{"ha":961,"x_min":32,"x_max":929,"o":"m 465 -21 q 349 -10 403 -21 q 250 21 295 1 q 169 70 205 41 q 108 135 133 99 q 69 215 83 171 q 56 307 56 258 l 56 325 l 302 325 l 302 313 q 314 266 302 288 q 348 228 326 244 q 399 203 369 212 q 464 194 429 194 q 554 214 514 194 q 622 270 594 233 q 664 361 649 307 q 679 481 679 414 l 679 588 q 645 503 670 540 q 581 442 620 467 q 488 405 542 417 q 367 392 434 392 q 223 410 285 392 q 118 465 160 429 q 54 553 75 500 q 32 674 32 606 q 61 817 32 754 q 146 924 91 881 q 282 991 201 968 q 464 1014 362 1014 q 813 892 697 1014 q 929 530 929 770 l 929 520 q 898 290 929 391 q 808 120 867 189 q 662 15 749 51 q 465 -21 576 -21 m 465 799 q 335 764 380 799 q 291 660 291 728 q 335 557 291 592 q 463 522 378 522 q 543 531 507 522 q 604 560 578 541 q 643 604 629 578 q 656 662 656 630 q 643 719 656 694 q 605 762 630 744 q 545 789 580 780 q 465 799 509 799 z "},"\r":{"ha":174,"x_min":0,"x_max":0,"o":""}," ":{"ha":329,"x_min":0,"x_max":0,"o":""},"O":{"ha":1043,"x_min":32,"x_max":1011,"o":"m 32 497 q 48 644 32 575 q 95 770 65 713 q 170 873 126 828 q 268 949 213 918 q 386 997 322 981 q 522 1014 450 1014 q 657 997 593 1014 q 775 949 721 981 q 873 873 830 918 q 948 770 917 828 q 995 644 978 713 q 1011 497 1011 575 q 995 349 1011 418 q 948 223 978 280 q 873 120 917 165 q 775 44 830 75 q 657 -4 721 12 q 522 -21 593 -21 q 386 -4 450 -21 q 268 44 322 12 q 170 120 213 75 q 95 223 126 165 q 48 349 65 280 q 32 497 32 418 m 290 497 q 305 365 290 422 q 350 271 320 309 q 422 213 379 233 q 522 194 466 194 q 620 213 577 194 q 693 271 664 233 q 738 365 723 309 q 753 497 753 422 q 738 628 753 571 q 693 723 723 684 q 620 780 664 761 q 522 799 577 799 q 422 780 466 799 q 350 723 379 761 q 305 628 320 684 q 290 497 290 571 z "},";":{"ha":318,"x_min":-1,"x_max":289,"o":"m 276 528 l 42 528 l 42 770 l 276 770 l 276 528 m 158 -263 l -1 -263 l 49 242 l 289 242 l 158 -263 z "},"E":{"ha":769,"x_min":42,"x_max":748,"o":"m 736 993 l 736 781 l 299 781 l 299 595 l 697 595 l 697 397 l 299 397 l 299 213 l 748 213 l 748 0 l 42 0 l 42 993 l 736 993 z "},"I":{"ha":341,"x_min":42,"x_max":299,"o":"m 299 0 l 42 0 l 42 993 l 299 993 l 299 0 z "},"H":{"ha":953,"x_min":42,"x_max":910,"o":"m 910 0 l 654 0 l 654 388 l 299 388 l 299 0 l 42 0 l 42 993 l 299 993 l 299 603 l 654 603 l 654 993 l 910 993 l 910 0 z "},"L":{"ha":738,"x_min":42,"x_max":720,"o":"m 299 993 l 299 213 l 720 213 l 720 0 l 42 0 l 42 993 l 299 993 z "},"F":{"ha":757,"x_min":42,"x_max":736,"o":"m 736 781 l 299 781 l 299 581 l 697 581 l 697 377 l 299 377 l 299 0 l 42 0 l 42 993 l 736 993 l 736 781 z "},"T":{"ha":866,"x_min":11,"x_max":855,"o":"m 855 781 l 561 781 l 561 0 l 305 0 l 305 781 l 11 781 l 11 993 l 855 993 l 855 781 z "},"S":{"ha":942,"x_min":19,"x_max":923,"o":"m 466 1014 q 644 990 565 1014 q 778 923 723 967 q 862 816 833 879 q 891 673 891 753 l 647 673 q 634 731 647 705 q 597 774 621 757 q 539 802 573 792 q 463 812 505 812 q 396 805 428 812 q 341 785 365 798 q 303 752 317 772 q 289 707 289 733 q 302 665 289 681 q 340 639 314 649 q 405 622 366 628 q 496 607 443 615 l 531 602 q 595 592 562 598 q 662 579 628 587 q 727 561 695 572 q 789 534 760 550 q 843 498 818 519 q 885 448 867 476 q 913 385 903 420 q 923 303 923 349 q 892 164 923 225 q 802 63 861 104 q 661 0 744 22 q 474 -21 578 -21 q 278 3 363 -21 q 135 72 193 27 q 48 182 78 117 q 19 329 19 247 l 263 329 q 278 267 263 294 q 319 220 292 239 q 385 191 346 201 q 473 181 424 181 q 550 189 514 181 q 612 210 586 196 q 654 246 639 225 q 669 295 669 267 q 656 341 669 324 q 617 368 643 358 q 553 386 592 379 q 465 399 515 392 l 419 405 q 335 418 379 411 q 248 437 291 425 q 166 468 205 449 q 98 517 128 488 q 51 589 69 547 q 34 690 34 631 q 49 787 34 742 q 91 867 64 831 q 157 931 118 903 q 244 977 196 958 q 348 1005 292 995 q 466 1014 404 1014 z "},"C":{"ha":1022,"x_min":32,"x_max":987,"o":"m 290 497 q 305 365 290 422 q 350 271 320 309 q 422 213 379 233 q 522 194 466 194 q 663 247 610 194 q 733 406 716 300 l 987 406 q 935 228 974 307 q 836 93 896 149 q 696 9 776 38 q 521 -21 617 -21 q 386 -4 450 -21 q 268 44 322 12 q 170 120 213 75 q 95 223 126 165 q 48 349 65 280 q 32 497 32 418 q 48 644 32 575 q 95 770 65 713 q 170 873 126 828 q 268 949 213 918 q 386 997 322 981 q 521 1014 450 1014 q 641 1001 585 1014 q 747 962 698 988 q 836 900 796 937 q 907 815 876 863 q 958 711 938 768 q 987 587 978 653 l 733 587 q 663 747 716 694 q 522 799 610 799 q 422 780 466 799 q 350 723 379 761 q 305 628 320 684 q 290 497 290 571 z "},"G":{"ha":1041,"x_min":32,"x_max":998,"o":"m 290 497 q 305 363 290 421 q 349 267 320 306 q 422 209 378 228 q 521 189 465 189 q 611 202 569 189 q 683 239 652 215 q 733 297 714 263 q 755 374 751 331 l 511 374 l 511 531 l 998 531 l 998 0 l 759 0 l 759 231 q 706 126 739 173 q 631 47 674 79 q 538 -3 589 14 q 428 -21 486 -21 q 319 -4 371 -21 q 224 44 268 13 q 144 121 180 76 q 84 224 109 167 q 45 350 59 282 q 32 497 32 419 q 48 644 32 575 q 95 770 65 713 q 170 873 126 827 q 268 949 213 918 q 386 997 322 981 q 521 1014 450 1014 q 636 1002 581 1014 q 739 967 691 990 q 829 911 788 944 q 903 834 871 877 q 958 740 935 792 q 990 628 980 688 l 736 628 q 706 703 726 672 q 659 757 686 735 q 597 789 631 778 q 522 799 562 799 q 423 780 466 799 q 350 722 380 760 q 305 628 320 684 q 290 497 290 571 z "},"U":{"ha":961,"x_min":42,"x_max":919,"o":"m 42 993 l 299 993 l 299 419 q 310 317 299 360 q 345 247 322 275 q 402 207 368 220 q 481 194 436 194 q 559 207 525 194 q 616 247 593 220 q 651 317 639 275 q 663 419 663 360 l 663 993 l 919 993 l 919 396 q 886 218 919 295 q 796 87 854 140 q 657 7 738 34 q 481 -21 577 -21 q 359 -9 416 -21 q 253 28 302 4 q 165 87 204 52 q 99 169 126 123 q 57 272 72 215 q 42 396 42 329 l 42 993 z "},"J":{"ha":876,"x_min":21,"x_max":834,"o":"m 21 453 l 277 453 l 277 360 q 288 294 277 325 q 317 241 298 264 q 365 206 336 219 q 428 194 393 194 q 492 206 465 194 q 539 242 520 219 q 568 295 558 264 q 577 362 577 326 l 577 993 l 834 993 l 834 358 q 820 247 834 298 q 781 154 806 196 q 719 80 756 112 q 638 25 683 47 q 540 -9 593 2 q 427 -21 486 -21 q 315 -9 368 -21 q 217 25 262 2 q 136 80 172 47 q 74 154 99 112 q 35 247 49 196 q 21 358 21 298 l 21 453 z "},"D":{"ha":953,"x_min":42,"x_max":921,"o":"m 42 993 l 422 993 q 562 977 496 993 q 683 932 627 961 q 782 858 739 902 q 857 760 826 815 q 905 638 888 705 q 921 497 921 572 q 905 355 921 421 q 857 233 888 289 q 782 135 826 178 q 683 61 739 91 q 562 16 627 32 q 422 0 496 0 l 42 0 l 42 993 m 415 215 q 521 233 475 215 q 598 286 567 251 q 646 374 630 322 q 663 497 663 427 q 646 619 663 566 q 598 707 630 672 q 521 760 567 742 q 415 778 475 778 l 297 778 l 297 215 l 415 215 z "},"B":{"ha":957,"x_min":42,"x_max":936,"o":"m 546 993 q 691 977 627 993 q 801 928 756 960 q 870 850 846 897 q 894 744 894 804 q 879 656 894 697 q 836 587 863 616 q 770 538 808 557 q 688 515 733 520 q 787 490 742 510 q 866 438 833 470 q 918 362 899 405 q 936 268 936 319 q 908 156 936 205 q 830 71 880 106 q 708 18 779 37 q 552 0 638 0 l 42 0 l 42 993 l 546 993 m 516 588 q 567 595 544 588 q 606 616 590 602 q 631 650 623 630 q 640 696 640 670 q 632 740 640 721 q 607 772 623 759 q 568 791 591 784 q 516 797 545 797 l 299 797 l 299 588 l 516 588 m 539 196 q 644 222 609 196 q 680 304 680 248 q 644 386 680 360 q 540 412 609 412 l 299 412 l 299 196 l 539 196 z "},"R":{"ha":957,"x_min":42,"x_max":936,"o":"m 42 0 l 42 993 l 539 993 q 696 972 627 993 q 812 912 765 951 q 884 816 860 873 q 909 689 909 760 q 890 578 909 628 q 834 491 870 527 q 747 435 798 456 q 634 413 697 415 q 741 369 694 408 q 821 256 788 330 l 936 0 l 651 0 l 534 256 q 508 305 520 285 q 482 335 496 324 q 450 351 468 346 q 408 355 433 355 l 299 355 l 299 0 l 42 0 m 510 553 q 571 561 544 553 q 615 584 597 569 q 643 622 634 599 q 652 673 652 644 q 616 760 652 730 q 510 790 580 790 l 299 790 l 299 553 l 510 553 z "},"P":{"ha":940,"x_min":42,"x_max":908,"o":"m 42 993 l 517 993 q 627 982 575 993 q 722 950 678 971 q 800 899 765 929 q 859 832 834 870 q 895 750 883 795 q 908 656 908 706 q 895 561 908 606 q 859 479 883 517 q 800 412 834 442 q 722 361 765 382 q 627 329 678 340 q 517 318 575 318 l 299 318 l 299 0 l 42 0 l 42 993 m 505 522 q 567 531 540 522 q 613 557 594 540 q 642 599 632 575 q 652 656 652 624 q 642 712 652 687 q 614 754 632 737 q 568 780 595 771 q 506 789 541 789 l 299 789 l 299 522 l 505 522 z "},"Q":{"ha":1043,"x_min":32,"x_max":1011,"o":"m 32 497 q 48 644 32 575 q 95 770 65 713 q 170 873 126 828 q 268 949 213 918 q 386 997 322 981 q 522 1014 450 1014 q 657 997 593 1014 q 775 949 721 981 q 873 873 830 918 q 948 770 917 828 q 995 644 978 713 q 1011 497 1011 575 q 997 358 1011 423 q 955 237 982 292 q 889 137 927 182 q 801 59 850 92 l 988 -147 l 731 -147 l 622 -12 q 573 -19 598 -16 q 522 -21 548 -21 q 386 -4 450 -21 q 268 44 322 12 q 170 120 213 75 q 95 223 126 166 q 48 349 65 281 q 32 497 32 418 m 284 497 q 300 365 284 422 q 347 271 316 309 q 422 213 377 233 q 522 194 466 194 q 622 213 577 194 q 696 271 666 233 q 743 365 727 309 q 759 497 759 422 q 743 628 759 571 q 696 723 727 684 q 622 780 666 761 q 522 799 577 799 q 422 780 466 799 q 347 723 377 761 q 300 628 316 684 q 284 497 284 571 z "},"A":{"ha":995,"x_min":-5,"x_max":1000,"o":"m -5 0 l 324 993 l 676 993 l 1000 0 l 726 0 l 671 203 l 320 203 l 263 0 l -5 0 m 616 406 l 497 840 l 376 406 l 616 406 z "},"V":{"ha":959,"x_min":-5,"x_max":964,"o":"m 964 993 l 653 0 l 301 0 l -5 993 l 269 993 l 480 187 l 696 993 l 964 993 z "},"W":{"ha":1519,"x_min":22,"x_max":1498,"o":"m 933 993 l 1074 165 l 1235 993 l 1498 993 l 1261 0 l 905 0 l 759 802 l 612 0 l 256 0 l 22 993 l 295 993 l 455 165 l 598 993 l 933 993 z "},"K":{"ha":943,"x_min":42,"x_max":948,"o":"m 504 496 l 948 0 l 624 0 l 299 371 l 299 0 l 42 0 l 42 993 l 299 993 l 299 582 l 615 993 l 918 993 l 504 496 z "},"X":{"ha":970,"x_min":2,"x_max":967,"o":"m 653 505 l 967 0 l 668 0 l 473 347 l 283 0 l 2 0 l 300 506 l 18 993 l 316 993 l 485 661 l 668 993 l 948 993 l 653 505 z "},"Y":{"ha":952,"x_min":-8,"x_max":960,"o":"m 960 993 l 603 354 l 603 0 l 347 0 l 347 354 l -8 993 l 271 993 l 477 588 l 687 993 l 960 993 z "},"M":{"ha":1280,"x_min":42,"x_max":1238,"o":"m 1238 993 l 1238 0 l 981 0 l 981 778 l 762 0 l 505 0 l 287 778 l 287 0 l 42 0 l 42 993 l 447 993 l 647 277 l 848 993 l 1238 993 z "},"N":{"ha":1008,"x_min":42,"x_max":966,"o":"m 966 0 l 617 0 l 287 745 l 287 0 l 42 0 l 42 993 l 412 993 l 721 300 l 721 993 l 966 993 l 966 0 z "},"Z":{"ha":885,"x_min":42,"x_max":843,"o":"m 340 213 l 843 213 l 843 0 l 42 0 l 42 223 l 511 781 l 60 781 l 60 993 l 808 993 l 808 770 l 340 213 z "},".":{"ha":318,"x_min":42,"x_max":276,"o":"m 276 0 l 42 0 l 42 242 l 276 242 l 276 0 z "},"o":{"ha":838,"x_min":24,"x_max":814,"o":"m 24 383 q 37 498 24 444 q 75 597 50 552 q 135 677 99 642 q 214 736 170 712 q 309 774 258 761 q 419 786 361 786 q 528 774 477 786 q 624 736 580 761 q 703 677 668 712 q 763 597 738 642 q 801 498 788 552 q 814 383 814 444 q 801 268 814 322 q 763 169 788 214 q 703 89 738 124 q 624 29 668 54 q 528 -8 580 5 q 419 -21 477 -21 q 309 -8 361 -21 q 214 29 258 5 q 135 89 170 54 q 75 169 99 124 q 37 268 50 214 q 24 383 24 322 m 267 383 q 277 299 267 335 q 307 237 288 262 q 355 200 326 213 q 419 187 383 187 q 484 200 456 187 q 531 237 512 213 q 560 299 550 262 q 570 383 570 335 q 560 467 570 431 q 531 528 550 504 q 484 566 512 553 q 419 578 456 578 q 355 566 383 578 q 307 528 326 553 q 277 467 288 504 q 267 383 267 431 z "},"l":{"ha":319,"x_min":39,"x_max":281,"o":"m 281 0 l 39 0 l 39 1028 l 281 1028 l 281 0 z "},"b":{"ha":851,"x_min":39,"x_max":827,"o":"m 281 536 q 314 644 292 597 q 366 722 335 690 q 437 770 397 754 q 525 786 477 786 q 610 773 570 786 q 683 735 649 760 q 743 674 716 710 q 789 594 770 639 q 817 496 807 549 q 827 383 827 443 q 817 270 827 323 q 789 172 807 217 q 743 91 770 127 q 683 31 716 56 q 610 -7 649 6 q 525 -21 570 -21 q 437 -5 477 -21 q 366 44 398 12 q 314 122 335 75 q 281 230 292 169 l 281 0 l 39 0 l 39 1028 l 281 1028 l 281 536 m 281 383 q 291 298 281 335 q 320 236 301 261 q 368 199 339 211 q 433 186 396 186 q 546 235 508 186 q 583 383 583 284 q 545 530 583 481 q 433 580 508 580 q 368 567 396 580 q 320 529 339 554 q 291 468 301 505 q 281 383 281 431 z "},"d":{"ha":851,"x_min":24,"x_max":812,"o":"m 812 1028 l 812 0 l 570 0 l 570 230 q 537 122 558 169 q 484 44 515 75 q 413 -5 453 12 q 325 -21 374 -21 q 241 -7 281 -21 q 168 31 201 6 q 108 91 134 56 q 62 172 81 127 q 34 270 43 217 q 24 383 24 323 q 34 496 24 443 q 62 594 43 549 q 108 674 81 639 q 168 735 134 710 q 241 773 201 760 q 325 786 281 786 q 413 770 374 786 q 484 722 453 754 q 537 643 515 690 q 570 535 558 597 l 570 1028 l 812 1028 m 570 383 q 560 468 570 431 q 531 529 550 504 q 483 567 511 554 q 418 580 455 580 q 305 531 343 580 q 267 383 267 481 q 305 235 267 284 q 418 186 343 186 q 483 199 455 186 q 531 236 511 211 q 560 298 550 261 q 570 383 570 335 z "},"q":{"ha":851,"x_min":24,"x_max":812,"o":"m 812 766 l 812 -263 l 570 -263 l 570 230 q 537 122 558 169 q 484 44 515 75 q 413 -5 453 12 q 325 -21 374 -21 q 241 -7 281 -21 q 168 31 201 6 q 108 92 134 56 q 62 172 81 127 q 34 270 43 217 q 24 383 24 324 q 34 496 24 443 q 62 594 43 549 q 108 674 81 639 q 168 735 134 710 q 241 773 201 760 q 325 786 281 786 q 413 770 374 786 q 484 722 453 754 q 537 644 515 690 q 570 536 558 597 l 570 766 l 812 766 m 570 383 q 560 468 570 431 q 531 529 550 504 q 483 567 511 554 q 418 580 455 580 q 305 531 342 580 q 267 383 267 481 q 305 235 267 285 q 418 186 343 186 q 483 199 455 186 q 531 237 511 211 q 560 299 550 262 q 570 383 570 335 z "},"p":{"ha":851,"x_min":39,"x_max":827,"o":"m 281 536 q 314 644 292 597 q 366 722 335 690 q 437 770 397 754 q 525 786 477 786 q 610 773 570 786 q 683 735 649 760 q 743 674 716 710 q 789 594 770 639 q 817 496 807 549 q 827 383 827 443 q 817 270 827 324 q 789 172 807 217 q 743 92 770 127 q 683 31 716 56 q 610 -7 649 6 q 525 -21 570 -21 q 437 -5 477 -21 q 366 44 398 12 q 314 122 335 75 q 281 230 292 169 l 281 -263 l 39 -263 l 39 766 l 281 766 l 281 536 m 281 383 q 291 299 281 335 q 320 237 301 262 q 368 199 339 211 q 433 186 396 186 q 546 235 508 186 q 583 383 583 285 q 546 531 583 481 q 433 580 508 580 q 368 567 396 580 q 320 529 339 554 q 291 468 301 504 q 281 383 281 431 z "},"c":{"ha":817,"x_min":24,"x_max":793,"o":"m 267 383 q 277 299 267 335 q 307 237 288 262 q 354 200 326 213 q 419 187 383 187 q 471 196 448 187 q 510 220 493 205 q 537 259 526 236 q 552 309 547 282 l 793 309 q 753 175 784 235 q 673 70 722 114 q 560 3 625 27 q 419 -21 495 -21 q 309 -8 361 -21 q 214 29 258 5 q 135 89 170 54 q 75 169 99 124 q 37 268 50 214 q 24 383 24 322 q 37 498 24 444 q 75 597 50 552 q 135 677 99 642 q 214 736 170 712 q 309 774 258 761 q 419 786 361 786 q 560 763 495 786 q 673 695 625 739 q 753 591 722 652 q 793 456 784 530 l 552 456 q 537 507 547 484 q 510 545 526 529 q 471 570 494 561 q 419 578 449 578 q 354 566 383 578 q 307 528 326 553 q 277 467 288 504 q 267 383 267 431 z "},"s":{"ha":791,"x_min":17,"x_max":772,"o":"m 382 786 q 538 768 469 786 q 654 714 607 749 q 726 627 701 678 q 751 513 751 577 l 512 513 q 481 591 512 564 q 388 619 449 619 q 340 614 362 619 q 303 600 319 609 q 279 578 288 591 q 270 549 270 565 q 282 516 270 529 q 314 494 293 503 q 361 480 334 486 q 419 469 388 475 l 470 460 q 534 448 500 455 q 602 430 568 441 q 666 403 636 419 q 721 362 697 386 q 758 304 744 338 q 772 225 772 270 q 748 121 772 166 q 676 44 723 75 q 559 -4 628 12 q 401 -21 490 -21 q 236 -2 308 -21 q 116 52 164 16 q 42 139 67 87 q 17 259 17 191 l 257 259 q 292 177 257 205 q 399 149 327 149 q 455 154 430 149 q 497 168 480 159 q 524 191 514 177 q 533 222 533 205 q 522 256 533 243 q 491 278 511 269 q 441 294 470 288 q 375 306 412 300 l 324 315 q 264 327 297 320 q 199 344 232 333 q 136 371 167 355 q 83 411 106 387 q 45 467 59 434 q 32 544 32 500 q 56 646 32 601 q 124 722 80 691 q 234 770 169 753 q 382 786 299 786 z "},"e":{"ha":818,"x_min":24,"x_max":795,"o":"m 791 262 q 741 144 775 196 q 658 55 707 91 q 548 -1 610 18 q 416 -21 487 -21 q 306 -8 357 -21 q 210 30 254 6 q 132 91 167 55 q 73 171 98 126 q 36 270 49 216 q 24 383 24 323 q 36 497 24 443 q 73 595 49 550 q 131 675 97 640 q 208 735 165 711 q 303 773 251 760 q 411 786 354 786 q 520 773 469 786 q 613 736 570 760 q 690 676 656 711 q 747 596 723 641 q 782 498 770 551 q 795 384 795 444 q 792 326 795 355 l 253 326 q 271 258 258 288 q 306 208 285 228 q 357 176 328 187 q 423 165 386 165 q 512 189 476 165 q 568 262 548 214 l 791 262 m 568 458 q 413 605 543 605 q 306 567 347 605 q 255 458 266 530 l 568 458 z "},"a":{"ha":830,"x_min":18,"x_max":794,"o":"m 41 478 q 67 607 41 550 q 142 704 93 664 q 261 765 191 744 q 418 786 331 786 q 577 764 508 786 q 695 699 647 742 q 769 595 744 657 q 794 454 794 533 l 794 0 l 553 0 l 553 191 q 515 103 541 142 q 453 36 490 64 q 370 -6 416 9 q 270 -21 324 -21 q 167 -5 213 -21 q 87 41 120 11 q 36 111 54 70 q 18 203 18 152 q 40 302 18 258 q 104 375 62 345 q 207 421 147 405 q 346 436 268 436 l 553 436 l 553 454 q 544 518 553 490 q 516 565 534 546 q 473 594 499 584 q 413 605 447 605 q 354 596 379 605 q 313 571 329 587 q 289 531 297 555 q 281 478 281 508 l 41 478 m 379 306 q 291 286 320 306 q 261 229 261 267 q 290 171 261 191 q 374 150 320 150 q 445 160 412 150 q 501 188 477 170 q 539 230 525 206 q 553 283 553 255 l 553 306 l 379 306 z "},"g":{"ha":853,"x_min":26,"x_max":815,"o":"m 815 766 l 815 85 q 788 -69 815 -1 q 711 -185 761 -137 q 589 -259 661 -233 q 428 -284 518 -284 q 271 -261 342 -284 q 151 -198 201 -239 q 73 -99 100 -157 q 45 29 45 -41 l 286 29 q 296 -26 286 -1 q 324 -67 306 -50 q 367 -93 342 -84 q 423 -102 392 -102 q 487 -90 459 -102 q 534 -54 515 -77 q 563 4 553 -30 q 573 83 573 39 l 573 279 q 539 179 561 222 q 487 105 518 135 q 415 60 456 76 q 327 45 375 45 q 205 73 260 45 q 110 149 150 100 q 48 268 70 199 q 26 420 26 337 q 48 571 26 503 q 110 686 70 639 q 205 760 150 734 q 327 786 260 786 q 487 730 424 786 q 573 561 549 673 l 573 766 l 815 766 m 573 420 q 534 541 573 501 q 419 580 494 580 q 355 570 382 580 q 308 542 327 561 q 280 492 289 522 q 270 420 270 462 q 308 294 270 336 q 419 252 345 252 q 534 295 494 252 q 573 420 573 339 z "},"n":{"ha":819,"x_min":39,"x_max":784,"o":"m 281 0 l 39 0 l 39 766 l 281 766 l 281 531 q 369 722 303 658 q 542 786 435 786 q 723 703 663 786 q 784 453 784 619 l 784 0 l 542 0 l 542 401 q 511 535 542 491 q 417 578 481 578 q 316 532 351 578 q 281 395 281 486 l 281 0 z "},"h":{"ha":819,"x_min":39,"x_max":784,"o":"m 281 0 l 39 0 l 39 1028 l 281 1028 l 281 531 q 369 722 303 658 q 542 786 435 786 q 723 703 663 786 q 784 453 784 619 l 784 0 l 542 0 l 542 401 q 511 535 542 491 q 417 578 481 578 q 316 532 351 578 q 281 395 281 486 l 281 0 z "},"m":{"ha":1287,"x_min":39,"x_max":1251,"o":"m 281 0 l 39 0 l 39 766 l 281 766 l 281 535 q 366 723 303 659 q 533 786 430 786 q 763 517 741 786 q 847 718 782 649 q 1018 786 912 786 q 1193 703 1134 786 q 1251 453 1251 619 l 1251 0 l 1010 0 l 1010 401 q 981 534 1010 490 q 893 578 952 578 q 798 532 831 578 q 766 395 766 486 l 766 0 l 524 0 l 524 401 q 495 534 524 490 q 408 578 467 578 q 313 532 345 578 q 281 395 281 486 l 281 0 z "},"u":{"ha":819,"x_min":35,"x_max":781,"o":"m 539 766 l 781 766 l 781 0 l 539 0 l 539 234 q 450 44 516 108 q 277 -21 384 -21 q 96 63 157 -21 q 35 313 35 147 l 35 766 l 277 766 l 277 365 q 308 231 277 275 q 402 187 339 187 q 504 234 469 187 q 539 370 539 280 l 539 766 z "},"r":{"ha":587,"x_min":39,"x_max":567,"o":"m 281 0 l 39 0 l 39 766 l 281 766 l 281 489 q 307 604 290 552 q 353 691 325 655 q 422 746 382 727 q 516 766 462 766 l 567 766 l 567 539 l 464 539 q 375 527 410 539 q 318 490 339 515 q 289 426 298 465 q 281 335 281 388 l 281 0 z "},"i":{"ha":319,"x_min":38,"x_max":282,"o":"m 282 842 l 38 842 l 38 1028 l 282 1028 l 282 842 m 281 0 l 39 0 l 39 766 l 281 766 l 281 0 z "},"j":{"ha":319,"x_min":-79,"x_max":282,"o":"m 282 842 l 38 842 l 38 1028 l 282 1028 l 282 842 m 281 66 q 263 -96 281 -29 q 205 -204 244 -162 q 103 -265 166 -246 q -49 -284 41 -284 l -79 -284 l -79 -90 l -57 -90 q -5 -79 -24 -90 q 24 -52 14 -69 q 36 -13 34 -35 q 39 31 39 8 l 39 766 l 281 766 l 281 66 z "},"f":{"ha":585,"x_min":11,"x_max":559,"o":"m 108 577 l 11 577 l 11 766 l 108 766 l 108 789 q 128 911 108 858 q 187 1000 148 964 q 283 1055 226 1036 q 415 1073 341 1073 q 485 1069 448 1073 q 558 1059 521 1066 l 558 880 q 508 886 532 884 q 462 889 483 889 q 368 864 398 889 q 338 786 338 839 l 338 766 l 559 766 l 559 577 l 349 577 l 349 0 l 108 0 l 108 577 z "},"t":{"ha":575,"x_min":11,"x_max":548,"o":"m 548 6 q 453 -14 497 -7 q 370 -21 409 -21 q 170 56 238 -21 q 103 284 103 133 l 103 577 l 11 577 l 11 766 l 103 766 l 103 942 l 344 942 l 344 766 l 548 766 l 548 577 l 344 577 l 344 284 q 367 195 344 223 q 438 168 389 168 q 484 172 458 168 q 548 186 511 177 l 548 6 z "},"v":{"ha":824,"x_min":2,"x_max":821,"o":"m 821 766 l 572 0 l 249 0 l 2 766 l 258 766 l 413 159 l 571 766 l 821 766 z "},"w":{"ha":1287,"x_min":8,"x_max":1280,"o":"m 807 766 l 919 166 l 1043 766 l 1280 766 l 1094 0 l 758 0 l 644 602 l 529 0 l 193 0 l 8 766 l 255 766 l 379 156 l 492 766 l 807 766 z "},"k":{"ha":834,"x_min":39,"x_max":828,"o":"m 481 382 l 828 0 l 530 0 l 281 283 l 281 0 l 39 0 l 39 1028 l 281 1028 l 281 452 l 524 766 l 802 766 l 481 382 z "},"x":{"ha":877,"x_min":12,"x_max":871,"o":"m 620 388 l 871 0 l 592 0 l 433 272 l 279 0 l 15 0 l 251 385 l 12 766 l 291 766 l 438 496 l 584 766 l 848 766 l 620 388 z "},"z":{"ha":755,"x_min":24,"x_max":731,"o":"m 291 189 l 731 189 l 731 0 l 24 0 l 24 200 l 427 576 l 37 576 l 37 766 l 704 766 l 704 565 l 291 189 z "},"y":{"ha":824,"x_min":2,"x_max":821,"o":"m 821 766 l 541 -8 q 481 -132 516 -80 q 400 -218 446 -184 q 296 -268 354 -252 q 167 -284 238 -284 q 34 -272 106 -284 l 34 -81 q 83 -86 61 -84 q 125 -88 105 -88 q 175 -84 152 -88 q 217 -73 198 -81 q 253 -53 236 -65 q 282 -23 269 -40 l 2 766 l 258 766 l 414 181 l 572 766 l 821 766 z "},",":{"ha":318,"x_min":-1,"x_max":289,"o":"m 158 -263 l -1 -263 l 49 242 l 289 242 l 158 -263 z "},"-":{"ha":710,"x_min":42,"x_max":667,"o":"m 667 300 l 42 300 l 42 504 l 667 504 l 667 300 z "},"+":{"ha":736,"x_min":42,"x_max":694,"o":"m 272 176 l 272 412 l 42 412 l 42 592 l 272 592 l 272 828 l 464 828 l 464 592 l 694 592 l 694 412 l 464 412 l 464 176 l 272 176 z "},"*":{"ha":645,"x_min":36,"x_max":609,"o":"m 213 725 l 36 750 l 97 936 l 256 852 l 226 1028 l 422 1028 l 391 850 l 549 933 l 609 747 l 431 722 l 559 597 l 400 482 l 320 644 l 242 484 l 83 599 l 213 725 z "},"^":{"ha":605,"x_min":42,"x_max":563,"o":"m 302 857 l 199 531 l 42 531 l 199 993 l 406 993 l 563 531 l 406 531 l 302 857 z "},"˜":{"ha":499,"x_min":43,"x_max":458,"o":"m 458 1007 q 452 914 458 953 q 431 851 445 876 q 396 814 417 826 q 344 802 374 802 q 311 806 326 802 q 284 814 297 809 q 262 824 272 819 q 244 834 252 830 l 223 847 q 211 853 218 850 q 197 860 205 857 q 180 866 189 864 q 163 868 172 868 q 135 856 144 868 q 125 811 125 843 l 125 809 l 43 809 l 43 813 q 72 969 43 918 q 161 1019 101 1019 q 190 1016 176 1019 q 215 1009 203 1013 q 235 999 226 1004 q 250 990 243 994 l 270 978 q 284 970 276 975 q 301 962 291 966 q 320 956 310 959 q 341 953 330 953 q 367 966 358 953 q 377 1007 377 978 l 377 1013 l 458 1013 l 458 1007 z "},"/":{"ha":648,"x_min":44,"x_max":609,"o":"m 44 -263 l 374 1028 l 609 1028 l 279 -263 l 44 -263 z "},"\\":{"ha":648,"x_min":39,"x_max":605,"o":"m 605 -263 l 274 1028 l 39 1028 l 369 -263 l 605 -263 z "},":":{"ha":318,"x_min":42,"x_max":276,"o":"m 276 0 l 42 0 l 42 242 l 276 242 l 276 0 m 276 528 l 42 528 l 42 770 l 276 770 l 276 528 z "},"<":{"ha":773,"x_min":42,"x_max":730,"o":"m 730 580 l 180 439 l 730 298 l 730 73 l 42 341 l 42 537 l 730 805 l 730 580 z "},"=":{"ha":736,"x_min":42,"x_max":694,"o":"m 42 553 l 42 733 l 694 733 l 694 553 l 42 553 m 42 271 l 42 451 l 694 451 l 694 271 l 42 271 z "},">":{"ha":773,"x_min":42,"x_max":730,"o":"m 42 298 l 592 439 l 42 580 l 42 805 l 730 537 l 730 340 l 42 73 l 42 298 z "},"!":{"ha":323,"x_min":45,"x_max":278,"o":"m 274 993 l 274 821 l 255 319 l 67 319 l 49 821 l 49 993 l 274 993 m 278 0 l 45 0 l 45 242 l 278 242 l 278 0 z "},"?":{"ha":873,"x_min":21,"x_max":831,"o":"m 508 306 l 295 306 l 295 364 q 303 426 295 399 q 322 475 310 453 q 351 514 335 497 q 385 543 367 530 q 422 566 403 556 q 457 584 440 576 l 486 599 q 524 619 506 609 q 554 641 541 628 q 575 668 567 653 q 583 706 583 684 q 572 749 583 730 q 541 782 561 768 q 493 803 521 795 q 430 810 465 810 q 307 768 350 810 q 265 636 265 726 l 265 620 l 21 620 l 21 641 q 125 921 21 828 q 432 1014 230 1014 q 601 994 527 1014 q 726 935 675 974 q 804 841 777 897 q 831 712 831 784 q 822 636 831 669 q 798 577 813 603 q 764 532 784 551 q 724 498 745 513 q 682 473 703 483 q 643 453 661 462 l 616 440 q 576 420 595 430 q 541 398 557 410 q 517 370 526 385 q 508 334 508 355 l 508 306 m 518 0 l 285 0 l 285 242 l 518 242 l 518 0 z "},"'":{"ha":310,"x_min":42,"x_max":267,"o":"m 238 529 l 71 529 l 42 993 l 267 993 l 238 529 z "},"\"":{"ha":573,"x_min":42,"x_max":530,"o":"m 238 529 l 71 529 l 42 993 l 267 993 l 238 529 m 500 529 l 334 529 l 305 993 l 530 993 l 500 529 z "},"#":{"ha":1058,"x_min":33,"x_max":1025,"o":"m 582 214 l 406 214 l 380 0 l 194 0 l 221 214 l 33 214 l 33 389 l 243 389 l 270 604 l 74 604 l 74 781 l 292 781 l 318 993 l 503 993 l 477 781 l 652 781 l 678 993 l 864 993 l 838 781 l 1025 781 l 1025 604 l 816 604 l 789 389 l 984 389 l 984 214 l 767 214 l 740 0 l 555 0 l 582 214 m 603 389 l 630 604 l 455 604 l 428 389 l 603 389 z "},"@":{"ha":1333,"x_min":32,"x_max":1301,"o":"m 686 -200 q 502 -180 589 -200 q 343 -122 416 -160 q 213 -31 270 -85 q 115 91 155 24 q 53 240 75 159 q 32 410 32 320 q 53 582 32 501 q 115 731 75 663 q 211 855 155 800 q 339 948 268 910 q 494 1007 410 987 q 670 1028 577 1028 q 844 1009 762 1028 q 996 952 926 989 q 1122 864 1066 916 q 1219 747 1179 812 q 1280 607 1258 683 q 1301 448 1301 532 q 1279 294 1301 363 q 1217 176 1257 225 q 1121 101 1177 127 q 997 75 1065 75 q 907 89 948 75 q 836 129 866 102 q 786 194 806 156 q 761 283 767 233 q 736 194 752 233 q 695 128 719 155 q 640 88 672 101 q 572 74 609 74 q 478 98 520 74 q 405 166 435 122 q 357 269 374 209 q 340 402 340 330 q 357 535 340 475 q 405 639 374 595 q 478 706 435 682 q 571 730 520 730 q 692 680 645 730 q 758 532 740 630 l 758 709 l 957 709 l 957 341 q 973 266 957 291 q 1022 241 989 241 q 1065 254 1047 241 q 1095 291 1083 267 q 1113 349 1107 315 q 1119 423 1119 382 q 1104 548 1119 490 q 1062 655 1090 606 q 995 742 1035 703 q 907 807 956 781 q 799 848 857 834 q 674 863 740 863 q 546 848 607 863 q 435 805 486 833 q 344 738 385 777 q 276 649 304 698 q 232 540 248 599 q 217 415 217 481 q 233 289 217 348 q 276 180 248 230 q 346 90 305 130 q 438 23 386 50 q 549 -20 489 -5 q 677 -35 609 -35 q 805 -21 741 -35 q 941 22 869 -7 l 995 -137 q 934 -164 969 -152 q 860 -184 900 -175 q 776 -196 819 -192 q 686 -200 732 -200 m 758 402 q 731 515 758 476 q 652 553 704 553 q 574 515 600 553 q 549 402 549 477 q 574 289 549 327 q 652 252 600 252 q 731 290 704 252 q 758 402 758 328 z "},"$":{"ha":942,"x_min":19,"x_max":923,"o":"m 383 -16 q 226 21 294 -7 q 112 92 158 48 q 42 196 66 136 q 19 329 19 256 l 263 329 q 278 267 263 294 q 319 220 292 239 q 385 191 346 201 q 473 181 424 181 q 550 188 515 181 q 613 210 586 196 q 654 246 639 225 q 669 295 669 267 q 656 341 669 324 q 617 368 643 358 q 554 386 592 379 q 465 399 516 392 l 419 405 q 335 418 379 411 q 248 437 291 425 q 166 468 205 449 q 98 517 128 488 q 51 589 69 547 q 34 690 34 631 q 60 815 34 759 q 132 911 85 870 q 242 976 178 951 q 383 1009 306 1001 l 370 1167 l 573 1167 l 559 1008 q 699 970 637 998 q 803 900 761 943 q 869 800 846 857 q 891 673 891 743 l 647 673 q 634 731 647 705 q 597 774 621 757 q 539 802 573 792 q 463 812 505 812 q 397 805 428 812 q 341 785 365 798 q 303 752 317 772 q 289 707 289 733 q 302 665 289 681 q 340 639 315 649 q 405 622 366 628 q 496 607 444 615 l 531 602 q 595 592 562 598 q 662 579 628 587 q 727 561 695 572 q 789 534 760 550 q 843 498 818 519 q 885 448 867 476 q 913 385 903 420 q 923 303 923 349 q 898 178 923 233 q 826 81 873 122 q 712 16 780 41 q 560 -17 645 -9 l 573 -174 l 370 -174 l 383 -16 z "},"€":{"ha":1091,"x_min":32,"x_max":1059,"o":"m 32 453 l 105 453 q 104 475 105 464 q 104 497 104 485 q 104 518 104 508 q 105 539 105 529 l 32 539 l 32 645 l 121 645 q 184 799 141 731 q 288 915 227 867 q 427 988 350 963 q 593 1014 505 1014 q 714 1001 657 1014 q 819 962 770 988 q 908 900 868 937 q 979 815 948 863 q 1030 711 1009 768 q 1059 587 1050 653 l 805 587 q 735 747 788 694 q 593 799 683 799 q 461 761 514 799 q 383 645 408 722 l 618 645 l 618 539 l 364 539 q 363 518 363 529 q 362 497 362 508 q 363 474 362 485 q 364 453 363 464 l 618 453 l 618 347 l 383 347 q 461 232 408 270 q 593 194 514 194 q 735 246 683 194 q 805 406 788 299 l 1059 406 q 1007 228 1045 307 q 908 93 968 149 q 768 9 848 38 q 593 -21 689 -21 q 427 5 505 -21 q 289 78 350 30 q 184 193 227 125 q 121 347 141 261 l 32 347 l 32 453 z "},"%":{"ha":1235,"x_min":43,"x_max":1193,"o":"m 43 748 q 61 857 43 808 q 112 941 79 906 q 191 995 145 976 q 294 1014 238 1014 q 397 995 351 1014 q 476 941 443 976 q 526 857 508 906 q 544 748 544 808 q 526 640 544 688 q 476 557 509 591 q 397 505 443 523 q 294 486 351 486 q 190 505 236 486 q 111 557 144 523 q 60 640 78 592 q 43 748 43 688 m 1019 993 l 405 0 l 221 0 l 834 993 l 1019 993 m 206 747 q 228 664 206 693 q 293 635 251 635 q 358 664 335 635 q 380 747 380 693 q 374 796 380 774 q 357 833 368 818 q 330 856 346 848 q 293 865 314 865 q 257 856 273 865 q 229 833 240 848 q 212 796 218 818 q 206 747 206 774 m 691 240 q 709 349 691 300 q 760 434 727 399 q 840 488 793 468 q 943 507 886 507 q 1045 488 999 507 q 1124 434 1092 469 q 1175 350 1157 399 q 1193 241 1193 301 q 1175 133 1193 181 q 1125 50 1157 84 q 1046 -2 1092 16 q 942 -21 1000 -21 q 839 -2 885 -21 q 760 50 792 16 q 709 133 727 84 q 691 240 691 181 m 855 240 q 877 157 855 185 q 942 128 899 128 q 1006 157 984 128 q 1029 239 1029 185 q 1023 289 1029 267 q 1006 326 1017 311 q 978 349 994 341 q 942 357 962 357 q 905 349 922 357 q 878 326 889 341 q 861 289 867 311 q 855 240 855 267 z "},"&":{"ha":1011,"x_min":32,"x_max":979,"o":"m 876 307 q 862 216 876 259 q 821 137 848 174 q 758 72 795 101 q 674 22 720 42 q 572 -10 627 1 q 456 -21 517 -21 q 341 -10 396 -21 q 239 21 286 1 q 153 69 192 41 q 88 132 115 97 q 47 207 61 166 q 32 292 32 248 q 45 371 32 335 q 83 433 59 407 q 143 476 108 459 q 220 497 177 492 q 142 516 177 501 q 83 558 107 532 q 45 620 58 584 q 32 698 32 655 q 46 784 32 743 q 87 860 61 825 q 151 924 114 895 q 235 972 189 952 q 336 1003 282 992 q 449 1014 390 1014 q 561 1003 508 1014 q 659 972 614 992 q 743 924 705 952 q 808 859 780 895 q 852 780 835 823 q 874 690 869 738 l 625 690 q 605 740 619 718 q 567 778 590 763 q 515 802 544 794 q 450 811 485 811 q 383 802 414 811 q 330 776 352 792 q 295 736 308 759 q 283 685 283 713 q 324 611 283 636 q 445 586 364 586 l 979 586 l 979 409 l 876 409 l 876 307 m 454 409 q 328 382 370 409 q 285 305 285 356 q 297 255 285 277 q 331 216 309 232 q 385 191 353 200 q 454 183 416 183 q 527 193 494 183 q 582 222 559 203 q 618 267 605 240 q 630 326 630 293 l 630 409 l 454 409 z "},"(":{"ha":493,"x_min":32,"x_max":478,"o":"m 478 1016 q 393 873 430 945 q 332 728 356 801 q 294 583 307 655 q 282 439 282 510 q 294 296 282 368 q 332 152 307 224 q 393 9 356 80 q 478 -130 430 -62 l 374 -212 q 225 -64 289 -141 q 118 96 161 14 q 53 266 75 179 q 32 443 32 353 q 54 621 32 533 q 118 791 75 708 q 225 951 161 874 q 374 1098 289 1028 l 478 1016 z "},")":{"ha":493,"x_min":14,"x_max":461,"o":"m 15 -130 q 100 13 63 -59 q 161 158 137 85 q 199 304 186 231 q 211 447 211 376 q 199 590 211 518 q 161 734 186 663 q 100 877 137 806 q 15 1016 63 948 l 119 1098 q 268 950 204 1027 q 375 790 332 873 q 440 620 418 707 q 461 443 461 533 q 439 265 461 353 q 375 95 418 178 q 268 -65 332 12 q 119 -212 204 -142 l 15 -130 z "},"{":{"ha":542,"x_min":32,"x_max":524,"o":"m 524 869 l 492 869 q 410 840 436 869 q 383 752 383 811 l 383 668 q 381 617 383 642 q 373 568 379 591 q 358 524 368 544 q 333 487 348 503 q 296 460 317 471 q 244 447 274 450 q 296 433 274 443 q 333 406 318 422 q 358 370 349 391 q 374 326 368 349 q 381 276 379 302 q 383 223 383 250 l 383 139 q 410 53 383 81 q 492 24 436 24 l 524 24 l 524 -152 l 444 -152 q 217 -79 293 -152 q 140 139 140 -6 l 140 238 q 135 288 140 267 q 119 323 130 309 q 90 343 108 336 q 49 349 73 349 l 32 349 l 32 544 l 49 544 q 91 551 74 544 q 119 570 108 557 q 135 605 130 584 q 140 656 140 626 l 140 755 q 444 1046 140 1046 l 524 1046 l 524 869 z "},"|":{"ha":306,"x_min":42,"x_max":263,"o":"m 42 -128 l 42 1122 l 263 1122 l 263 -128 l 42 -128 z "},"}":{"ha":542,"x_min":18,"x_max":510,"o":"m 18 24 l 49 24 q 132 53 106 24 q 158 142 158 82 l 158 226 q 160 277 158 252 q 168 326 163 302 q 184 370 174 349 q 209 407 193 391 q 246 433 224 423 q 297 447 268 444 q 246 461 267 450 q 209 487 224 472 q 183 524 193 503 q 168 568 174 544 q 160 618 163 592 q 158 671 158 644 l 158 755 q 132 841 158 813 q 49 869 106 869 l 18 869 l 18 1046 l 98 1046 q 325 973 248 1046 q 401 755 401 899 l 401 656 q 407 606 401 627 q 423 571 412 584 q 451 551 434 557 q 492 544 468 544 l 510 544 l 510 349 l 492 349 q 451 343 468 349 q 422 323 433 337 q 406 289 411 310 q 401 238 401 268 l 401 139 q 98 -152 401 -152 l 18 -152 l 18 24 z "},"[":{"ha":422,"x_min":32,"x_max":405,"o":"m 405 1046 l 405 869 l 275 869 l 275 24 l 404 24 l 404 -152 l 32 -152 l 32 1046 l 405 1046 z "},"]":{"ha":422,"x_min":18,"x_max":390,"o":"m 18 -152 l 18 24 l 147 24 l 147 869 l 18 869 l 18 1046 l 390 1046 l 390 -152 l 18 -152 z "},"‘":{"ha":374,"x_min":42,"x_max":332,"o":"m 173 1028 l 332 1028 l 282 523 l 42 523 l 173 1028 z "},"’":{"ha":374,"x_min":42,"x_max":332,"o":"m 201 523 l 42 523 l 92 1028 l 332 1028 l 201 523 z "},"“":{"ha":645,"x_min":42,"x_max":602,"o":"m 173 1028 l 332 1028 l 282 523 l 42 523 l 173 1028 m 444 1028 l 602 1028 l 553 523 l 313 523 l 444 1028 z "},"”":{"ha":645,"x_min":43,"x_max":603,"o":"m 472 523 l 314 523 l 363 1028 l 603 1028 l 472 523 m 201 523 l 43 523 l 92 1028 l 332 1028 l 201 523 z "},"‚":{"ha":318,"x_min":-1,"x_max":289,"o":"m 158 -263 l -1 -263 l 49 242 l 289 242 l 158 -263 z "},"„":{"ha":590,"x_min":-1,"x_max":560,"o":"m 158 -263 l -1 -263 l 49 242 l 289 242 l 158 -263 m 429 -263 l 270 -263 l 320 242 l 560 242 l 429 -263 z "},"•":{"ha":415,"x_min":42,"x_max":372,"o":"m 372 257 l 42 257 l 42 570 l 372 570 l 372 257 z "},"_":{"ha":780,"x_min":42,"x_max":738,"o":"m 738 -167 l 42 -167 l 42 0 l 738 0 l 738 -167 z "},"–":{"ha":1023,"x_min":42,"x_max":980,"o":"m 980 300 l 42 300 l 42 504 l 980 504 l 980 300 z "},"—":{"ha":1460,"x_min":42,"x_max":1417,"o":"m 1417 300 l 42 300 l 42 504 l 1417 504 l 1417 300 z "},"¯":{"ha":479,"x_min":42,"x_max":437,"o":"m 437 840 l 42 840 l 42 967 l 437 967 l 437 840 z "},"¬":{"ha":1073,"x_min":42,"x_max":1031,"o":"m 42 993 l 1031 993 l 1031 0 l 42 0 l 42 993 m 536 589 l 781 856 l 293 856 l 536 589 m 198 217 l 453 497 l 198 777 l 198 217 m 876 216 l 876 776 l 620 497 l 876 216 m 293 137 l 780 137 l 536 405 l 293 137 z "},"™":{"ha":1220,"x_min":32,"x_max":1188,"o":"m 1188 993 l 1188 447 l 1036 447 l 1036 858 l 936 447 l 789 447 l 690 858 l 690 447 l 544 447 l 544 993 l 784 993 l 870 626 l 957 993 l 1188 993 m 481 865 l 333 865 l 333 447 l 181 447 l 181 865 l 32 865 l 32 993 l 481 993 l 481 865 z "},"®":{"ha":1307,"x_min":32,"x_max":1275,"o":"m 659 1117 q 826 1096 746 1117 q 974 1035 906 1075 q 1098 941 1042 996 q 1193 816 1154 885 q 1254 668 1232 748 q 1275 501 1275 589 q 1253 332 1275 413 q 1191 182 1232 252 q 1095 56 1151 112 q 970 -41 1039 -1 q 820 -103 900 -82 q 652 -125 740 -125 q 485 -104 565 -125 q 336 -42 405 -82 q 211 54 267 -2 q 115 178 155 110 q 54 327 76 247 q 32 494 32 407 q 54 663 32 582 q 116 812 76 743 q 213 938 156 881 q 339 1034 269 994 q 490 1096 409 1074 q 659 1117 570 1117 m 658 980 q 527 963 589 980 q 411 916 465 947 q 316 843 358 886 q 243 746 273 800 q 197 629 213 692 q 181 496 181 566 q 197 364 181 426 q 242 247 213 301 q 314 150 272 193 q 408 76 356 106 q 521 29 460 45 q 650 12 582 12 q 780 29 718 12 q 895 77 842 46 q 990 153 948 108 q 1064 251 1033 197 q 1110 370 1094 306 q 1127 504 1127 434 q 1111 635 1127 573 q 1066 750 1095 697 q 994 845 1036 803 q 900 918 952 888 q 787 964 848 948 q 658 980 726 980 m 412 203 l 412 785 l 714 785 q 806 773 765 785 q 874 738 846 761 q 917 681 902 715 q 932 606 932 648 q 920 541 932 570 q 886 490 908 511 q 834 455 865 468 q 766 441 803 443 q 881 351 843 436 l 948 203 l 760 203 l 693 345 q 677 374 684 363 q 663 391 670 385 q 647 399 656 397 q 626 401 638 401 l 583 401 l 583 203 l 412 203 m 682 530 q 741 544 720 530 q 761 588 761 559 q 741 630 761 615 q 682 644 720 644 l 583 644 l 583 530 l 682 530 z "},"©":{"ha":1307,"x_min":32,"x_max":1275,"o":"m 659 1117 q 826 1096 746 1117 q 974 1035 906 1075 q 1098 941 1042 996 q 1193 817 1154 885 q 1254 669 1233 748 q 1275 501 1275 589 q 1253 332 1275 413 q 1192 182 1232 251 q 1095 55 1152 112 q 969 -41 1039 -1 q 820 -103 900 -82 q 652 -125 740 -125 q 485 -104 565 -125 q 336 -42 405 -82 q 211 54 267 -2 q 115 178 155 110 q 54 327 76 247 q 32 494 32 407 q 54 663 32 582 q 116 812 76 743 q 213 938 156 881 q 339 1034 269 994 q 490 1096 409 1074 q 659 1117 570 1117 m 658 980 q 527 963 589 980 q 411 916 465 947 q 316 843 358 886 q 243 745 273 799 q 197 629 213 692 q 181 496 181 566 q 197 363 181 426 q 242 247 213 300 q 314 150 272 193 q 408 76 356 106 q 521 29 460 45 q 650 12 582 12 q 780 29 718 12 q 895 77 842 46 q 990 152 948 108 q 1064 251 1033 197 q 1110 370 1094 306 q 1127 504 1127 433 q 1111 635 1127 573 q 1066 750 1095 697 q 994 845 1036 803 q 900 918 952 888 q 787 964 848 948 q 658 980 726 980 m 539 496 q 571 371 539 413 q 663 329 603 329 q 742 358 714 329 q 779 440 770 388 l 948 440 q 919 335 942 383 q 858 254 895 288 q 771 202 820 220 q 661 183 721 183 q 580 193 618 183 q 509 222 541 203 q 450 268 476 241 q 405 331 424 296 q 377 407 387 365 q 367 496 367 448 q 389 625 367 567 q 450 723 411 683 q 543 786 489 764 q 661 808 597 808 q 771 790 721 808 q 858 738 820 771 q 919 656 895 704 q 948 551 942 609 l 779 551 q 742 634 770 604 q 663 663 714 663 q 571 621 603 663 q 539 496 539 578 z "},"¤":{"ha":1073,"x_min":42,"x_max":1031,"o":"m 42 993 l 1031 993 l 1031 0 l 42 0 l 42 993 m 536 589 l 781 856 l 293 856 l 536 589 m 198 217 l 453 497 l 198 777 l 198 217 m 876 216 l 876 776 l 620 497 l 876 216 m 293 137 l 780 137 l 536 405 l 293 137 z "},"¢":{"ha":817,"x_min":24,"x_max":793,"o":"m 267 383 q 277 299 267 335 q 307 237 288 262 q 354 200 326 213 q 419 187 383 187 q 471 196 449 187 q 510 220 494 205 q 537 259 526 236 q 552 309 547 282 l 793 309 q 762 193 785 247 q 701 98 738 140 q 616 29 665 57 q 508 -12 567 1 l 520 -174 l 317 -174 l 330 -12 q 205 34 261 1 q 108 119 149 68 q 46 236 68 169 q 24 383 24 303 q 46 530 24 463 q 108 647 68 596 q 205 731 149 698 q 330 778 261 765 l 317 939 l 520 939 l 507 777 q 615 737 566 765 q 701 668 665 709 q 762 573 738 626 q 793 456 785 519 l 552 456 q 537 507 547 484 q 510 545 526 529 q 471 570 494 561 q 419 578 449 578 q 354 566 383 578 q 307 528 326 553 q 277 467 288 504 q 267 383 267 431 z "},"£":{"ha":955,"x_min":42,"x_max":923,"o":"m 670 673 l 670 696 q 659 743 670 722 q 627 779 648 764 q 578 802 607 794 q 514 811 549 811 q 447 801 477 811 q 397 774 418 792 q 366 730 377 756 q 355 672 355 705 q 362 614 355 645 q 379 550 369 582 l 382 538 l 755 538 l 755 369 l 419 369 q 412 312 419 339 q 390 263 405 285 q 354 224 376 241 q 302 200 332 208 l 923 200 l 923 0 l 42 0 l 42 200 l 128 200 q 194 220 173 200 q 216 284 216 241 q 212 324 216 303 q 201 369 208 345 l 42 369 l 42 538 l 141 538 q 122 612 130 573 q 114 693 114 652 q 127 783 114 740 q 164 861 140 825 q 224 925 189 897 q 303 973 259 953 q 399 1003 347 993 q 509 1014 451 1014 q 621 1003 568 1014 q 718 973 673 993 q 799 925 763 953 q 860 861 835 897 q 899 785 885 826 q 912 697 912 743 l 912 673 l 670 673 z "},"¥":{"ha":952,"x_min":-8,"x_max":960,"o":"m 831 451 l 658 451 l 615 375 l 831 375 l 831 225 l 603 225 l 603 0 l 347 0 l 347 225 l 120 225 l 120 375 l 335 375 l 293 451 l 120 451 l 120 601 l 209 601 l -8 993 l 271 993 l 477 588 l 687 993 l 960 993 l 741 601 l 831 601 l 831 451 z "},"ƒ":{"ha":689,"x_min":15,"x_max":674,"o":"m 674 880 q 624 886 648 884 q 578 889 599 889 q 484 864 514 889 q 454 786 454 839 l 454 766 l 674 766 l 674 577 l 465 577 l 465 -7 q 445 -126 465 -74 q 386 -213 425 -178 q 290 -266 348 -248 q 158 -284 233 -284 q 88 -281 125 -284 q 15 -270 52 -277 l 15 -91 q 63 -97 40 -95 q 106 -100 86 -100 q 195 -75 167 -100 q 224 3 224 -50 l 224 577 l 127 577 l 127 766 l 224 766 l 224 789 q 244 911 224 858 q 303 1000 264 964 q 399 1055 342 1036 q 531 1073 456 1073 q 601 1069 564 1073 q 674 1059 637 1066 l 674 880 z "},"−":{"ha":736,"x_min":42,"x_max":694,"o":"m 42 412 l 42 592 l 694 592 l 694 412 l 42 412 z "},"±":{"ha":736,"x_min":42,"x_max":694,"o":"m 272 176 l 272 412 l 42 412 l 42 592 l 272 592 l 272 828 l 464 828 l 464 592 l 694 592 l 694 412 l 464 412 l 464 176 l 272 176 m 42 0 l 42 180 l 694 180 l 694 0 l 42 0 z "},"×":{"ha":723,"x_min":42,"x_max":681,"o":"m 551 185 l 361 374 l 170 183 l 42 311 l 234 502 l 44 692 l 172 819 l 361 630 l 553 821 l 681 694 l 489 502 l 679 313 l 551 185 z "},"÷":{"ha":867,"x_min":42,"x_max":824,"o":"m 43 412 l 43 592 l 824 592 l 824 412 l 43 412 m 538 679 l 328 679 l 328 896 l 538 896 l 538 679 m 538 108 l 328 108 l 328 325 l 538 325 l 538 108 z "},"¦":{"ha":306,"x_min":42,"x_max":263,"o":"m 42 580 l 42 1122 l 263 1122 l 263 580 l 42 580 m 42 -128 l 42 413 l 263 413 l 263 -128 l 42 -128 z "},"…":{"ha":955,"x_min":42,"x_max":912,"o":"m 276 0 l 42 0 l 42 242 l 276 242 l 276 0 m 594 0 l 361 0 l 361 242 l 594 242 l 594 0 m 912 0 l 679 0 l 679 242 l 912 242 l 912 0 z "},"·":{"ha":318,"x_min":42,"x_max":276,"o":"m 276 295 l 42 295 l 42 537 l 276 537 l 276 295 z "},"¡":{"ha":323,"x_min":45,"x_max":278,"o":"m 274 -227 l 274 -56 l 255 446 l 67 446 l 49 -56 l 49 -227 l 274 -227 m 278 766 l 45 766 l 45 524 l 278 524 l 278 766 z "},"¿":{"ha":873,"x_min":42,"x_max":852,"o":"m 365 460 l 577 460 l 577 402 q 570 340 577 367 q 551 290 563 312 q 522 252 538 269 q 488 223 506 235 q 451 200 469 210 q 416 181 433 190 l 387 167 q 349 147 367 157 q 319 125 332 137 q 298 97 306 113 q 290 59 290 82 q 301 16 290 35 q 332 -16 312 -3 q 380 -37 352 -30 q 443 -44 408 -44 q 565 -2 523 -44 q 608 129 608 40 l 608 146 l 852 146 l 852 125 q 748 -155 852 -62 q 441 -249 643 -249 q 272 -228 346 -249 q 147 -170 198 -208 q 69 -75 96 -131 q 42 54 42 -19 q 51 130 42 96 q 75 189 60 163 q 109 234 89 215 q 149 268 128 253 q 190 293 169 282 q 230 313 211 304 l 257 326 q 297 346 277 336 q 331 368 316 356 q 356 396 347 380 q 365 432 365 411 l 365 460 m 355 766 l 588 766 l 588 524 l 355 524 l 355 766 z "},"°":{"ha":486,"x_min":32,"x_max":454,"o":"m 32 806 q 48 890 32 851 q 92 955 64 928 q 159 999 120 983 q 243 1014 197 1014 q 328 999 289 1014 q 394 955 366 983 q 438 890 422 928 q 454 806 454 851 q 438 723 454 761 q 394 657 422 684 q 328 614 366 629 q 243 598 289 598 q 159 614 197 598 q 92 657 120 629 q 48 723 64 684 q 32 806 32 761 m 164 806 q 185 740 164 764 q 243 717 206 717 q 302 740 281 717 q 322 806 322 764 q 302 872 322 849 q 243 895 281 895 q 185 872 206 895 q 164 806 164 849 z "},"ª":{"ha":590,"x_min":42,"x_max":547,"o":"m 57 814 q 74 897 57 860 q 123 960 91 934 q 200 1000 155 986 q 302 1014 245 1014 q 406 999 360 1014 q 483 957 451 985 q 530 889 514 930 q 547 798 547 849 l 547 503 l 386 503 l 386 627 q 361 569 378 595 q 321 526 345 544 q 268 499 298 508 q 204 489 239 489 q 138 500 167 489 q 87 529 108 510 q 54 575 66 548 q 42 634 42 602 q 57 699 42 670 q 98 747 71 727 q 165 776 126 766 q 255 786 205 786 l 386 786 l 386 794 q 363 866 386 841 q 299 891 341 891 q 237 871 257 891 q 218 814 218 850 l 57 814 m 280 698 q 223 686 242 698 q 204 651 204 674 q 222 617 204 629 q 274 605 241 605 q 318 611 298 605 q 354 628 339 617 q 377 654 369 639 q 386 686 386 669 l 386 698 l 280 698 z "},"º":{"ha":599,"x_min":42,"x_max":556,"o":"m 42 752 q 61 860 42 812 q 114 943 80 909 q 196 996 149 977 q 299 1014 243 1014 q 403 996 356 1014 q 484 943 450 977 q 537 860 518 909 q 556 752 556 812 q 537 643 556 692 q 484 561 518 595 q 403 508 450 526 q 299 489 356 489 q 196 508 243 489 q 114 561 149 526 q 61 643 80 595 q 42 752 42 692 m 205 752 q 229 660 205 691 q 299 629 254 629 q 369 660 345 629 q 394 752 394 691 q 369 843 394 812 q 299 875 345 875 q 229 843 254 875 q 205 752 205 812 z "},"¹":{"ha":379,"x_min":42,"x_max":336,"o":"m 268 610 l 336 610 l 336 497 l 63 497 l 63 610 l 132 610 l 132 829 l 42 829 l 42 936 l 74 936 q 111 939 96 936 q 134 948 125 942 q 146 966 142 955 q 149 994 149 977 l 268 994 l 268 610 z "},"²":{"ha":504,"x_min":42,"x_max":462,"o":"m 42 497 l 42 576 q 50 630 42 607 q 70 672 57 654 q 98 702 82 689 q 131 723 114 715 q 165 738 148 732 q 197 749 183 744 l 240 763 q 270 773 255 768 q 299 788 286 779 q 320 809 311 797 q 328 839 328 821 q 309 881 328 866 q 254 896 289 896 q 197 877 215 896 q 178 816 178 857 l 178 806 l 45 806 l 45 818 q 60 899 45 863 q 102 961 75 935 q 170 1000 130 986 q 259 1014 209 1014 q 343 1001 306 1014 q 407 966 381 989 q 448 910 433 943 q 462 835 462 876 q 454 780 462 804 q 434 740 447 757 q 404 711 421 723 q 370 690 388 699 q 335 677 352 682 q 303 668 317 672 l 263 657 q 239 650 251 654 q 216 641 227 646 q 195 629 205 636 q 182 612 186 622 l 460 612 l 460 497 l 42 497 z "},"³":{"ha":531,"x_min":42,"x_max":488,"o":"m 42 837 q 56 912 42 879 q 98 968 70 945 q 164 1002 125 990 q 254 1014 203 1014 q 340 1003 302 1014 q 406 975 379 993 q 449 931 434 957 q 464 874 464 905 q 456 830 464 850 q 433 795 448 810 q 399 771 419 781 q 354 760 378 762 q 410 749 385 758 q 452 725 435 740 q 479 689 469 710 q 488 641 488 668 q 472 579 488 607 q 427 531 456 551 q 357 500 398 511 q 266 489 316 489 q 171 501 213 489 q 101 537 129 514 q 57 596 72 561 q 42 675 42 630 l 42 676 l 174 676 l 174 672 q 197 623 174 640 q 264 606 220 606 q 301 610 284 606 q 330 622 318 614 q 348 640 342 630 q 355 665 355 651 q 351 682 355 675 q 338 693 347 689 q 316 700 330 698 q 282 702 302 702 l 200 702 l 200 809 l 276 809 q 319 818 305 809 q 333 846 333 827 q 312 883 333 870 q 252 897 291 897 q 175 840 175 897 l 175 836 l 42 836 l 42 837 z "},"⁴":{"ha":550,"x_min":42,"x_max":508,"o":"m 309 497 l 309 597 l 42 597 l 42 716 l 281 993 l 445 993 l 445 708 l 508 708 l 508 597 l 445 597 l 445 497 l 309 497 m 309 708 l 309 860 l 179 708 l 309 708 z "},"⁄":{"ha":961,"x_min":42,"x_max":919,"o":"m 42 0 l 766 1028 l 919 1028 l 195 0 l 42 0 z "},"¼":{"ha":1012,"x_min":42,"x_max":969,"o":"m 268 610 l 336 610 l 336 497 l 63 497 l 63 610 l 132 610 l 132 828 l 42 828 l 42 936 l 74 936 q 111 939 96 936 q 134 948 125 941 q 146 966 142 955 q 149 993 149 977 l 268 993 l 268 610 m 771 0 l 771 100 l 504 100 l 504 219 l 743 497 l 907 497 l 907 211 l 969 211 l 969 100 l 907 100 l 907 0 l 771 0 m 771 211 l 771 364 l 641 211 l 771 211 m 77 0 l 800 1028 l 953 1028 l 230 0 l 77 0 z "},"½":{"ha":1055,"x_min":42,"x_max":1013,"o":"m 75 0 l 799 1028 l 952 1028 l 228 0 l 75 0 m 593 0 l 593 79 q 601 133 593 110 q 620 175 608 157 q 649 205 633 192 q 682 227 665 218 q 716 241 699 235 q 748 252 733 248 l 790 266 q 821 277 805 271 q 849 291 836 282 q 870 312 862 300 q 879 342 879 324 q 859 384 879 369 q 805 399 840 399 q 748 380 766 399 q 729 319 729 360 l 729 309 l 595 309 l 595 321 q 610 402 595 366 q 653 464 625 439 q 720 503 681 490 q 809 517 760 517 q 894 505 856 517 q 958 469 932 492 q 998 413 984 446 q 1013 338 1013 380 q 1005 284 1013 307 q 984 243 997 260 q 955 214 972 226 q 921 194 939 202 q 886 180 903 185 q 853 171 868 175 l 814 160 q 790 153 802 157 q 766 144 777 149 q 746 132 755 139 q 732 115 737 125 l 1011 115 l 1011 0 l 593 0 m 268 610 l 336 610 l 336 497 l 63 497 l 63 610 l 132 610 l 132 829 l 42 829 l 42 936 l 74 936 q 111 939 96 936 q 134 948 125 942 q 146 966 142 955 q 149 994 149 977 l 268 994 l 268 610 z "},"¾":{"ha":1095,"x_min":42,"x_max":1052,"o":"m 853 0 l 853 100 l 587 100 l 587 219 l 825 497 l 990 497 l 990 211 l 1052 211 l 1052 100 l 990 100 l 990 0 l 853 0 m 853 211 l 853 364 l 723 211 l 853 211 m 42 837 q 56 912 42 879 q 98 968 70 945 q 164 1002 125 990 q 254 1014 203 1014 q 340 1003 302 1014 q 406 975 379 993 q 449 931 434 957 q 464 874 464 905 q 456 830 464 850 q 433 795 448 810 q 399 771 419 781 q 354 760 378 762 q 410 749 385 758 q 452 725 435 740 q 479 689 469 710 q 488 641 488 668 q 472 579 488 607 q 427 531 456 551 q 357 500 398 511 q 266 489 316 489 q 171 501 213 489 q 101 537 129 514 q 57 596 72 561 q 42 675 42 630 l 42 676 l 174 676 l 174 672 q 197 623 174 640 q 264 606 220 606 q 301 610 284 606 q 330 622 318 614 q 348 640 342 630 q 355 665 355 651 q 351 682 355 675 q 338 693 347 689 q 316 700 330 698 q 282 702 302 702 l 200 702 l 200 809 l 276 809 q 319 818 305 809 q 333 846 333 827 q 312 883 333 870 q 252 897 291 897 q 175 840 175 897 l 175 836 l 42 836 l 42 837 m 158 0 l 882 1028 l 1035 1028 l 311 0 l 158 0 z "},"‰":{"ha":1781,"x_min":43,"x_max":1738,"o":"m 43 748 q 60 857 43 808 q 111 941 78 906 q 189 995 143 976 q 290 1014 234 1014 q 391 995 345 1014 q 468 941 436 976 q 518 857 501 906 q 536 748 536 808 q 518 640 536 688 q 469 557 501 591 q 391 505 437 523 q 290 486 346 486 q 188 505 233 486 q 110 557 142 523 q 60 640 78 592 q 43 748 43 688 m 1011 994 l 396 1 l 213 1 l 826 994 l 1011 994 m 206 747 q 227 664 206 693 q 289 635 249 635 q 351 664 329 635 q 372 746 372 692 q 366 796 372 774 q 350 833 360 818 q 324 856 339 848 q 289 865 308 865 q 254 856 269 865 q 228 833 239 848 q 212 796 217 818 q 206 747 206 774 m 683 240 q 701 349 683 300 q 751 434 718 399 q 829 488 783 468 q 930 507 875 507 q 1031 488 986 507 q 1109 434 1077 468 q 1159 349 1141 399 q 1176 240 1176 300 q 1159 132 1176 181 q 1109 50 1141 84 q 1032 -2 1077 16 q 930 -21 986 -21 q 828 -2 874 -21 q 750 50 782 16 q 701 133 718 84 q 683 240 683 181 m 1245 240 q 1263 349 1245 300 q 1313 434 1281 399 q 1391 488 1345 468 q 1492 507 1437 507 q 1593 488 1548 507 q 1671 434 1639 468 q 1720 349 1703 399 q 1738 240 1738 300 q 1720 132 1738 181 q 1671 50 1703 84 q 1594 -2 1639 16 q 1492 -21 1548 -21 q 1390 -2 1436 -21 q 1312 50 1344 16 q 1263 133 1280 84 q 1245 240 1245 181 m 846 239 q 868 157 846 185 q 929 128 889 128 q 991 157 969 128 q 1012 239 1012 185 q 1006 289 1012 267 q 990 326 1001 310 q 964 349 980 341 q 929 357 949 357 q 894 349 910 357 q 868 326 879 341 q 852 289 858 311 q 846 239 846 267 m 1408 239 q 1430 157 1408 185 q 1491 128 1451 128 q 1553 157 1532 128 q 1574 239 1574 185 q 1568 289 1574 267 q 1552 326 1563 310 q 1526 349 1541 341 q 1491 357 1511 357 q 1456 349 1472 357 q 1430 326 1441 341 q 1414 289 1420 311 q 1408 239 1408 267 z "},"μ":{"ha":1073,"x_min":42,"x_max":1031,"o":"m 42 993 l 1031 993 l 1031 0 l 42 0 l 42 993 m 536 589 l 781 856 l 293 856 l 536 589 m 198 217 l 453 497 l 198 777 l 198 217 m 876 216 l 876 776 l 620 497 l 876 216 m 293 137 l 780 137 l 536 405 l 293 137 z "},"¶":{"ha":1082,"x_min":42,"x_max":1040,"o":"m 1040 -263 l 798 -263 l 798 993 l 1040 993 l 1040 -263 m 697 -263 l 455 -263 l 455 284 l 426 284 q 318 295 369 284 q 224 329 267 307 q 148 381 182 350 q 91 452 114 413 q 55 538 67 491 q 42 639 42 585 q 55 739 42 692 q 91 825 67 786 q 148 896 114 865 q 224 948 182 927 q 318 982 267 970 q 426 993 369 993 l 697 993 l 697 -263 z "},"§":{"ha":791,"x_min":17,"x_max":772,"o":"m 382 1014 q 538 995 469 1014 q 654 941 607 976 q 726 855 701 906 q 751 740 751 804 l 512 740 q 481 819 512 791 q 388 847 449 847 q 340 841 362 847 q 303 827 318 836 q 279 805 288 818 q 270 776 270 792 q 282 743 270 756 q 313 722 293 730 q 360 708 333 713 q 419 697 388 702 l 470 688 q 534 675 500 682 q 602 657 568 668 q 666 630 636 647 q 721 589 697 614 q 758 531 744 565 q 772 452 772 498 q 756 367 772 405 q 707 299 739 328 q 734 271 722 286 q 754 237 746 256 q 768 197 763 219 q 772 149 772 175 q 748 45 772 91 q 676 -32 723 -1 q 559 -80 628 -64 q 401 -97 490 -97 q 236 -78 308 -97 q 115 -24 164 -60 q 42 64 67 11 q 17 183 17 116 l 256 183 q 291 101 256 129 q 399 73 327 73 q 455 78 430 73 q 497 92 480 83 q 524 115 514 102 q 533 146 533 129 q 522 180 533 167 q 491 203 511 194 q 441 218 470 211 q 375 230 412 224 l 324 239 q 280 248 303 243 q 231 259 256 252 q 183 274 207 265 q 136 295 158 283 q 95 323 114 307 q 62 361 76 340 q 40 409 48 382 q 32 469 32 435 q 49 555 32 516 q 99 624 66 594 q 71 651 84 636 q 50 684 59 666 q 36 724 41 702 q 32 772 32 746 q 55 873 32 828 q 124 949 79 918 q 234 997 169 981 q 382 1014 299 1014 m 346 539 q 291 515 311 533 q 270 473 270 498 q 282 440 270 453 q 313 419 293 427 q 360 405 333 410 q 419 393 388 399 l 465 385 q 515 410 497 393 q 533 449 533 426 q 522 484 533 470 q 491 506 511 497 q 441 521 470 515 q 375 534 412 527 l 346 539 z "},"†":{"ha":674,"x_min":42,"x_max":632,"o":"m 465 993 l 465 766 l 632 766 l 632 584 l 465 584 l 465 0 l 209 0 l 209 584 l 42 584 l 42 766 l 209 766 l 209 993 l 465 993 z "},"‡":{"ha":675,"x_min":42,"x_max":632,"o":"m 466 993 l 466 766 l 632 766 l 632 584 l 466 584 l 466 409 l 632 409 l 632 227 l 466 227 l 466 0 l 209 0 l 209 227 l 42 227 l 42 409 l 209 409 l 209 584 l 42 584 l 42 766 l 209 766 l 209 993 l 466 993 z "},"~":{"ha":827,"x_min":42,"x_max":784,"o":"m 784 800 q 774 641 784 706 q 744 535 765 576 q 688 477 722 495 q 603 459 653 459 q 540 466 570 459 q 482 482 509 473 q 432 504 455 492 q 390 525 408 516 l 359 542 q 330 557 345 549 q 300 570 315 564 q 269 581 284 577 q 239 585 253 585 q 210 579 222 585 q 191 559 199 573 q 181 523 184 545 q 178 470 178 502 l 178 466 l 42 466 l 42 472 q 53 626 42 562 q 86 732 64 691 q 144 794 109 774 q 227 813 179 813 q 282 807 256 813 q 332 792 309 801 q 377 772 356 783 q 415 751 398 761 l 446 735 q 477 719 461 727 q 511 703 494 710 q 547 692 528 697 q 583 688 565 688 q 614 693 601 688 q 634 711 626 699 q 645 745 642 724 q 649 795 649 765 l 649 806 l 784 806 l 784 800 z "},"‹":{"ha":660,"x_min":43,"x_max":639,"o":"m 372 728 l 639 728 l 299 383 l 639 38 l 372 38 l 43 382 l 372 728 z "},"›":{"ha":660,"x_min":21,"x_max":618,"o":"m 289 38 l 22 38 l 361 383 l 22 728 l 289 728 l 618 384 l 289 38 z "},"«":{"ha":1078,"x_min":43,"x_max":1056,"o":"m 372 728 l 639 728 l 299 383 l 639 38 l 372 38 l 43 382 l 372 728 m 789 728 l 1056 728 l 716 383 l 1056 38 l 789 38 l 460 382 l 789 728 z "},"»":{"ha":1078,"x_min":22,"x_max":1035,"o":"m 706 38 l 439 38 l 779 383 l 439 728 l 706 728 l 1035 384 l 706 38 m 289 38 l 22 38 l 362 383 l 22 728 l 289 728 l 618 384 l 289 38 z "},"˘":{"ha":467,"x_min":42,"x_max":425,"o":"m 152 1028 q 173 949 152 977 q 234 921 195 921 q 294 949 273 921 q 316 1028 316 977 l 425 1028 q 413 930 425 973 q 378 857 402 886 q 318 812 354 827 q 234 797 282 797 q 149 812 185 797 q 89 857 113 827 q 54 930 66 886 q 42 1028 42 973 l 152 1028 z "},"˙":{"ha":272,"x_min":42,"x_max":229,"o":"m 229 807 l 42 807 l 42 1000 l 229 1000 l 229 807 z "},"˚":{"ha":390,"x_min":40,"x_max":347,"o":"m 40 948 q 51 1011 40 983 q 83 1058 63 1039 q 132 1089 103 1078 q 193 1100 160 1100 q 255 1089 227 1100 q 304 1058 283 1078 q 335 1011 324 1039 q 347 948 347 983 q 335 886 347 914 q 304 839 324 858 q 255 808 283 819 q 193 797 227 797 q 132 808 160 797 q 83 838 103 819 q 51 886 63 858 q 40 948 40 914 m 138 949 q 153 901 138 918 q 193 885 168 885 q 234 901 218 885 q 249 949 249 918 q 234 995 249 979 q 193 1012 218 1012 q 153 995 168 1012 q 138 949 138 979 z "},"˛":{"ha":347,"x_min":43,"x_max":305,"o":"m 302 -20 q 247 -27 274 -20 q 199 -45 220 -34 q 165 -69 178 -56 q 152 -95 152 -82 q 159 -111 152 -104 q 177 -122 165 -118 q 206 -130 189 -127 q 245 -132 224 -132 q 276 -131 261 -132 q 305 -127 290 -130 l 305 -260 q 263 -264 284 -263 q 225 -266 243 -266 q 151 -257 184 -266 q 93 -234 117 -249 q 56 -198 69 -219 q 43 -152 43 -177 q 62 -95 43 -121 q 115 -49 81 -69 q 195 -19 149 -30 q 295 -7 241 -7 l 302 -20 z "},"ˆ":{"ha":494,"x_min":42,"x_max":452,"o":"m 310 797 l 248 904 l 185 797 l 42 797 l 149 1019 l 345 1019 l 452 797 l 310 797 z "},"ˇ":{"ha":494,"x_min":42,"x_max":452,"o":"m 345 797 l 149 797 l 42 1019 l 185 1019 l 248 912 l 310 1019 l 452 1019 l 345 797 z "},"ı":{"ha":338,"x_min":48,"x_max":290,"o":"m 290 0 l 48 0 l 48 766 l 290 766 l 290 0 z "},"´":{"ha":393,"x_min":42,"x_max":351,"o":"m 351 1019 l 145 1019 l 42 797 l 194 797 l 351 1019 z "},"`":{"ha":393,"x_min":42,"x_max":351,"o":"m 42 1019 l 248 1019 l 351 797 l 199 797 l 42 1019 z "},"¨":{"ha":516,"x_min":42,"x_max":474,"o":"m 229 807 l 42 807 l 42 1000 l 229 1000 l 229 807 m 474 807 l 287 807 l 287 1000 l 474 1000 l 474 807 z "},"¸":{"ha":360,"x_min":42,"x_max":318,"o":"m 161 3 l 151 -53 q 220 -61 189 -53 q 273 -82 251 -69 q 306 -115 294 -96 q 318 -158 318 -134 q 304 -204 318 -183 q 266 -240 291 -225 q 206 -263 241 -255 q 128 -272 171 -272 q 42 -264 88 -272 l 42 -173 q 110 -181 80 -181 q 168 -171 148 -181 q 189 -145 189 -161 q 181 -128 189 -136 q 158 -115 174 -120 q 120 -105 143 -109 q 66 -102 97 -102 l 85 3 l 161 3 z "},"ﬁ":{"ha":905,"x_min":11,"x_max":867,"o":"m 108 577 l 11 577 l 11 766 l 108 766 l 108 789 q 128 911 108 858 q 187 1000 148 964 q 283 1055 226 1036 q 415 1073 341 1073 q 485 1069 448 1073 q 558 1059 521 1066 l 558 880 q 508 886 532 884 q 462 889 483 889 q 368 864 398 889 q 338 786 338 839 l 338 766 l 559 766 l 559 577 l 349 577 l 349 0 l 108 0 l 108 577 m 867 842 l 623 842 l 623 1028 l 867 1028 l 867 842 m 866 0 l 624 0 l 624 766 l 866 766 l 866 0 z "},"ﬂ":{"ha":905,"x_min":11,"x_max":866,"o":"m 108 577 l 11 577 l 11 766 l 108 766 l 108 789 q 128 911 108 858 q 187 1000 148 964 q 283 1055 226 1036 q 415 1073 341 1073 q 485 1069 448 1073 q 558 1059 521 1066 l 558 880 q 508 886 532 884 q 462 889 483 889 q 368 864 398 889 q 338 786 338 839 l 338 766 l 559 766 l 559 577 l 349 577 l 349 0 l 108 0 l 108 577 m 866 0 l 624 0 l 624 1028 l 866 1028 l 866 0 z "},"Þ":{"ha":940,"x_min":42,"x_max":908,"o":"m 42 993 l 299 993 l 299 825 l 500 825 q 613 814 560 825 q 712 783 667 803 q 794 733 758 762 q 856 666 830 703 q 895 584 881 628 q 908 488 908 539 q 895 393 908 438 q 858 310 882 348 q 800 243 834 273 q 723 193 766 213 q 630 161 680 172 q 524 150 580 150 l 299 150 l 299 0 l 42 0 l 42 993 m 500 354 q 564 363 536 354 q 612 389 593 372 q 642 431 632 406 q 652 488 652 456 q 642 545 652 520 q 613 586 632 569 q 565 612 593 603 q 501 621 537 621 l 299 621 l 299 354 l 500 354 z "},"þ":{"ha":851,"x_min":39,"x_max":827,"o":"m 281 536 q 314 644 292 597 q 366 722 335 690 q 437 770 397 754 q 525 786 477 786 q 610 773 570 786 q 683 735 649 760 q 743 674 716 710 q 789 594 770 639 q 817 496 807 549 q 827 383 827 443 q 817 270 827 324 q 789 172 807 217 q 743 92 770 127 q 683 31 716 56 q 610 -7 649 6 q 525 -21 570 -21 q 437 -5 477 -21 q 366 44 398 12 q 314 122 335 75 q 281 230 292 169 l 281 -263 l 39 -263 l 39 1028 l 281 1028 l 281 536 m 281 383 q 291 299 281 335 q 320 237 301 262 q 368 199 339 211 q 433 186 396 186 q 546 235 508 186 q 583 383 583 285 q 546 531 583 481 q 433 580 508 580 q 368 567 396 580 q 320 529 339 554 q 291 468 301 504 q 281 383 281 431 z "},"ß":{"ha":880,"x_min":42,"x_max":859,"o":"m 42 651 q 68 807 42 739 q 142 920 93 874 q 263 990 191 966 q 428 1014 335 1014 q 585 994 515 1014 q 706 939 656 975 q 784 853 756 903 q 811 741 811 802 q 795 653 811 693 q 750 583 779 613 q 680 534 720 553 q 590 510 639 515 q 703 489 653 507 q 788 440 753 471 q 841 367 823 410 q 859 271 859 324 q 847 190 859 228 q 813 119 835 151 q 759 61 791 87 q 687 17 727 35 q 600 -11 647 -1 q 500 -21 552 -21 q 435 -16 464 -21 q 381 -1 407 -11 l 381 205 q 415 197 398 200 q 452 194 432 194 q 516 203 487 194 q 568 228 546 212 q 601 265 589 243 q 613 312 613 287 q 572 382 613 358 q 447 407 531 407 l 381 407 l 381 602 l 437 602 q 535 625 501 602 q 569 692 569 648 q 559 736 569 716 q 530 770 549 756 q 486 792 512 784 q 429 799 461 799 q 324 763 360 799 q 288 656 288 726 l 288 0 l 42 0 l 42 651 z "},"ð":{"ha":838,"x_min":24,"x_max":814,"o":"m 24 388 q 33 490 24 442 q 60 579 42 538 q 102 652 77 619 q 159 708 127 685 q 227 743 190 731 q 306 755 264 755 q 399 737 356 755 q 476 686 442 719 q 534 605 510 653 q 570 499 558 558 q 552 603 564 555 q 518 695 539 652 q 468 777 498 738 q 400 852 439 816 l 252 782 l 205 877 l 309 927 q 263 959 288 943 q 213 991 239 974 l 291 1113 q 393 1064 345 1089 q 484 1010 441 1038 l 625 1077 l 672 982 l 578 938 q 683 823 638 884 q 756 693 727 763 q 800 544 785 623 q 814 377 814 466 q 801 265 814 318 q 764 168 788 213 q 705 89 740 124 q 625 30 669 54 q 529 -8 581 5 q 417 -21 476 -21 q 255 8 328 -21 q 131 90 183 37 q 52 219 80 143 q 24 388 24 295 m 267 377 q 306 236 267 284 q 419 187 345 187 q 531 236 492 187 q 570 377 570 284 q 531 518 570 469 q 419 566 492 566 q 306 518 345 566 q 267 377 267 469 z "},"Æ":{"ha":1289,"x_min":-5,"x_max":1267,"o":"m -5 0 l 393 993 l 1256 993 l 1256 781 l 818 781 l 818 595 l 1216 595 l 1216 397 l 818 397 l 818 213 l 1267 213 l 1267 0 l 562 0 l 562 196 l 334 196 l 265 0 l -5 0 m 562 399 l 562 842 l 406 399 l 562 399 z "},"Œ":{"ha":1328,"x_min":32,"x_max":1307,"o":"m 1295 781 l 858 781 l 858 595 l 1256 595 l 1256 397 l 858 397 l 858 213 l 1307 213 l 1307 0 l 522 0 q 386 16 450 0 q 268 62 322 32 q 170 135 213 92 q 95 234 126 179 q 48 355 65 289 q 32 497 32 421 q 48 638 32 572 q 95 759 65 704 q 170 858 126 814 q 268 931 213 901 q 386 977 322 961 q 522 993 450 993 l 1295 993 l 1295 781 m 290 497 q 305 374 290 427 q 350 286 320 322 q 423 233 380 251 q 522 215 466 215 l 601 215 l 601 778 l 522 778 q 423 760 466 778 q 350 707 380 742 q 305 619 320 672 q 290 497 290 566 z "},"æ":{"ha":1348,"x_min":18,"x_max":1324,"o":"m 41 478 q 67 607 41 550 q 142 704 93 664 q 261 765 191 744 q 418 786 331 786 q 575 764 507 786 q 690 697 643 741 q 801 763 738 740 q 941 786 864 786 q 1049 773 998 786 q 1142 736 1100 760 q 1219 676 1185 711 q 1276 596 1252 641 q 1312 498 1299 551 q 1324 384 1324 444 q 1321 326 1324 355 l 782 326 q 800 258 786 288 q 834 208 813 228 q 884 176 855 187 q 948 165 913 165 q 1089 254 1047 165 l 1312 254 q 1261 139 1295 190 q 1179 52 1227 88 q 1071 -2 1131 17 q 941 -21 1011 -21 q 818 -4 875 -21 q 714 45 761 13 q 634 122 668 77 q 579 224 599 167 q 546 122 571 168 q 481 45 520 77 q 391 -4 442 14 q 279 -21 340 -21 q 172 -5 220 -21 q 90 41 124 11 q 37 112 56 70 q 18 204 18 153 q 40 302 18 259 q 104 375 62 345 q 207 421 147 405 q 346 436 268 436 l 553 436 l 553 454 q 544 518 553 490 q 516 565 534 546 q 473 594 499 584 q 413 605 447 605 q 354 596 379 605 q 313 571 329 587 q 289 531 297 555 q 281 478 281 508 l 41 478 m 1097 458 q 942 605 1072 605 q 835 567 875 605 q 784 458 795 530 l 1097 458 m 379 306 q 291 287 320 306 q 261 230 261 267 q 290 171 261 192 q 374 150 320 150 q 445 160 412 150 q 501 188 477 170 q 539 230 525 206 q 553 283 553 255 l 553 306 l 379 306 z "},"œ":{"ha":1381,"x_min":24,"x_max":1357,"o":"m 24 383 q 37 498 24 444 q 75 597 50 552 q 135 677 99 642 q 214 736 170 712 q 309 774 258 761 q 419 786 361 786 q 577 758 506 786 q 699 675 648 729 q 819 757 749 728 q 975 786 889 786 q 1131 758 1061 786 q 1252 676 1202 729 q 1330 549 1302 623 q 1357 384 1357 475 q 1357 355 1357 370 q 1355 326 1356 341 l 816 326 q 834 258 820 288 q 869 207 848 228 q 920 176 891 187 q 986 165 950 165 q 1131 262 1091 165 l 1354 262 q 1304 144 1338 196 q 1221 55 1270 91 q 1111 -1 1173 18 q 979 -21 1050 -21 q 821 8 892 -21 q 700 91 750 38 q 577 8 648 38 q 419 -21 506 -21 q 309 -8 361 -21 q 214 29 258 5 q 135 89 170 53 q 75 169 99 124 q 37 268 50 214 q 24 383 24 322 m 1131 458 q 976 605 1106 605 q 869 567 909 605 q 818 458 829 530 l 1131 458 m 267 383 q 277 299 267 335 q 307 237 288 262 q 355 200 326 213 q 419 187 383 187 q 484 200 456 187 q 531 237 512 213 q 560 299 550 262 q 570 383 570 335 q 560 467 570 431 q 531 528 550 504 q 484 566 512 553 q 419 578 456 578 q 355 566 383 578 q 307 528 326 553 q 277 467 288 504 q 267 383 267 431 z "},"Ø":{"ha":1043,"x_min":32,"x_max":1011,"o":"m 159 131 q 106 205 129 165 q 65 291 82 245 q 40 389 49 337 q 32 497 32 440 q 48 644 32 575 q 95 770 65 713 q 170 873 126 828 q 268 949 213 918 q 386 997 322 981 q 522 1014 450 1014 q 655 998 592 1014 q 772 951 718 982 l 822 1014 l 1006 1014 l 884 861 q 938 788 914 828 q 978 702 961 748 q 1003 604 994 656 q 1011 497 1011 553 q 995 349 1011 418 q 948 223 978 281 q 873 120 917 166 q 775 44 830 75 q 657 -4 721 12 q 522 -21 593 -21 q 388 -5 451 -21 q 270 42 324 11 l 219 -21 l 39 -21 l 159 131 m 291 497 q 312 344 291 408 l 643 768 q 522 799 593 799 q 423 780 466 799 q 350 722 380 760 q 306 628 321 684 q 291 497 291 571 m 400 225 q 522 194 451 194 q 621 213 577 194 q 693 270 664 232 q 738 365 723 309 q 753 497 753 422 q 732 648 753 585 l 400 225 z "},"ø":{"ha":838,"x_min":24,"x_max":814,"o":"m 710 669 q 787 544 760 616 q 814 383 814 472 q 801 268 814 322 q 763 169 788 214 q 703 89 738 124 q 624 29 668 54 q 528 -8 580 5 q 419 -21 477 -21 q 311 -9 362 -21 q 217 28 260 4 l 178 -21 l 33 -21 l 127 97 q 51 222 78 150 q 24 383 24 294 q 37 498 24 444 q 75 597 50 552 q 135 677 100 642 q 214 736 170 712 q 310 774 258 761 q 419 786 361 786 q 527 774 476 786 q 621 738 577 762 l 660 786 l 805 786 l 710 669 m 268 383 q 278 297 268 334 l 490 563 q 419 578 460 578 q 355 566 383 578 q 307 528 326 553 q 278 467 288 504 q 268 383 268 431 m 348 203 q 419 187 378 187 q 484 200 456 187 q 531 237 512 213 q 560 299 550 262 q 570 383 570 335 q 560 469 570 432 l 348 203 z "},"À":{"ha":995,"x_min":-5,"x_max":1000,"o":"m -5 0 l 324 993 l 676 993 l 1000 0 l 726 0 l 671 203 l 320 203 l 263 0 l -5 0 m 616 406 l 497 840 l 376 406 l 616 406 m 266 1267 l 471 1267 l 574 1045 l 423 1045 l 266 1267 z "},"Á":{"ha":995,"x_min":-5,"x_max":1000,"o":"m -5 0 l 324 993 l 676 993 l 1000 0 l 726 0 l 671 203 l 320 203 l 263 0 l -5 0 m 616 406 l 497 840 l 376 406 l 616 406 m 730 1267 l 524 1267 l 422 1045 l 573 1045 l 730 1267 z "},"Â":{"ha":995,"x_min":-5,"x_max":1000,"o":"m -5 0 l 324 993 l 676 993 l 1000 0 l 726 0 l 671 203 l 320 203 l 263 0 l -5 0 m 616 406 l 497 840 l 376 406 l 616 406 m 560 1045 l 498 1152 l 435 1045 l 293 1045 l 400 1267 l 595 1267 l 702 1045 l 560 1045 z "},"Ã":{"ha":995,"x_min":-5,"x_max":1000,"o":"m -5 0 l 324 993 l 676 993 l 1000 0 l 726 0 l 671 203 l 320 203 l 263 0 l -5 0 m 616 406 l 497 840 l 376 406 l 616 406 m 713 1256 q 707 1163 713 1201 q 686 1099 700 1124 q 651 1063 673 1074 q 599 1051 629 1051 q 567 1054 582 1051 q 539 1062 552 1057 q 517 1073 527 1067 q 500 1083 507 1078 l 478 1095 q 466 1102 473 1098 q 452 1109 460 1106 q 436 1114 444 1112 q 418 1116 427 1116 q 390 1104 400 1116 q 381 1060 381 1091 l 381 1058 l 298 1058 l 298 1061 q 327 1217 298 1166 q 416 1267 356 1267 q 445 1264 432 1267 q 470 1257 459 1261 q 490 1248 481 1252 q 505 1239 499 1243 l 525 1226 q 539 1219 531 1223 q 556 1211 547 1214 q 575 1204 565 1207 q 596 1202 585 1202 q 623 1214 613 1202 q 632 1256 632 1226 l 632 1261 l 713 1261 l 713 1256 z "},"Ä":{"ha":995,"x_min":-5,"x_max":1000,"o":"m -5 0 l 324 993 l 676 993 l 1000 0 l 726 0 l 671 203 l 320 203 l 263 0 l -5 0 m 616 406 l 497 840 l 376 406 l 616 406 m 469 1055 l 282 1055 l 282 1248 l 469 1248 l 469 1055 m 714 1055 l 527 1055 l 527 1248 l 714 1248 l 714 1055 z "},"Å":{"ha":995,"x_min":-5,"x_max":1000,"o":"m -5 0 l 324 993 l 676 993 l 1000 0 l 726 0 l 671 203 l 320 203 l 263 0 l -5 0 m 616 406 l 497 840 l 376 406 l 616 406 m 342 1197 q 354 1259 342 1231 q 386 1307 365 1287 q 434 1337 406 1326 q 496 1348 462 1348 q 558 1337 530 1348 q 606 1307 586 1326 q 638 1259 626 1287 q 649 1197 649 1231 q 638 1134 649 1162 q 606 1087 626 1107 q 558 1056 586 1067 q 496 1045 530 1045 q 434 1056 462 1045 q 386 1087 406 1067 q 354 1134 365 1106 q 342 1197 342 1162 m 440 1197 q 456 1150 440 1166 q 496 1133 471 1133 q 536 1150 521 1133 q 551 1197 551 1166 q 536 1244 551 1227 q 496 1260 521 1260 q 456 1244 471 1260 q 440 1197 440 1227 z "},"Ç":{"ha":1022,"x_min":32,"x_max":987,"o":"m 290 497 q 305 365 290 422 q 350 271 320 309 q 422 213 379 233 q 522 194 466 194 q 663 247 610 194 q 733 406 716 300 l 987 406 q 935 228 974 307 q 836 93 896 149 q 696 9 776 38 q 521 -21 617 -21 q 386 -4 450 -21 q 268 44 322 12 q 170 120 213 75 q 95 223 126 165 q 48 349 65 280 q 32 497 32 418 q 48 644 32 575 q 95 770 65 713 q 170 873 126 828 q 268 949 213 918 q 386 997 322 981 q 521 1014 450 1014 q 641 1001 585 1014 q 747 962 698 988 q 836 900 796 937 q 907 815 876 863 q 958 711 938 768 q 987 587 978 653 l 733 587 q 663 747 716 694 q 522 799 610 799 q 422 780 466 799 q 350 723 379 761 q 305 628 320 684 q 290 497 290 571 m 562 3 l 552 -53 q 621 -61 590 -53 q 673 -82 652 -69 q 707 -115 695 -96 q 719 -158 719 -134 q 705 -204 719 -183 q 666 -240 691 -225 q 606 -263 641 -255 q 529 -272 572 -272 q 443 -264 489 -272 l 443 -173 q 511 -181 480 -181 q 569 -171 549 -181 q 590 -145 590 -161 q 582 -128 590 -136 q 559 -115 574 -120 q 520 -105 543 -109 q 467 -102 498 -102 l 486 3 l 562 3 z "},"Ð":{"ha":953,"x_min":-40,"x_max":921,"o":"m 42 993 l 422 993 q 562 977 496 993 q 683 932 627 961 q 782 858 739 902 q 857 760 826 815 q 905 638 888 705 q 921 497 921 572 q 905 355 921 421 q 857 233 888 289 q 782 135 826 178 q 683 61 739 91 q 562 16 627 32 q 422 0 496 0 l 42 0 l 42 993 m 415 215 q 521 233 475 215 q 598 286 567 251 q 646 374 630 322 q 663 497 663 427 q 646 619 663 566 q 598 707 630 672 q 521 760 567 742 q 415 778 475 778 l 297 778 l 297 215 l 415 215 m 488 420 l -40 420 l -40 580 l 488 580 l 488 420 z "},"Đ":{"ha":953,"x_min":-40,"x_max":921,"o":"m 42 993 l 422 993 q 562 977 496 993 q 683 932 627 961 q 782 858 739 902 q 857 760 826 815 q 905 638 888 705 q 921 497 921 572 q 905 355 921 421 q 857 233 888 289 q 782 135 826 178 q 683 61 739 91 q 562 16 627 32 q 422 0 496 0 l 42 0 l 42 993 m 415 215 q 521 233 475 215 q 598 286 567 251 q 646 374 630 322 q 663 497 663 427 q 646 619 663 566 q 598 707 630 672 q 521 760 567 742 q 415 778 475 778 l 297 778 l 297 215 l 415 215 m 488 420 l -40 420 l -40 580 l 488 580 l 488 420 z "},"È":{"ha":769,"x_min":42,"x_max":748,"o":"m 736 993 l 736 781 l 299 781 l 299 595 l 697 595 l 697 397 l 299 397 l 299 213 l 748 213 l 748 0 l 42 0 l 42 993 l 736 993 m 159 1267 l 365 1267 l 468 1045 l 316 1045 l 159 1267 z "},"É":{"ha":769,"x_min":42,"x_max":748,"o":"m 736 993 l 736 781 l 299 781 l 299 595 l 697 595 l 697 397 l 299 397 l 299 213 l 748 213 l 748 0 l 42 0 l 42 993 l 736 993 m 624 1267 l 418 1267 l 315 1045 l 467 1045 l 624 1267 z "},"Ê":{"ha":769,"x_min":42,"x_max":748,"o":"m 736 993 l 736 781 l 299 781 l 299 595 l 697 595 l 697 397 l 299 397 l 299 213 l 748 213 l 748 0 l 42 0 l 42 993 l 736 993 m 454 1045 l 392 1152 l 329 1045 l 186 1045 l 293 1267 l 489 1267 l 596 1045 l 454 1045 z "},"Ë":{"ha":769,"x_min":42,"x_max":748,"o":"m 736 993 l 736 781 l 299 781 l 299 595 l 697 595 l 697 397 l 299 397 l 299 213 l 748 213 l 748 0 l 42 0 l 42 993 l 736 993 m 363 1055 l 176 1055 l 176 1248 l 363 1248 l 363 1055 m 607 1055 l 420 1055 l 420 1248 l 607 1248 l 607 1055 z "},"Ì":{"ha":341,"x_min":-61,"x_max":299,"o":"m 299 0 l 42 0 l 42 993 l 299 993 l 299 0 m -61 1267 l 144 1267 l 247 1045 l 95 1045 l -61 1267 z "},"Í":{"ha":341,"x_min":42,"x_max":299,"o":"m 299 0 l 42 0 l 42 993 l 299 993 l 299 0 m 403 1267 l 197 1267 l 94 1045 l 246 1045 l 403 1267 z "},"Î":{"ha":341,"x_min":-34,"x_max":375,"o":"m 299 0 l 42 0 l 42 993 l 299 993 l 299 0 m 233 1045 l 171 1152 l 108 1045 l -34 1045 l 73 1267 l 268 1267 l 375 1045 l 233 1045 z "},"Ï":{"ha":341,"x_min":-45,"x_max":386,"o":"m 299 0 l 42 0 l 42 993 l 299 993 l 299 0 m 142 1055 l -45 1055 l -45 1248 l 142 1248 l 142 1055 m 386 1055 l 200 1055 l 200 1248 l 386 1248 l 386 1055 z "},"Ł":{"ha":738,"x_min":-42,"x_max":720,"o":"m 299 993 l 299 213 l 720 213 l 720 0 l 42 0 l 42 993 l 299 993 m 483 523 l -42 286 l -42 438 l 483 676 l 483 523 z "},"Ñ":{"ha":1008,"x_min":42,"x_max":966,"o":"m 966 0 l 617 0 l 287 745 l 287 0 l 42 0 l 42 993 l 412 993 l 721 300 l 721 993 l 966 993 l 966 0 m 720 1247 q 713 1154 720 1193 q 693 1091 707 1116 q 657 1054 679 1066 q 606 1042 636 1042 q 573 1046 588 1042 q 546 1054 558 1049 q 523 1064 533 1059 q 506 1074 514 1070 l 485 1086 q 473 1093 480 1090 q 459 1100 466 1097 q 442 1106 451 1103 q 425 1108 434 1108 q 397 1095 406 1108 q 387 1051 387 1083 l 387 1049 l 305 1049 l 305 1053 q 334 1209 305 1158 q 423 1259 363 1259 q 452 1256 438 1259 q 476 1249 465 1253 q 496 1239 488 1244 q 512 1230 505 1234 l 532 1218 q 545 1210 538 1215 q 562 1202 553 1206 q 582 1196 572 1199 q 602 1193 592 1193 q 629 1206 619 1193 q 639 1247 639 1218 l 639 1252 l 720 1252 l 720 1247 z "},"Ò":{"ha":1043,"x_min":32,"x_max":1011,"o":"m 32 497 q 48 644 32 575 q 95 770 65 713 q 170 873 126 828 q 268 949 213 918 q 386 997 322 981 q 522 1014 450 1014 q 657 997 593 1014 q 775 949 721 981 q 873 873 830 918 q 948 770 917 828 q 995 644 978 713 q 1011 497 1011 575 q 995 349 1011 418 q 948 223 978 280 q 873 120 917 165 q 775 44 830 75 q 657 -4 721 12 q 522 -21 593 -21 q 386 -4 450 -21 q 268 44 322 12 q 170 120 213 75 q 95 223 126 165 q 48 349 65 280 q 32 497 32 418 m 290 497 q 305 365 290 422 q 350 271 320 309 q 422 213 379 233 q 522 194 466 194 q 620 213 577 194 q 693 271 664 233 q 738 365 723 309 q 753 497 753 422 q 738 628 753 571 q 693 723 723 684 q 620 780 664 761 q 522 799 577 799 q 422 780 466 799 q 350 723 379 761 q 305 628 320 684 q 290 497 290 571 m 289 1267 l 495 1267 l 598 1045 l 446 1045 l 289 1267 z "},"Ó":{"ha":1043,"x_min":32,"x_max":1011,"o":"m 32 497 q 48 644 32 575 q 95 770 65 713 q 170 873 126 828 q 268 949 213 918 q 386 997 322 981 q 522 1014 450 1014 q 657 997 593 1014 q 775 949 721 981 q 873 873 830 918 q 948 770 917 828 q 995 644 978 713 q 1011 497 1011 575 q 995 349 1011 418 q 948 223 978 280 q 873 120 917 165 q 775 44 830 75 q 657 -4 721 12 q 522 -21 593 -21 q 386 -4 450 -21 q 268 44 322 12 q 170 120 213 75 q 95 223 126 165 q 48 349 65 280 q 32 497 32 418 m 290 497 q 305 365 290 422 q 350 271 320 309 q 422 213 379 233 q 522 194 466 194 q 620 213 577 194 q 693 271 664 233 q 738 365 723 309 q 753 497 753 422 q 738 628 753 571 q 693 723 723 684 q 620 780 664 761 q 522 799 577 799 q 422 780 466 799 q 350 723 379 761 q 305 628 320 684 q 290 497 290 571 m 753 1267 l 548 1267 l 445 1045 l 597 1045 l 753 1267 z "},"Ô":{"ha":1043,"x_min":32,"x_max":1011,"o":"m 32 497 q 48 644 32 575 q 95 770 65 713 q 170 873 126 828 q 268 949 213 918 q 386 997 322 981 q 522 1014 450 1014 q 657 997 593 1014 q 775 949 721 981 q 873 873 830 918 q 948 770 917 828 q 995 644 978 713 q 1011 497 1011 575 q 995 349 1011 418 q 948 223 978 280 q 873 120 917 165 q 775 44 830 75 q 657 -4 721 12 q 522 -21 593 -21 q 386 -4 450 -21 q 268 44 322 12 q 170 120 213 75 q 95 223 126 165 q 48 349 65 280 q 32 497 32 418 m 290 497 q 305 365 290 422 q 350 271 320 309 q 422 213 379 233 q 522 194 466 194 q 620 213 577 194 q 693 271 664 233 q 738 365 723 309 q 753 497 753 422 q 738 628 753 571 q 693 723 723 684 q 620 780 664 761 q 522 799 577 799 q 422 780 466 799 q 350 723 379 761 q 305 628 320 684 q 290 497 290 571 m 584 1045 l 522 1152 l 459 1045 l 316 1045 l 423 1267 l 619 1267 l 726 1045 l 584 1045 z "},"Õ":{"ha":1043,"x_min":32,"x_max":1011,"o":"m 32 497 q 48 644 32 575 q 95 770 65 713 q 170 873 126 828 q 268 949 213 918 q 386 997 322 981 q 522 1014 450 1014 q 657 997 593 1014 q 775 949 721 981 q 873 873 830 918 q 948 770 917 828 q 995 644 978 713 q 1011 497 1011 575 q 995 349 1011 418 q 948 223 978 280 q 873 120 917 165 q 775 44 830 75 q 657 -4 721 12 q 522 -21 593 -21 q 386 -4 450 -21 q 268 44 322 12 q 170 120 213 75 q 95 223 126 165 q 48 349 65 280 q 32 497 32 418 m 290 497 q 305 365 290 422 q 350 271 320 309 q 422 213 379 233 q 522 194 466 194 q 620 213 577 194 q 693 271 664 233 q 738 365 723 309 q 753 497 753 422 q 738 628 753 571 q 693 723 723 684 q 620 780 664 761 q 522 799 577 799 q 422 780 466 799 q 350 723 379 761 q 305 628 320 684 q 290 497 290 571 m 737 1256 q 731 1163 737 1201 q 710 1099 724 1124 q 675 1063 697 1074 q 623 1051 653 1051 q 591 1054 606 1051 q 563 1062 576 1057 q 541 1073 551 1067 q 524 1083 531 1078 l 502 1095 q 490 1102 497 1098 q 476 1109 484 1106 q 460 1114 468 1112 q 442 1116 451 1116 q 414 1104 424 1116 q 405 1060 405 1091 l 405 1058 l 322 1058 l 322 1061 q 351 1217 322 1166 q 440 1267 380 1267 q 469 1264 456 1267 q 494 1257 483 1261 q 514 1248 505 1252 q 529 1239 523 1243 l 549 1226 q 563 1219 555 1223 q 580 1211 570 1214 q 599 1204 589 1207 q 620 1202 609 1202 q 647 1214 637 1202 q 656 1256 656 1226 l 656 1261 l 737 1261 l 737 1256 z "},"Ö":{"ha":1043,"x_min":32,"x_max":1011,"o":"m 32 497 q 48 644 32 575 q 95 770 65 713 q 170 873 126 828 q 268 949 213 918 q 386 997 322 981 q 522 1014 450 1014 q 657 997 593 1014 q 775 949 721 981 q 873 873 830 918 q 948 770 917 828 q 995 644 978 713 q 1011 497 1011 575 q 995 349 1011 418 q 948 223 978 280 q 873 120 917 165 q 775 44 830 75 q 657 -4 721 12 q 522 -21 593 -21 q 386 -4 450 -21 q 268 44 322 12 q 170 120 213 75 q 95 223 126 165 q 48 349 65 280 q 32 497 32 418 m 290 497 q 305 365 290 422 q 350 271 320 309 q 422 213 379 233 q 522 194 466 194 q 620 213 577 194 q 693 271 664 233 q 738 365 723 309 q 753 497 753 422 q 738 628 753 571 q 693 723 723 684 q 620 780 664 761 q 522 799 577 799 q 422 780 466 799 q 350 723 379 761 q 305 628 320 684 q 290 497 290 571 m 492 1055 l 306 1055 l 306 1248 l 492 1248 l 492 1055 m 737 1055 l 550 1055 l 550 1248 l 737 1248 l 737 1055 z "},"Š":{"ha":942,"x_min":19,"x_max":923,"o":"m 466 1014 q 644 990 565 1014 q 778 923 723 967 q 862 816 833 879 q 891 673 891 753 l 647 673 q 634 731 647 705 q 597 774 621 757 q 539 802 573 792 q 463 812 505 812 q 396 805 428 812 q 341 785 365 798 q 303 752 317 772 q 289 707 289 733 q 302 665 289 681 q 340 639 314 649 q 405 622 366 628 q 496 607 443 615 l 531 602 q 595 592 562 598 q 662 579 628 587 q 727 561 695 572 q 789 534 760 550 q 843 498 818 519 q 885 448 867 476 q 913 385 903 420 q 923 303 923 349 q 892 164 923 225 q 802 63 861 104 q 661 0 744 22 q 474 -21 578 -21 q 278 3 363 -21 q 135 72 193 27 q 48 182 78 117 q 19 329 19 247 l 263 329 q 278 267 263 294 q 319 220 292 239 q 385 191 346 201 q 473 181 424 181 q 550 189 514 181 q 612 210 586 196 q 654 246 639 225 q 669 295 669 267 q 656 341 669 324 q 617 368 643 358 q 553 386 592 379 q 465 399 515 392 l 419 405 q 335 418 379 411 q 248 437 291 425 q 166 468 205 449 q 98 517 128 488 q 51 589 69 547 q 34 690 34 631 q 49 787 34 742 q 91 867 64 831 q 157 931 118 903 q 244 977 196 958 q 348 1005 292 995 q 466 1014 404 1014 m 560 1045 l 364 1045 l 257 1267 l 400 1267 l 463 1160 l 525 1267 l 667 1267 l 560 1045 z "},"Ù":{"ha":961,"x_min":42,"x_max":919,"o":"m 42 993 l 299 993 l 299 419 q 310 317 299 360 q 345 247 322 275 q 402 207 368 220 q 481 194 436 194 q 559 207 525 194 q 616 247 593 220 q 651 317 639 275 q 663 419 663 360 l 663 993 l 919 993 l 919 396 q 886 218 919 295 q 796 87 854 140 q 657 7 738 34 q 481 -21 577 -21 q 359 -9 416 -21 q 253 28 302 4 q 165 87 204 52 q 99 169 126 123 q 57 272 72 215 q 42 396 42 329 l 42 993 m 249 1267 l 454 1267 l 557 1045 l 406 1045 l 249 1267 z "},"Ú":{"ha":961,"x_min":42,"x_max":919,"o":"m 42 993 l 299 993 l 299 419 q 310 317 299 360 q 345 247 322 275 q 402 207 368 220 q 481 194 436 194 q 559 207 525 194 q 616 247 593 220 q 651 317 639 275 q 663 419 663 360 l 663 993 l 919 993 l 919 396 q 886 218 919 295 q 796 87 854 140 q 657 7 738 34 q 481 -21 577 -21 q 359 -9 416 -21 q 253 28 302 4 q 165 87 204 52 q 99 169 126 123 q 57 272 72 215 q 42 396 42 329 l 42 993 m 713 1267 l 507 1267 l 405 1045 l 556 1045 l 713 1267 z "},"Û":{"ha":961,"x_min":42,"x_max":919,"o":"m 42 993 l 299 993 l 299 419 q 310 317 299 360 q 345 247 322 275 q 402 207 368 220 q 481 194 436 194 q 559 207 525 194 q 616 247 593 220 q 651 317 639 275 q 663 419 663 360 l 663 993 l 919 993 l 919 396 q 886 218 919 295 q 796 87 854 140 q 657 7 738 34 q 481 -21 577 -21 q 359 -9 416 -21 q 253 28 302 4 q 165 87 204 52 q 99 169 126 123 q 57 272 72 215 q 42 396 42 329 l 42 993 m 543 1045 l 481 1152 l 418 1045 l 276 1045 l 383 1267 l 578 1267 l 685 1045 l 543 1045 z "},"Ü":{"ha":961,"x_min":42,"x_max":919,"o":"m 42 993 l 299 993 l 299 419 q 310 317 299 360 q 345 247 322 275 q 402 207 368 220 q 481 194 436 194 q 559 207 525 194 q 616 247 593 220 q 651 317 639 275 q 663 419 663 360 l 663 993 l 919 993 l 919 396 q 886 218 919 295 q 796 87 854 140 q 657 7 738 34 q 481 -21 577 -21 q 359 -9 416 -21 q 253 28 302 4 q 165 87 204 52 q 99 169 126 123 q 57 272 72 215 q 42 396 42 329 l 42 993 m 452 1055 l 265 1055 l 265 1248 l 452 1248 l 452 1055 m 697 1055 l 510 1055 l 510 1248 l 697 1248 l 697 1055 z "},"Ÿ":{"ha":952,"x_min":-8,"x_max":960,"o":"m 960 993 l 603 354 l 603 0 l 347 0 l 347 354 l -8 993 l 271 993 l 477 588 l 687 993 l 960 993 m 447 1055 l 260 1055 l 260 1248 l 447 1248 l 447 1055 m 692 1055 l 505 1055 l 505 1248 l 692 1248 l 692 1055 z "},"Ý":{"ha":952,"x_min":-8,"x_max":960,"o":"m 960 993 l 603 354 l 603 0 l 347 0 l 347 354 l -8 993 l 271 993 l 477 588 l 687 993 l 960 993 m 708 1267 l 503 1267 l 400 1045 l 551 1045 l 708 1267 z "},"Ž":{"ha":885,"x_min":42,"x_max":843,"o":"m 340 213 l 843 213 l 843 0 l 42 0 l 42 223 l 511 781 l 60 781 l 60 993 l 808 993 l 808 770 l 340 213 m 538 1045 l 341 1045 l 234 1267 l 377 1267 l 440 1160 l 502 1267 l 644 1267 l 538 1045 z "},"à":{"ha":830,"x_min":18,"x_max":794,"o":"m 41 478 q 67 607 41 550 q 142 704 93 664 q 261 765 191 744 q 418 786 331 786 q 577 764 508 786 q 695 699 647 742 q 769 595 744 657 q 794 454 794 533 l 794 0 l 553 0 l 553 191 q 515 103 541 142 q 453 36 490 64 q 370 -6 416 9 q 270 -21 324 -21 q 167 -5 213 -21 q 87 41 120 11 q 36 111 54 70 q 18 203 18 152 q 40 302 18 258 q 104 375 62 345 q 207 421 147 405 q 346 436 268 436 l 553 436 l 553 454 q 544 518 553 490 q 516 565 534 546 q 473 594 499 584 q 413 605 447 605 q 354 596 379 605 q 313 571 329 587 q 289 531 297 555 q 281 478 281 508 l 41 478 m 379 306 q 291 286 320 306 q 261 229 261 267 q 290 171 261 191 q 374 150 320 150 q 445 160 412 150 q 501 188 477 170 q 539 230 525 206 q 553 283 553 255 l 553 306 l 379 306 m 186 1040 l 392 1040 l 494 818 l 343 818 l 186 1040 z "},"á":{"ha":830,"x_min":18,"x_max":794,"o":"m 41 478 q 67 607 41 550 q 142 704 93 664 q 261 765 191 744 q 418 786 331 786 q 577 764 508 786 q 695 699 647 742 q 769 595 744 657 q 794 454 794 533 l 794 0 l 553 0 l 553 191 q 515 103 541 142 q 453 36 490 64 q 370 -6 416 9 q 270 -21 324 -21 q 167 -5 213 -21 q 87 41 120 11 q 36 111 54 70 q 18 203 18 152 q 40 302 18 258 q 104 375 62 345 q 207 421 147 405 q 346 436 268 436 l 553 436 l 553 454 q 544 518 553 490 q 516 565 534 546 q 473 594 499 584 q 413 605 447 605 q 354 596 379 605 q 313 571 329 587 q 289 531 297 555 q 281 478 281 508 l 41 478 m 379 306 q 291 286 320 306 q 261 229 261 267 q 290 171 261 191 q 374 150 320 150 q 445 160 412 150 q 501 188 477 170 q 539 230 525 206 q 553 283 553 255 l 553 306 l 379 306 m 650 1040 l 445 1040 l 342 818 l 493 818 l 650 1040 z "},"â":{"ha":830,"x_min":18,"x_max":794,"o":"m 41 478 q 67 607 41 550 q 142 704 93 664 q 261 765 191 744 q 418 786 331 786 q 577 764 508 786 q 695 699 647 742 q 769 595 744 657 q 794 454 794 533 l 794 0 l 553 0 l 553 191 q 515 103 541 142 q 453 36 490 64 q 370 -6 416 9 q 270 -21 324 -21 q 167 -5 213 -21 q 87 41 120 11 q 36 111 54 70 q 18 203 18 152 q 40 302 18 258 q 104 375 62 345 q 207 421 147 405 q 346 436 268 436 l 553 436 l 553 454 q 544 518 553 490 q 516 565 534 546 q 473 594 499 584 q 413 605 447 605 q 354 596 379 605 q 313 571 329 587 q 289 531 297 555 q 281 478 281 508 l 41 478 m 379 306 q 291 286 320 306 q 261 229 261 267 q 290 171 261 191 q 374 150 320 150 q 445 160 412 150 q 501 188 477 170 q 539 230 525 206 q 553 283 553 255 l 553 306 l 379 306 m 481 818 l 419 925 l 356 818 l 214 818 l 320 1040 l 516 1040 l 623 818 l 481 818 z "},"ã":{"ha":830,"x_min":18,"x_max":794,"o":"m 41 478 q 67 607 41 550 q 142 704 93 664 q 261 765 191 744 q 418 786 331 786 q 577 764 508 786 q 695 699 647 742 q 769 595 744 657 q 794 454 794 533 l 794 0 l 553 0 l 553 191 q 515 103 541 142 q 453 36 490 64 q 370 -6 416 9 q 270 -21 324 -21 q 167 -5 213 -21 q 87 41 120 11 q 36 111 54 70 q 18 203 18 152 q 40 302 18 258 q 104 375 62 345 q 207 421 147 405 q 346 436 268 436 l 553 436 l 553 454 q 544 518 553 490 q 516 565 534 546 q 473 594 499 584 q 413 605 447 605 q 354 596 379 605 q 313 571 329 587 q 289 531 297 555 q 281 478 281 508 l 41 478 m 379 306 q 291 286 320 306 q 261 229 261 267 q 290 171 261 191 q 374 150 320 150 q 445 160 412 150 q 501 188 477 170 q 539 230 525 206 q 553 283 553 255 l 553 306 l 379 306 m 634 1028 q 628 935 634 974 q 607 872 621 897 q 572 835 593 847 q 520 823 550 823 q 488 827 502 823 q 460 835 473 830 q 438 845 448 840 q 420 855 428 851 l 399 867 q 387 874 394 870 q 373 881 381 878 q 356 887 365 884 q 339 889 348 889 q 311 876 320 889 q 301 832 301 864 l 301 830 l 219 830 l 219 834 q 248 989 219 939 q 337 1040 277 1040 q 366 1037 352 1040 q 391 1030 380 1034 q 411 1020 402 1025 q 426 1011 419 1015 l 446 999 q 460 991 452 995 q 477 983 467 987 q 496 977 486 980 q 517 974 506 974 q 543 986 534 974 q 553 1028 553 999 l 553 1033 l 634 1033 l 634 1028 z "},"ä":{"ha":830,"x_min":18,"x_max":794,"o":"m 41 478 q 67 607 41 550 q 142 704 93 664 q 261 765 191 744 q 418 786 331 786 q 577 764 508 786 q 695 699 647 742 q 769 595 744 657 q 794 454 794 533 l 794 0 l 553 0 l 553 191 q 515 103 541 142 q 453 36 490 64 q 370 -6 416 9 q 270 -21 324 -21 q 167 -5 213 -21 q 87 41 120 11 q 36 111 54 70 q 18 203 18 152 q 40 302 18 258 q 104 375 62 345 q 207 421 147 405 q 346 436 268 436 l 553 436 l 553 454 q 544 518 553 490 q 516 565 534 546 q 473 594 499 584 q 413 605 447 605 q 354 596 379 605 q 313 571 329 587 q 289 531 297 555 q 281 478 281 508 l 41 478 m 379 306 q 291 286 320 306 q 261 229 261 267 q 290 171 261 191 q 374 150 320 150 q 445 160 412 150 q 501 188 477 170 q 539 230 525 206 q 553 283 553 255 l 553 306 l 379 306 m 389 827 l 202 827 l 202 1021 l 389 1021 l 389 827 m 634 827 l 447 827 l 447 1021 l 634 1021 l 634 827 z "},"å":{"ha":830,"x_min":18,"x_max":794,"o":"m 41 478 q 67 607 41 550 q 142 704 93 664 q 261 765 191 744 q 418 786 331 786 q 577 764 508 786 q 695 699 647 742 q 769 595 744 657 q 794 454 794 533 l 794 0 l 553 0 l 553 191 q 515 103 541 142 q 453 36 490 64 q 370 -6 416 9 q 270 -21 324 -21 q 167 -5 213 -21 q 87 41 120 11 q 36 111 54 70 q 18 203 18 152 q 40 302 18 258 q 104 375 62 345 q 207 421 147 405 q 346 436 268 436 l 553 436 l 553 454 q 544 518 553 490 q 516 565 534 546 q 473 594 499 584 q 413 605 447 605 q 354 596 379 605 q 313 571 329 587 q 289 531 297 555 q 281 478 281 508 l 41 478 m 379 306 q 291 286 320 306 q 261 229 261 267 q 290 171 261 191 q 374 150 320 150 q 445 160 412 150 q 501 188 477 170 q 539 230 525 206 q 553 283 553 255 l 553 306 l 379 306 m 263 969 q 274 1031 263 1003 q 306 1079 286 1059 q 355 1110 326 1099 q 416 1120 383 1120 q 478 1110 450 1120 q 527 1079 506 1099 q 558 1031 547 1059 q 569 969 569 1003 q 558 907 569 935 q 527 859 547 879 q 478 829 506 840 q 416 818 450 818 q 355 829 383 818 q 306 859 326 840 q 274 907 286 879 q 263 969 263 935 m 361 969 q 376 922 361 939 q 416 906 391 906 q 457 922 441 906 q 472 969 472 939 q 457 1016 472 1000 q 416 1033 441 1033 q 376 1016 391 1033 q 361 969 361 1000 z "},"ç":{"ha":817,"x_min":24,"x_max":793,"o":"m 267 383 q 277 299 267 335 q 307 237 288 262 q 354 200 326 213 q 419 187 383 187 q 471 196 448 187 q 510 220 493 205 q 537 259 526 236 q 552 309 547 282 l 793 309 q 753 175 784 235 q 673 70 722 114 q 560 3 625 27 q 419 -21 495 -21 q 309 -8 361 -21 q 214 29 258 5 q 135 89 170 54 q 75 169 99 124 q 37 268 50 214 q 24 383 24 322 q 37 498 24 444 q 75 597 50 552 q 135 677 99 642 q 214 736 170 712 q 309 774 258 761 q 419 786 361 786 q 560 763 495 786 q 673 695 625 739 q 753 591 722 652 q 793 456 784 530 l 552 456 q 537 507 547 484 q 510 545 526 529 q 471 570 494 561 q 419 578 449 578 q 354 566 383 578 q 307 528 326 553 q 277 467 288 504 q 267 383 267 431 m 453 3 l 443 -53 q 512 -61 481 -53 q 565 -82 543 -69 q 598 -115 586 -96 q 610 -158 610 -134 q 596 -204 610 -183 q 558 -240 583 -225 q 498 -263 533 -255 q 420 -272 463 -272 q 334 -264 380 -272 l 334 -173 q 402 -181 372 -181 q 460 -171 440 -181 q 481 -145 481 -161 q 473 -128 481 -136 q 450 -115 466 -120 q 412 -105 435 -109 q 358 -102 389 -102 l 377 3 l 453 3 z "},"đ":{"ha":851,"x_min":24,"x_max":886,"o":"m 812 1028 l 812 0 l 570 0 l 570 230 q 537 122 558 169 q 484 44 515 75 q 413 -5 453 12 q 325 -21 374 -21 q 241 -7 281 -21 q 168 31 201 6 q 108 91 134 56 q 62 172 81 127 q 34 270 43 217 q 24 383 24 323 q 34 496 24 443 q 62 594 43 549 q 108 674 81 639 q 168 735 134 710 q 241 773 201 760 q 325 786 281 786 q 413 770 374 786 q 484 722 453 754 q 537 643 515 690 q 570 535 558 597 l 570 1028 l 812 1028 m 570 383 q 560 468 570 431 q 531 529 550 504 q 483 567 511 554 q 418 580 455 580 q 305 531 343 580 q 267 383 267 481 q 305 235 267 284 q 418 186 343 186 q 483 199 455 186 q 531 236 511 211 q 560 298 550 261 q 570 383 570 335 m 886 807 l 386 807 l 386 952 l 886 952 l 886 807 z "},"è":{"ha":818,"x_min":24,"x_max":795,"o":"m 791 262 q 741 144 775 196 q 658 55 707 91 q 548 -1 610 18 q 416 -21 487 -21 q 306 -8 357 -21 q 210 30 254 6 q 132 91 167 55 q 73 171 98 126 q 36 270 49 216 q 24 383 24 323 q 36 497 24 443 q 73 595 49 550 q 131 675 97 640 q 208 735 165 711 q 303 773 251 760 q 411 786 354 786 q 520 773 469 786 q 613 736 570 760 q 690 676 656 711 q 747 596 723 641 q 782 498 770 551 q 795 384 795 444 q 792 326 795 355 l 253 326 q 271 258 258 288 q 306 208 285 228 q 357 176 328 187 q 423 165 386 165 q 512 189 476 165 q 568 262 548 214 l 791 262 m 568 458 q 413 605 543 605 q 306 567 347 605 q 255 458 266 530 l 568 458 m 180 1040 l 385 1040 l 488 818 l 336 818 l 180 1040 z "},"é":{"ha":818,"x_min":24,"x_max":795,"o":"m 791 262 q 741 144 775 196 q 658 55 707 91 q 548 -1 610 18 q 416 -21 487 -21 q 306 -8 357 -21 q 210 30 254 6 q 132 91 167 55 q 73 171 98 126 q 36 270 49 216 q 24 383 24 323 q 36 497 24 443 q 73 595 49 550 q 131 675 97 640 q 208 735 165 711 q 303 773 251 760 q 411 786 354 786 q 520 773 469 786 q 613 736 570 760 q 690 676 656 711 q 747 596 723 641 q 782 498 770 551 q 795 384 795 444 q 792 326 795 355 l 253 326 q 271 258 258 288 q 306 208 285 228 q 357 176 328 187 q 423 165 386 165 q 512 189 476 165 q 568 262 548 214 l 791 262 m 568 458 q 413 605 543 605 q 306 567 347 605 q 255 458 266 530 l 568 458 m 644 1040 l 438 1040 l 335 818 l 487 818 l 644 1040 z "},"ê":{"ha":818,"x_min":24,"x_max":795,"o":"m 791 262 q 741 144 775 196 q 658 55 707 91 q 548 -1 610 18 q 416 -21 487 -21 q 306 -8 357 -21 q 210 30 254 6 q 132 91 167 55 q 73 171 98 126 q 36 270 49 216 q 24 383 24 323 q 36 497 24 443 q 73 595 49 550 q 131 675 97 640 q 208 735 165 711 q 303 773 251 760 q 411 786 354 786 q 520 773 469 786 q 613 736 570 760 q 690 676 656 711 q 747 596 723 641 q 782 498 770 551 q 795 384 795 444 q 792 326 795 355 l 253 326 q 271 258 258 288 q 306 208 285 228 q 357 176 328 187 q 423 165 386 165 q 512 189 476 165 q 568 262 548 214 l 791 262 m 568 458 q 413 605 543 605 q 306 567 347 605 q 255 458 266 530 l 568 458 m 474 818 l 412 925 l 349 818 l 207 818 l 314 1040 l 509 1040 l 616 818 l 474 818 z "},"ë":{"ha":818,"x_min":24,"x_max":795,"o":"m 791 262 q 741 144 775 196 q 658 55 707 91 q 548 -1 610 18 q 416 -21 487 -21 q 306 -8 357 -21 q 210 30 254 6 q 132 91 167 55 q 73 171 98 126 q 36 270 49 216 q 24 383 24 323 q 36 497 24 443 q 73 595 49 550 q 131 675 97 640 q 208 735 165 711 q 303 773 251 760 q 411 786 354 786 q 520 773 469 786 q 613 736 570 760 q 690 676 656 711 q 747 596 723 641 q 782 498 770 551 q 795 384 795 444 q 792 326 795 355 l 253 326 q 271 258 258 288 q 306 208 285 228 q 357 176 328 187 q 423 165 386 165 q 512 189 476 165 q 568 262 548 214 l 791 262 m 568 458 q 413 605 543 605 q 306 567 347 605 q 255 458 266 530 l 568 458 m 383 827 l 196 827 l 196 1021 l 383 1021 l 383 827 m 627 827 l 441 827 l 441 1021 l 627 1021 l 627 827 z "},"ì":{"ha":338,"x_min":-63,"x_max":290,"o":"m 290 0 l 48 0 l 48 766 l 290 766 l 290 0 m -63 1040 l 142 1040 l 245 818 l 94 818 l -63 1040 z "},"í":{"ha":338,"x_min":48,"x_max":290,"o":"m 290 0 l 48 0 l 48 766 l 290 766 l 290 0 m 401 1040 l 196 1040 l 93 818 l 244 818 l 401 1040 z "},"î":{"ha":338,"x_min":-36,"x_max":374,"o":"m 290 0 l 48 0 l 48 766 l 290 766 l 290 0 m 231 818 l 169 925 l 106 818 l -36 818 l 71 1040 l 267 1040 l 374 818 l 231 818 z "},"ï":{"ha":338,"x_min":-47,"x_max":385,"o":"m 290 0 l 48 0 l 48 766 l 290 766 l 290 0 m 140 827 l -47 827 l -47 1021 l 140 1021 l 140 827 m 385 827 l 198 827 l 198 1021 l 385 1021 l 385 827 z "},"ł":{"ha":319,"x_min":-41,"x_max":368,"o":"m 281 0 l 39 0 l 39 1028 l 281 1028 l 281 0 m 368 480 l -41 295 l -41 442 l 368 627 l 368 480 z "},"ñ":{"ha":819,"x_min":39,"x_max":784,"o":"m 281 0 l 39 0 l 39 766 l 281 766 l 281 531 q 369 722 303 658 q 542 786 435 786 q 723 703 663 786 q 784 453 784 619 l 784 0 l 542 0 l 542 401 q 511 535 542 491 q 417 578 481 578 q 316 532 351 578 q 281 395 281 486 l 281 0 m 627 1028 q 621 935 627 974 q 600 872 614 897 q 565 835 586 847 q 513 823 543 823 q 481 827 495 823 q 453 835 466 830 q 431 845 441 840 q 414 855 421 851 l 392 867 q 380 874 387 870 q 366 881 374 878 q 349 887 358 884 q 332 889 341 889 q 304 876 314 889 q 294 832 294 864 l 294 830 l 212 830 l 212 834 q 241 989 212 939 q 330 1040 270 1040 q 359 1037 345 1040 q 384 1030 373 1034 q 404 1020 395 1025 q 419 1011 413 1015 l 439 999 q 453 991 445 995 q 470 983 460 987 q 489 977 479 980 q 510 974 499 974 q 536 986 527 974 q 546 1028 546 999 l 546 1033 l 627 1033 l 627 1028 z "},"ò":{"ha":838,"x_min":24,"x_max":814,"o":"m 24 383 q 37 498 24 444 q 75 597 50 552 q 135 677 99 642 q 214 736 170 712 q 309 774 258 761 q 419 786 361 786 q 528 774 477 786 q 624 736 580 761 q 703 677 668 712 q 763 597 738 642 q 801 498 788 552 q 814 383 814 444 q 801 268 814 322 q 763 169 788 214 q 703 89 738 124 q 624 29 668 54 q 528 -8 580 5 q 419 -21 477 -21 q 309 -8 361 -21 q 214 29 258 5 q 135 89 170 54 q 75 169 99 124 q 37 268 50 214 q 24 383 24 322 m 267 383 q 277 299 267 335 q 307 237 288 262 q 355 200 326 213 q 419 187 383 187 q 484 200 456 187 q 531 237 512 213 q 560 299 550 262 q 570 383 570 335 q 560 467 570 431 q 531 528 550 504 q 484 566 512 553 q 419 578 456 578 q 355 566 383 578 q 307 528 326 553 q 277 467 288 504 q 267 383 267 431 m 187 1040 l 392 1040 l 495 818 l 344 818 l 187 1040 z "},"ó":{"ha":838,"x_min":24,"x_max":814,"o":"m 24 383 q 37 498 24 444 q 75 597 50 552 q 135 677 99 642 q 214 736 170 712 q 309 774 258 761 q 419 786 361 786 q 528 774 477 786 q 624 736 580 761 q 703 677 668 712 q 763 597 738 642 q 801 498 788 552 q 814 383 814 444 q 801 268 814 322 q 763 169 788 214 q 703 89 738 124 q 624 29 668 54 q 528 -8 580 5 q 419 -21 477 -21 q 309 -8 361 -21 q 214 29 258 5 q 135 89 170 54 q 75 169 99 124 q 37 268 50 214 q 24 383 24 322 m 267 383 q 277 299 267 335 q 307 237 288 262 q 355 200 326 213 q 419 187 383 187 q 484 200 456 187 q 531 237 512 213 q 560 299 550 262 q 570 383 570 335 q 560 467 570 431 q 531 528 550 504 q 484 566 512 553 q 419 578 456 578 q 355 566 383 578 q 307 528 326 553 q 277 467 288 504 q 267 383 267 431 m 651 1040 l 446 1040 l 343 818 l 494 818 l 651 1040 z "},"ô":{"ha":838,"x_min":24,"x_max":814,"o":"m 24 383 q 37 498 24 444 q 75 597 50 552 q 135 677 99 642 q 214 736 170 712 q 309 774 258 761 q 419 786 361 786 q 528 774 477 786 q 624 736 580 761 q 703 677 668 712 q 763 597 738 642 q 801 498 788 552 q 814 383 814 444 q 801 268 814 322 q 763 169 788 214 q 703 89 738 124 q 624 29 668 54 q 528 -8 580 5 q 419 -21 477 -21 q 309 -8 361 -21 q 214 29 258 5 q 135 89 170 54 q 75 169 99 124 q 37 268 50 214 q 24 383 24 322 m 267 383 q 277 299 267 335 q 307 237 288 262 q 355 200 326 213 q 419 187 383 187 q 484 200 456 187 q 531 237 512 213 q 560 299 550 262 q 570 383 570 335 q 560 467 570 431 q 531 528 550 504 q 484 566 512 553 q 419 578 456 578 q 355 566 383 578 q 307 528 326 553 q 277 467 288 504 q 267 383 267 431 m 481 818 l 419 925 l 356 818 l 214 818 l 321 1040 l 517 1040 l 624 818 l 481 818 z "},"õ":{"ha":838,"x_min":24,"x_max":814,"o":"m 24 383 q 37 498 24 444 q 75 597 50 552 q 135 677 99 642 q 214 736 170 712 q 309 774 258 761 q 419 786 361 786 q 528 774 477 786 q 624 736 580 761 q 703 677 668 712 q 763 597 738 642 q 801 498 788 552 q 814 383 814 444 q 801 268 814 322 q 763 169 788 214 q 703 89 738 124 q 624 29 668 54 q 528 -8 580 5 q 419 -21 477 -21 q 309 -8 361 -21 q 214 29 258 5 q 135 89 170 54 q 75 169 99 124 q 37 268 50 214 q 24 383 24 322 m 267 383 q 277 299 267 335 q 307 237 288 262 q 355 200 326 213 q 419 187 383 187 q 484 200 456 187 q 531 237 512 213 q 560 299 550 262 q 570 383 570 335 q 560 467 570 431 q 531 528 550 504 q 484 566 512 553 q 419 578 456 578 q 355 566 383 578 q 307 528 326 553 q 277 467 288 504 q 267 383 267 431 m 634 1028 q 628 935 634 974 q 608 872 622 897 q 572 835 594 847 q 520 823 550 823 q 488 827 503 823 q 460 835 473 830 q 438 845 448 840 q 421 855 428 851 l 400 867 q 388 874 394 870 q 373 881 381 878 q 357 887 365 884 q 340 889 348 889 q 311 876 321 889 q 302 832 302 864 l 302 830 l 219 830 l 219 834 q 248 989 219 939 q 337 1040 277 1040 q 366 1037 353 1040 q 391 1030 380 1034 q 411 1020 402 1025 q 426 1011 420 1015 l 447 999 q 460 991 452 995 q 477 983 468 987 q 496 977 486 980 q 517 974 506 974 q 544 986 534 974 q 553 1028 553 999 l 553 1033 l 634 1033 l 634 1028 z "},"ö":{"ha":838,"x_min":24,"x_max":814,"o":"m 24 383 q 37 498 24 444 q 75 597 50 552 q 135 677 99 642 q 214 736 170 712 q 309 774 258 761 q 419 786 361 786 q 528 774 477 786 q 624 736 580 761 q 703 677 668 712 q 763 597 738 642 q 801 498 788 552 q 814 383 814 444 q 801 268 814 322 q 763 169 788 214 q 703 89 738 124 q 624 29 668 54 q 528 -8 580 5 q 419 -21 477 -21 q 309 -8 361 -21 q 214 29 258 5 q 135 89 170 54 q 75 169 99 124 q 37 268 50 214 q 24 383 24 322 m 267 383 q 277 299 267 335 q 307 237 288 262 q 355 200 326 213 q 419 187 383 187 q 484 200 456 187 q 531 237 512 213 q 560 299 550 262 q 570 383 570 335 q 560 467 570 431 q 531 528 550 504 q 484 566 512 553 q 419 578 456 578 q 355 566 383 578 q 307 528 326 553 q 277 467 288 504 q 267 383 267 431 m 390 827 l 203 827 l 203 1021 l 390 1021 l 390 827 m 635 827 l 448 827 l 448 1021 l 635 1021 l 635 827 z "},"š":{"ha":791,"x_min":17,"x_max":772,"o":"m 382 786 q 538 768 469 786 q 654 714 607 749 q 726 627 701 678 q 751 513 751 577 l 512 513 q 481 591 512 564 q 388 619 449 619 q 340 614 362 619 q 303 600 319 609 q 279 578 288 591 q 270 549 270 565 q 282 516 270 529 q 314 494 293 503 q 361 480 334 486 q 419 469 388 475 l 470 460 q 534 448 500 455 q 602 430 568 441 q 666 403 636 419 q 721 362 697 386 q 758 304 744 338 q 772 225 772 270 q 748 121 772 166 q 676 44 723 75 q 559 -4 628 12 q 401 -21 490 -21 q 236 -2 308 -21 q 116 52 164 16 q 42 139 67 87 q 17 259 17 191 l 257 259 q 292 177 257 205 q 399 149 327 149 q 455 154 430 149 q 497 168 480 159 q 524 191 514 177 q 533 222 533 205 q 522 256 533 243 q 491 278 511 269 q 441 294 470 288 q 375 306 412 300 l 324 315 q 264 327 297 320 q 199 344 232 333 q 136 371 167 355 q 83 411 106 387 q 45 467 59 434 q 32 544 32 500 q 56 646 32 601 q 124 722 80 691 q 234 770 169 753 q 382 786 299 786 m 481 818 l 285 818 l 178 1040 l 320 1040 l 383 933 l 445 1040 l 588 1040 l 481 818 z "},"ù":{"ha":819,"x_min":35,"x_max":781,"o":"m 539 766 l 781 766 l 781 0 l 539 0 l 539 234 q 450 44 516 108 q 277 -21 384 -21 q 96 63 157 -21 q 35 313 35 147 l 35 766 l 277 766 l 277 365 q 308 231 277 275 q 402 187 339 187 q 504 234 469 187 q 539 370 539 280 l 539 766 m 176 1040 l 382 1040 l 484 818 l 333 818 l 176 1040 z "},"ú":{"ha":819,"x_min":35,"x_max":781,"o":"m 539 766 l 781 766 l 781 0 l 539 0 l 539 234 q 450 44 516 108 q 277 -21 384 -21 q 96 63 157 -21 q 35 313 35 147 l 35 766 l 277 766 l 277 365 q 308 231 277 275 q 402 187 339 187 q 504 234 469 187 q 539 370 539 280 l 539 766 m 640 1040 l 434 1040 l 332 818 l 483 818 l 640 1040 z "},"û":{"ha":819,"x_min":35,"x_max":781,"o":"m 539 766 l 781 766 l 781 0 l 539 0 l 539 234 q 450 44 516 108 q 277 -21 384 -21 q 96 63 157 -21 q 35 313 35 147 l 35 766 l 277 766 l 277 365 q 308 231 277 275 q 402 187 339 187 q 504 234 469 187 q 539 370 539 280 l 539 766 m 470 818 l 408 925 l 345 818 l 203 818 l 310 1040 l 506 1040 l 613 818 l 470 818 z "},"ü":{"ha":819,"x_min":35,"x_max":781,"o":"m 539 766 l 781 766 l 781 0 l 539 0 l 539 234 q 450 44 516 108 q 277 -21 384 -21 q 96 63 157 -21 q 35 313 35 147 l 35 766 l 277 766 l 277 365 q 308 231 277 275 q 402 187 339 187 q 504 234 469 187 q 539 370 539 280 l 539 766 m 379 827 l 192 827 l 192 1021 l 379 1021 l 379 827 m 624 827 l 437 827 l 437 1021 l 624 1021 l 624 827 z "},"ý":{"ha":824,"x_min":2,"x_max":821,"o":"m 821 766 l 541 -8 q 481 -132 516 -80 q 400 -218 446 -184 q 296 -268 354 -252 q 167 -284 238 -284 q 34 -272 106 -284 l 34 -81 q 83 -86 61 -84 q 125 -88 105 -88 q 175 -84 152 -88 q 217 -73 198 -81 q 253 -53 236 -65 q 282 -23 269 -40 l 2 766 l 258 766 l 414 181 l 572 766 l 821 766 m 644 1031 l 438 1031 l 335 809 l 487 809 l 644 1031 z "},"ÿ":{"ha":824,"x_min":2,"x_max":821,"o":"m 821 766 l 541 -8 q 481 -132 516 -80 q 400 -218 446 -184 q 296 -268 354 -252 q 167 -284 238 -284 q 34 -272 106 -284 l 34 -81 q 83 -86 61 -84 q 125 -88 105 -88 q 175 -84 152 -88 q 217 -73 198 -81 q 253 -53 236 -65 q 282 -23 269 -40 l 2 766 l 258 766 l 414 181 l 572 766 l 821 766 m 383 819 l 196 819 l 196 1013 l 383 1013 l 383 819 m 628 819 l 441 819 l 441 1013 l 628 1013 l 628 819 z "},"ž":{"ha":755,"x_min":24,"x_max":731,"o":"m 291 189 l 731 189 l 731 0 l 24 0 l 24 200 l 427 576 l 37 576 l 37 766 l 704 766 l 704 565 l 291 189 m 474 809 l 278 809 l 171 1031 l 314 1031 l 376 924 l 439 1031 l 581 1031 l 474 809 z "},"Ā":{"ha":995,"x_min":-5,"x_max":1000,"o":"m -5 0 l 324 993 l 676 993 l 1000 0 l 726 0 l 671 203 l 320 203 l 263 0 l -5 0 m 616 406 l 497 840 l 376 406 l 616 406 m 695 1076 l 300 1076 l 300 1202 l 695 1202 l 695 1076 z "},"ā":{"ha":830,"x_min":18,"x_max":794,"o":"m 41 478 q 67 607 41 550 q 142 704 93 664 q 261 765 191 744 q 418 786 331 786 q 577 764 508 786 q 695 699 647 742 q 769 595 744 657 q 794 454 794 533 l 794 0 l 553 0 l 553 191 q 515 103 541 142 q 453 36 490 64 q 370 -6 416 9 q 270 -21 324 -21 q 167 -5 213 -21 q 87 41 120 11 q 36 111 54 70 q 18 203 18 152 q 40 302 18 258 q 104 375 62 345 q 207 421 147 405 q 346 436 268 436 l 553 436 l 553 454 q 544 518 553 490 q 516 565 534 546 q 473 594 499 584 q 413 605 447 605 q 354 596 379 605 q 313 571 329 587 q 289 531 297 555 q 281 478 281 508 l 41 478 m 379 306 q 291 286 320 306 q 261 229 261 267 q 290 171 261 191 q 374 150 320 150 q 445 160 412 150 q 501 188 477 170 q 539 230 525 206 q 553 283 553 255 l 553 306 l 379 306 m 616 849 l 221 849 l 221 975 l 616 975 l 616 849 z "},"Ă":{"ha":995,"x_min":-5,"x_max":1000,"o":"m -5 0 l 324 993 l 676 993 l 1000 0 l 726 0 l 671 203 l 320 203 l 263 0 l -5 0 m 616 406 l 497 840 l 376 406 l 616 406 m 416 1276 q 438 1197 416 1226 q 498 1169 459 1169 q 558 1197 537 1169 q 580 1276 580 1226 l 689 1276 q 678 1178 689 1221 q 642 1105 666 1135 q 582 1060 618 1076 q 498 1045 547 1045 q 413 1060 449 1045 q 354 1105 377 1076 q 318 1178 330 1135 q 307 1276 307 1221 l 416 1276 z "},"ă":{"ha":830,"x_min":18,"x_max":794,"o":"m 41 478 q 67 607 41 550 q 142 704 93 664 q 261 765 191 744 q 418 786 331 786 q 577 764 508 786 q 695 699 647 742 q 769 595 744 657 q 794 454 794 533 l 794 0 l 553 0 l 553 191 q 515 103 541 142 q 453 36 490 64 q 370 -6 416 9 q 270 -21 324 -21 q 167 -5 213 -21 q 87 41 120 11 q 36 111 54 70 q 18 203 18 152 q 40 302 18 258 q 104 375 62 345 q 207 421 147 405 q 346 436 268 436 l 553 436 l 553 454 q 544 518 553 490 q 516 565 534 546 q 473 594 499 584 q 413 605 447 605 q 354 596 379 605 q 313 571 329 587 q 289 531 297 555 q 281 478 281 508 l 41 478 m 379 306 q 291 286 320 306 q 261 229 261 267 q 290 171 261 191 q 374 150 320 150 q 445 160 412 150 q 501 188 477 170 q 539 230 525 206 q 553 283 553 255 l 553 306 l 379 306 m 336 1049 q 358 970 336 998 q 418 942 380 942 q 479 970 457 942 q 500 1049 500 998 l 610 1049 q 598 950 610 993 q 563 878 586 907 q 503 833 539 848 q 418 818 467 818 q 334 833 370 818 q 274 878 298 848 q 239 950 250 907 q 227 1049 227 993 l 336 1049 z "},"Ą":{"ha":995,"x_min":-5,"x_max":1001,"o":"m -5 0 l 324 993 l 676 993 l 1000 0 l 726 0 l 671 203 l 320 203 l 263 0 l -5 0 m 616 406 l 497 840 l 376 406 l 616 406 m 999 0 q 944 -7 971 0 q 896 -24 917 -14 q 862 -48 875 -35 q 849 -75 849 -62 q 855 -90 849 -83 q 874 -102 862 -97 q 903 -109 886 -107 q 942 -112 920 -112 q 972 -111 958 -112 q 1001 -107 987 -109 l 1001 -240 q 960 -244 981 -242 q 922 -245 940 -245 q 847 -237 881 -245 q 790 -214 814 -229 q 753 -178 766 -199 q 740 -132 740 -157 q 759 -74 740 -101 q 812 -29 778 -48 q 892 2 845 -9 q 992 14 938 13 l 999 0 z "},"ą":{"ha":830,"x_min":18,"x_max":796,"o":"m 41 478 q 67 607 41 550 q 142 704 93 664 q 261 765 191 744 q 418 786 331 786 q 577 764 508 786 q 695 699 647 742 q 769 595 744 657 q 794 454 794 533 l 794 0 l 553 0 l 553 191 q 515 103 541 142 q 453 36 490 64 q 370 -6 416 9 q 270 -21 324 -21 q 167 -5 213 -21 q 87 41 120 11 q 36 111 54 70 q 18 203 18 152 q 40 302 18 258 q 104 375 62 345 q 207 421 147 405 q 346 436 268 436 l 553 436 l 553 454 q 544 518 553 490 q 516 565 534 546 q 473 594 499 584 q 413 605 447 605 q 354 596 379 605 q 313 571 329 587 q 289 531 297 555 q 281 478 281 508 l 41 478 m 379 306 q 291 286 320 306 q 261 229 261 267 q 290 171 261 191 q 374 150 320 150 q 445 160 412 150 q 501 188 477 170 q 539 230 525 206 q 553 283 553 255 l 553 306 l 379 306 m 794 0 q 739 -7 766 0 q 691 -24 712 -14 q 657 -48 670 -35 q 644 -75 644 -62 q 650 -90 644 -83 q 669 -102 657 -97 q 698 -109 681 -107 q 737 -112 715 -112 q 767 -111 753 -112 q 796 -107 782 -109 l 796 -240 q 755 -244 775 -242 q 716 -245 735 -245 q 642 -237 676 -245 q 585 -214 609 -229 q 548 -178 561 -199 q 534 -132 534 -157 q 553 -74 534 -101 q 606 -29 573 -48 q 686 2 640 -9 q 787 14 733 13 l 794 0 z "},"Ć":{"ha":1022,"x_min":32,"x_max":987,"o":"m 290 497 q 305 365 290 422 q 350 271 320 309 q 422 213 379 233 q 522 194 466 194 q 663 247 610 194 q 733 406 716 300 l 987 406 q 935 228 974 307 q 836 93 896 149 q 696 9 776 38 q 521 -21 617 -21 q 386 -4 450 -21 q 268 44 322 12 q 170 120 213 75 q 95 223 126 165 q 48 349 65 280 q 32 497 32 418 q 48 644 32 575 q 95 770 65 713 q 170 873 126 828 q 268 949 213 918 q 386 997 322 981 q 521 1014 450 1014 q 641 1001 585 1014 q 747 962 698 988 q 836 900 796 937 q 907 815 876 863 q 958 711 938 768 q 987 587 978 653 l 733 587 q 663 747 716 694 q 522 799 610 799 q 422 780 466 799 q 350 723 379 761 q 305 628 320 684 q 290 497 290 571 m 753 1267 l 548 1267 l 445 1045 l 597 1045 l 753 1267 z "},"ć":{"ha":817,"x_min":24,"x_max":793,"o":"m 267 383 q 277 299 267 335 q 307 237 288 262 q 354 200 326 213 q 419 187 383 187 q 471 196 448 187 q 510 220 493 205 q 537 259 526 236 q 552 309 547 282 l 793 309 q 753 175 784 235 q 673 70 722 114 q 560 3 625 27 q 419 -21 495 -21 q 309 -8 361 -21 q 214 29 258 5 q 135 89 170 54 q 75 169 99 124 q 37 268 50 214 q 24 383 24 322 q 37 498 24 444 q 75 597 50 552 q 135 677 99 642 q 214 736 170 712 q 309 774 258 761 q 419 786 361 786 q 560 763 495 786 q 673 695 625 739 q 753 591 722 652 q 793 456 784 530 l 552 456 q 537 507 547 484 q 510 545 526 529 q 471 570 494 561 q 419 578 449 578 q 354 566 383 578 q 307 528 326 553 q 277 467 288 504 q 267 383 267 431 m 651 1040 l 446 1040 l 343 818 l 494 818 l 651 1040 z "},"Ĉ":{"ha":1022,"x_min":32,"x_max":987,"o":"m 290 497 q 305 365 290 422 q 350 271 320 309 q 422 213 379 233 q 522 194 466 194 q 663 247 610 194 q 733 406 716 300 l 987 406 q 935 228 974 307 q 836 93 896 149 q 696 9 776 38 q 521 -21 617 -21 q 386 -4 450 -21 q 268 44 322 12 q 170 120 213 75 q 95 223 126 165 q 48 349 65 280 q 32 497 32 418 q 48 644 32 575 q 95 770 65 713 q 170 873 126 828 q 268 949 213 918 q 386 997 322 981 q 521 1014 450 1014 q 641 1001 585 1014 q 747 962 698 988 q 836 900 796 937 q 907 815 876 863 q 958 711 938 768 q 987 587 978 653 l 733 587 q 663 747 716 694 q 522 799 610 799 q 422 780 466 799 q 350 723 379 761 q 305 628 320 684 q 290 497 290 571 m 584 1045 l 522 1152 l 459 1045 l 316 1045 l 423 1267 l 619 1267 l 726 1045 l 584 1045 z "},"ĉ":{"ha":817,"x_min":24,"x_max":793,"o":"m 267 383 q 277 299 267 335 q 307 237 288 262 q 354 200 326 213 q 419 187 383 187 q 471 196 448 187 q 510 220 493 205 q 537 259 526 236 q 552 309 547 282 l 793 309 q 753 175 784 235 q 673 70 722 114 q 560 3 625 27 q 419 -21 495 -21 q 309 -8 361 -21 q 214 29 258 5 q 135 89 170 54 q 75 169 99 124 q 37 268 50 214 q 24 383 24 322 q 37 498 24 444 q 75 597 50 552 q 135 677 99 642 q 214 736 170 712 q 309 774 258 761 q 419 786 361 786 q 560 763 495 786 q 673 695 625 739 q 753 591 722 652 q 793 456 784 530 l 552 456 q 537 507 547 484 q 510 545 526 529 q 471 570 494 561 q 419 578 449 578 q 354 566 383 578 q 307 528 326 553 q 277 467 288 504 q 267 383 267 431 m 481 818 l 419 925 l 356 818 l 214 818 l 321 1040 l 517 1040 l 624 818 l 481 818 z "},"Ċ":{"ha":1022,"x_min":32,"x_max":987,"o":"m 290 497 q 305 365 290 422 q 350 271 320 309 q 422 213 379 233 q 522 194 466 194 q 663 247 610 194 q 733 406 716 300 l 987 406 q 935 228 974 307 q 836 93 896 149 q 696 9 776 38 q 521 -21 617 -21 q 386 -4 450 -21 q 268 44 322 12 q 170 120 213 75 q 95 223 126 165 q 48 349 65 280 q 32 497 32 418 q 48 644 32 575 q 95 770 65 713 q 170 873 126 828 q 268 949 213 918 q 386 997 322 981 q 521 1014 450 1014 q 641 1001 585 1014 q 747 962 698 988 q 836 900 796 937 q 907 815 876 863 q 958 711 938 768 q 987 587 978 653 l 733 587 q 663 747 716 694 q 522 799 610 799 q 422 780 466 799 q 350 723 379 761 q 305 628 320 684 q 290 497 290 571 m 614 1055 l 427 1055 l 427 1248 l 614 1248 l 614 1055 z "},"ċ":{"ha":817,"x_min":24,"x_max":793,"o":"m 267 383 q 277 299 267 335 q 307 237 288 262 q 354 200 326 213 q 419 187 383 187 q 471 196 448 187 q 510 220 493 205 q 537 259 526 236 q 552 309 547 282 l 793 309 q 753 175 784 235 q 673 70 722 114 q 560 3 625 27 q 419 -21 495 -21 q 309 -8 361 -21 q 214 29 258 5 q 135 89 170 54 q 75 169 99 124 q 37 268 50 214 q 24 383 24 322 q 37 498 24 444 q 75 597 50 552 q 135 677 99 642 q 214 736 170 712 q 309 774 258 761 q 419 786 361 786 q 560 763 495 786 q 673 695 625 739 q 753 591 722 652 q 793 456 784 530 l 552 456 q 537 507 547 484 q 510 545 526 529 q 471 570 494 561 q 419 578 449 578 q 354 566 383 578 q 307 528 326 553 q 277 467 288 504 q 267 383 267 431 m 512 828 l 325 828 l 325 1021 l 512 1021 l 512 828 z "},"Č":{"ha":1022,"x_min":32,"x_max":987,"o":"m 290 497 q 305 365 290 422 q 350 271 320 309 q 422 213 379 233 q 522 194 466 194 q 663 247 610 194 q 733 406 716 300 l 987 406 q 935 228 974 307 q 836 93 896 149 q 696 9 776 38 q 521 -21 617 -21 q 386 -4 450 -21 q 268 44 322 12 q 170 120 213 75 q 95 223 126 165 q 48 349 65 280 q 32 497 32 418 q 48 644 32 575 q 95 770 65 713 q 170 873 126 828 q 268 949 213 918 q 386 997 322 981 q 521 1014 450 1014 q 641 1001 585 1014 q 747 962 698 988 q 836 900 796 937 q 907 815 876 863 q 958 711 938 768 q 987 587 978 653 l 733 587 q 663 747 716 694 q 522 799 610 799 q 422 780 466 799 q 350 723 379 761 q 305 628 320 684 q 290 497 290 571 m 620 1045 l 424 1045 l 317 1267 l 459 1267 l 522 1160 l 584 1267 l 726 1267 l 620 1045 z "},"č":{"ha":817,"x_min":24,"x_max":793,"o":"m 267 383 q 277 299 267 335 q 307 237 288 262 q 354 200 326 213 q 419 187 383 187 q 471 196 448 187 q 510 220 493 205 q 537 259 526 236 q 552 309 547 282 l 793 309 q 753 175 784 235 q 673 70 722 114 q 560 3 625 27 q 419 -21 495 -21 q 309 -8 361 -21 q 214 29 258 5 q 135 89 170 54 q 75 169 99 124 q 37 268 50 214 q 24 383 24 322 q 37 498 24 444 q 75 597 50 552 q 135 677 99 642 q 214 736 170 712 q 309 774 258 761 q 419 786 361 786 q 560 763 495 786 q 673 695 625 739 q 753 591 722 652 q 793 456 784 530 l 552 456 q 537 507 547 484 q 510 545 526 529 q 471 570 494 561 q 419 578 449 578 q 354 566 383 578 q 307 528 326 553 q 277 467 288 504 q 267 383 267 431 m 517 818 l 321 818 l 214 1040 l 357 1040 l 419 933 l 482 1040 l 624 1040 l 517 818 z "},"Ď":{"ha":953,"x_min":42,"x_max":921,"o":"m 42 993 l 422 993 q 562 977 496 993 q 683 932 627 961 q 782 858 739 902 q 857 760 826 815 q 905 638 888 705 q 921 497 921 572 q 905 355 921 421 q 857 233 888 289 q 782 135 826 178 q 683 61 739 91 q 562 16 627 32 q 422 0 496 0 l 42 0 l 42 993 m 415 215 q 521 233 475 215 q 598 286 567 251 q 646 374 630 322 q 663 497 663 427 q 646 619 663 566 q 598 707 630 672 q 521 760 567 742 q 415 778 475 778 l 297 778 l 297 215 l 415 215 m 520 1045 l 324 1045 l 217 1267 l 359 1267 l 422 1160 l 484 1267 l 626 1267 l 520 1045 z "},"ď":{"ha":851,"x_min":24,"x_max":1052,"o":"m 812 1028 l 812 0 l 570 0 l 570 230 q 537 122 558 169 q 484 44 515 75 q 413 -5 453 12 q 325 -21 374 -21 q 241 -7 281 -21 q 168 31 201 6 q 108 91 134 56 q 62 172 81 127 q 34 270 43 217 q 24 383 24 323 q 34 496 24 443 q 62 594 43 549 q 108 674 81 639 q 168 735 134 710 q 241 773 201 760 q 325 786 281 786 q 413 770 374 786 q 484 722 453 754 q 537 643 515 690 q 570 535 558 597 l 570 1028 l 812 1028 m 570 383 q 560 468 570 431 q 531 529 550 504 q 483 567 511 554 q 418 580 455 580 q 305 531 343 580 q 267 383 267 481 q 305 235 267 284 q 418 186 343 186 q 483 199 455 186 q 531 236 511 211 q 560 298 550 261 q 570 383 570 335 m 993 698 l 852 698 l 880 1028 l 1052 1028 l 993 698 z "},"Ē":{"ha":769,"x_min":42,"x_max":748,"o":"m 736 993 l 736 781 l 299 781 l 299 595 l 697 595 l 697 397 l 299 397 l 299 213 l 748 213 l 748 0 l 42 0 l 42 993 l 736 993 m 589 1076 l 194 1076 l 194 1202 l 589 1202 l 589 1076 z "},"ē":{"ha":818,"x_min":24,"x_max":795,"o":"m 791 262 q 741 144 775 196 q 658 55 707 91 q 548 -1 610 18 q 416 -21 487 -21 q 306 -8 357 -21 q 210 30 254 6 q 132 91 167 55 q 73 171 98 126 q 36 270 49 216 q 24 383 24 323 q 36 497 24 443 q 73 595 49 550 q 131 675 97 640 q 208 735 165 711 q 303 773 251 760 q 411 786 354 786 q 520 773 469 786 q 613 736 570 760 q 690 676 656 711 q 747 596 723 641 q 782 498 770 551 q 795 384 795 444 q 792 326 795 355 l 253 326 q 271 258 258 288 q 306 208 285 228 q 357 176 328 187 q 423 165 386 165 q 512 189 476 165 q 568 262 548 214 l 791 262 m 568 458 q 413 605 543 605 q 306 567 347 605 q 255 458 266 530 l 568 458 m 609 849 l 214 849 l 214 975 l 609 975 l 609 849 z "},"Ĕ":{"ha":769,"x_min":42,"x_max":748,"o":"m 736 993 l 736 781 l 299 781 l 299 595 l 697 595 l 697 397 l 299 397 l 299 213 l 748 213 l 748 0 l 42 0 l 42 993 l 736 993 m 310 1276 q 331 1197 310 1225 q 392 1169 353 1169 q 452 1197 431 1169 q 474 1276 474 1225 l 583 1276 q 571 1177 583 1220 q 536 1105 560 1134 q 476 1060 512 1075 q 392 1045 440 1045 q 307 1060 343 1045 q 247 1105 271 1075 q 212 1177 224 1134 q 200 1276 200 1220 l 310 1276 z "},"ĕ":{"ha":818,"x_min":24,"x_max":795,"o":"m 791 262 q 741 144 775 196 q 658 55 707 91 q 548 -1 610 18 q 416 -21 487 -21 q 306 -8 357 -21 q 210 30 254 6 q 132 91 167 55 q 73 171 98 126 q 36 270 49 216 q 24 383 24 323 q 36 497 24 443 q 73 595 49 550 q 131 675 97 640 q 208 735 165 711 q 303 773 251 760 q 411 786 354 786 q 520 773 469 786 q 613 736 570 760 q 690 676 656 711 q 747 596 723 641 q 782 498 770 551 q 795 384 795 444 q 792 326 795 355 l 253 326 q 271 258 258 288 q 306 208 285 228 q 357 176 328 187 q 423 165 386 165 q 512 189 476 165 q 568 262 548 214 l 791 262 m 568 458 q 413 605 543 605 q 306 567 347 605 q 255 458 266 530 l 568 458 m 330 1049 q 351 970 330 998 q 412 942 373 942 q 472 970 451 942 q 494 1049 494 998 l 603 1049 q 591 950 603 993 q 556 878 580 907 q 496 833 532 848 q 412 818 460 818 q 327 833 363 818 q 268 878 291 848 q 232 950 244 907 q 220 1049 220 993 l 330 1049 z "},"Ė":{"ha":769,"x_min":42,"x_max":748,"o":"m 736 993 l 736 781 l 299 781 l 299 595 l 697 595 l 697 397 l 299 397 l 299 213 l 748 213 l 748 0 l 42 0 l 42 993 l 736 993 m 485 1055 l 298 1055 l 298 1248 l 485 1248 l 485 1055 z "},"ė":{"ha":818,"x_min":24,"x_max":795,"o":"m 791 262 q 741 144 775 196 q 658 55 707 91 q 548 -1 610 18 q 416 -21 487 -21 q 306 -8 357 -21 q 210 30 254 6 q 132 91 167 55 q 73 171 98 126 q 36 270 49 216 q 24 383 24 323 q 36 497 24 443 q 73 595 49 550 q 131 675 97 640 q 208 735 165 711 q 303 773 251 760 q 411 786 354 786 q 520 773 469 786 q 613 736 570 760 q 690 676 656 711 q 747 596 723 641 q 782 498 770 551 q 795 384 795 444 q 792 326 795 355 l 253 326 q 271 258 258 288 q 306 208 285 228 q 357 176 328 187 q 423 165 386 165 q 512 189 476 165 q 568 262 548 214 l 791 262 m 568 458 q 413 605 543 605 q 306 567 347 605 q 255 458 266 530 l 568 458 m 505 827 l 318 827 l 318 1021 l 505 1021 l 505 827 z "},"Ę":{"ha":769,"x_min":42,"x_max":750,"o":"m 736 993 l 736 781 l 299 781 l 299 595 l 697 595 l 697 397 l 299 397 l 299 213 l 748 213 l 748 0 l 42 0 l 42 993 l 736 993 m 747 0 q 693 -7 719 0 q 644 -24 666 -14 q 610 -48 623 -35 q 597 -75 597 -62 q 604 -90 597 -83 q 622 -102 610 -97 q 652 -109 634 -107 q 690 -112 669 -112 q 721 -111 706 -112 q 750 -107 735 -109 l 750 -240 q 709 -244 729 -242 q 670 -245 688 -245 q 596 -237 629 -245 q 538 -214 562 -229 q 501 -178 514 -199 q 488 -132 488 -157 q 507 -74 488 -101 q 560 -29 526 -48 q 640 2 594 -9 q 740 14 686 13 l 747 0 z "},"ę":{"ha":818,"x_min":24,"x_max":795,"o":"m 791 262 q 741 144 775 196 q 658 55 707 91 q 548 -1 610 18 q 416 -21 487 -21 q 306 -8 357 -21 q 210 30 254 6 q 132 91 167 55 q 73 171 98 126 q 36 270 49 216 q 24 383 24 323 q 36 497 24 443 q 73 595 49 550 q 131 675 97 640 q 208 735 165 711 q 303 773 251 760 q 411 786 354 786 q 520 773 469 786 q 613 736 570 760 q 690 676 656 711 q 747 596 723 641 q 782 498 770 551 q 795 384 795 444 q 792 326 795 355 l 253 326 q 271 258 258 288 q 306 208 285 228 q 357 176 328 187 q 423 165 386 165 q 512 189 476 165 q 568 262 548 214 l 791 262 m 568 458 q 413 605 543 605 q 306 567 347 605 q 255 458 266 530 l 568 458 m 656 59 q 617 28 635 45 q 586 -6 599 12 q 564 -40 572 -23 q 556 -73 556 -58 q 580 -111 556 -97 q 653 -124 603 -124 q 683 -123 668 -124 q 715 -119 698 -122 l 715 -252 q 673 -256 694 -255 q 636 -258 652 -258 q 557 -248 593 -258 q 498 -223 522 -239 q 459 -183 473 -206 q 446 -132 446 -160 q 462 -74 446 -102 q 505 -20 478 -46 q 569 29 533 5 q 645 74 605 52 l 656 59 z "},"Ě":{"ha":769,"x_min":42,"x_max":748,"o":"m 736 993 l 736 781 l 299 781 l 299 595 l 697 595 l 697 397 l 299 397 l 299 213 l 748 213 l 748 0 l 42 0 l 42 993 l 736 993 m 490 1045 l 294 1045 l 187 1267 l 329 1267 l 392 1160 l 454 1267 l 597 1267 l 490 1045 z "},"ě":{"ha":818,"x_min":24,"x_max":795,"o":"m 791 262 q 741 144 775 196 q 658 55 707 91 q 548 -1 610 18 q 416 -21 487 -21 q 306 -8 357 -21 q 210 30 254 6 q 132 91 167 55 q 73 171 98 126 q 36 270 49 216 q 24 383 24 323 q 36 497 24 443 q 73 595 49 550 q 131 675 97 640 q 208 735 165 711 q 303 773 251 760 q 411 786 354 786 q 520 773 469 786 q 613 736 570 760 q 690 676 656 711 q 747 596 723 641 q 782 498 770 551 q 795 384 795 444 q 792 326 795 355 l 253 326 q 271 258 258 288 q 306 208 285 228 q 357 176 328 187 q 423 165 386 165 q 512 189 476 165 q 568 262 548 214 l 791 262 m 568 458 q 413 605 543 605 q 306 567 347 605 q 255 458 266 530 l 568 458 m 510 818 l 314 818 l 207 1040 l 349 1040 l 412 933 l 474 1040 l 617 1040 l 510 818 z "},"Ĝ":{"ha":1041,"x_min":32,"x_max":998,"o":"m 290 497 q 305 363 290 421 q 349 267 320 306 q 422 209 378 228 q 521 189 465 189 q 611 202 569 189 q 683 239 652 215 q 733 297 714 263 q 755 374 751 331 l 511 374 l 511 531 l 998 531 l 998 0 l 759 0 l 759 231 q 706 126 739 173 q 631 47 674 79 q 538 -3 589 14 q 428 -21 486 -21 q 319 -4 371 -21 q 224 44 268 13 q 144 121 180 76 q 84 224 109 167 q 45 350 59 282 q 32 497 32 419 q 48 644 32 575 q 95 770 65 713 q 170 873 126 827 q 268 949 213 918 q 386 997 322 981 q 521 1014 450 1014 q 636 1002 581 1014 q 739 967 691 990 q 829 911 788 944 q 903 834 871 877 q 958 740 935 792 q 990 628 980 688 l 736 628 q 706 703 726 672 q 659 757 686 735 q 597 789 631 778 q 522 799 562 799 q 423 780 466 799 q 350 722 380 760 q 305 628 320 684 q 290 497 290 571 m 584 1045 l 522 1152 l 459 1045 l 316 1045 l 423 1267 l 619 1267 l 726 1045 l 584 1045 z "},"ĝ":{"ha":853,"x_min":26,"x_max":815,"o":"m 815 766 l 815 85 q 788 -69 815 -1 q 711 -185 761 -137 q 589 -259 661 -233 q 428 -284 518 -284 q 271 -261 342 -284 q 151 -198 201 -239 q 73 -99 100 -157 q 45 29 45 -41 l 286 29 q 296 -26 286 -1 q 324 -67 306 -50 q 367 -93 342 -84 q 423 -102 392 -102 q 487 -90 459 -102 q 534 -54 515 -77 q 563 4 553 -30 q 573 83 573 39 l 573 279 q 539 179 561 222 q 487 105 518 135 q 415 60 456 76 q 327 45 375 45 q 205 73 260 45 q 110 149 150 100 q 48 268 70 199 q 26 420 26 337 q 48 571 26 503 q 110 686 70 639 q 205 760 150 734 q 327 786 260 786 q 487 730 424 786 q 573 561 549 673 l 573 766 l 815 766 m 573 420 q 534 541 573 501 q 419 580 494 580 q 355 570 382 580 q 308 542 327 561 q 280 492 289 522 q 270 420 270 462 q 308 294 270 336 q 419 252 345 252 q 534 295 494 252 q 573 420 573 339 m 494 818 l 432 925 l 369 818 l 226 818 l 333 1040 l 529 1040 l 636 818 l 494 818 z "},"Ğ":{"ha":1041,"x_min":32,"x_max":998,"o":"m 290 497 q 305 363 290 421 q 349 267 320 306 q 422 209 378 228 q 521 189 465 189 q 611 202 569 189 q 683 239 652 215 q 733 297 714 263 q 755 374 751 331 l 511 374 l 511 531 l 998 531 l 998 0 l 759 0 l 759 231 q 706 126 739 173 q 631 47 674 79 q 538 -3 589 14 q 428 -21 486 -21 q 319 -4 371 -21 q 224 44 268 13 q 144 121 180 76 q 84 224 109 167 q 45 350 59 282 q 32 497 32 419 q 48 644 32 575 q 95 770 65 713 q 170 873 126 827 q 268 949 213 918 q 386 997 322 981 q 521 1014 450 1014 q 636 1002 581 1014 q 739 967 691 990 q 829 911 788 944 q 903 834 871 877 q 958 740 935 792 q 990 628 980 688 l 736 628 q 706 703 726 672 q 659 757 686 735 q 597 789 631 778 q 522 799 562 799 q 423 780 466 799 q 350 722 380 760 q 305 628 320 684 q 290 497 290 571 m 440 1276 q 461 1197 440 1226 q 522 1169 483 1169 q 582 1197 560 1169 q 603 1276 603 1226 l 713 1276 q 701 1178 713 1221 q 666 1105 690 1135 q 606 1060 642 1076 q 522 1045 570 1045 q 437 1060 473 1045 q 377 1105 401 1076 q 342 1178 353 1135 q 330 1276 330 1221 l 440 1276 z "},"ğ":{"ha":853,"x_min":26,"x_max":815,"o":"m 815 766 l 815 85 q 788 -69 815 -1 q 711 -185 761 -137 q 589 -259 661 -233 q 428 -284 518 -284 q 271 -261 342 -284 q 151 -198 201 -239 q 73 -99 100 -157 q 45 29 45 -41 l 286 29 q 296 -26 286 -1 q 324 -67 306 -50 q 367 -93 342 -84 q 423 -102 392 -102 q 487 -90 459 -102 q 534 -54 515 -77 q 563 4 553 -30 q 573 83 573 39 l 573 279 q 539 179 561 222 q 487 105 518 135 q 415 60 456 76 q 327 45 375 45 q 205 73 260 45 q 110 149 150 100 q 48 268 70 199 q 26 420 26 337 q 48 571 26 503 q 110 686 70 639 q 205 760 150 734 q 327 786 260 786 q 487 730 424 786 q 573 561 549 673 l 573 766 l 815 766 m 573 420 q 534 541 573 501 q 419 580 494 580 q 355 570 382 580 q 308 542 327 561 q 280 492 289 522 q 270 420 270 462 q 308 294 270 336 q 419 252 345 252 q 534 295 494 252 q 573 420 573 339 m 350 1049 q 371 970 350 998 q 432 942 393 942 q 492 970 470 942 q 514 1049 514 998 l 623 1049 q 611 950 623 993 q 576 878 600 907 q 516 833 552 848 q 432 818 480 818 q 347 833 383 818 q 287 878 311 848 q 252 950 264 907 q 240 1049 240 993 l 350 1049 z "},"Ġ":{"ha":1041,"x_min":32,"x_max":998,"o":"m 290 497 q 305 363 290 421 q 349 267 320 306 q 422 209 378 228 q 521 189 465 189 q 611 202 569 189 q 683 239 652 215 q 733 297 714 263 q 755 374 751 331 l 511 374 l 511 531 l 998 531 l 998 0 l 759 0 l 759 231 q 706 126 739 173 q 631 47 674 79 q 538 -3 589 14 q 428 -21 486 -21 q 319 -4 371 -21 q 224 44 268 13 q 144 121 180 76 q 84 224 109 167 q 45 350 59 282 q 32 497 32 419 q 48 644 32 575 q 95 770 65 713 q 170 873 126 827 q 268 949 213 918 q 386 997 322 981 q 521 1014 450 1014 q 636 1002 581 1014 q 739 967 691 990 q 829 911 788 944 q 903 834 871 877 q 958 740 935 792 q 990 628 980 688 l 736 628 q 706 703 726 672 q 659 757 686 735 q 597 789 631 778 q 522 799 562 799 q 423 780 466 799 q 350 722 380 760 q 305 628 320 684 q 290 497 290 571 m 614 1055 l 427 1055 l 427 1248 l 614 1248 l 614 1055 z "},"ġ":{"ha":853,"x_min":26,"x_max":815,"o":"m 815 766 l 815 85 q 788 -69 815 -1 q 711 -185 761 -137 q 589 -259 661 -233 q 428 -284 518 -284 q 271 -261 342 -284 q 151 -198 201 -239 q 73 -99 100 -157 q 45 29 45 -41 l 286 29 q 296 -26 286 -1 q 324 -67 306 -50 q 367 -93 342 -84 q 423 -102 392 -102 q 487 -90 459 -102 q 534 -54 515 -77 q 563 4 553 -30 q 573 83 573 39 l 573 279 q 539 179 561 222 q 487 105 518 135 q 415 60 456 76 q 327 45 375 45 q 205 73 260 45 q 110 149 150 100 q 48 268 70 199 q 26 420 26 337 q 48 571 26 503 q 110 686 70 639 q 205 760 150 734 q 327 786 260 786 q 487 730 424 786 q 573 561 549 673 l 573 766 l 815 766 m 573 420 q 534 541 573 501 q 419 580 494 580 q 355 570 382 580 q 308 542 327 561 q 280 492 289 522 q 270 420 270 462 q 308 294 270 336 q 419 252 345 252 q 534 295 494 252 q 573 420 573 339 m 524 827 l 338 827 l 338 1021 l 524 1021 l 524 827 z "},"Ģ":{"ha":1041,"x_min":32,"x_max":998,"o":"m 290 497 q 305 363 290 421 q 349 267 320 306 q 422 209 378 228 q 521 189 465 189 q 611 202 569 189 q 683 239 652 215 q 733 297 714 263 q 755 374 751 331 l 511 374 l 511 531 l 998 531 l 998 0 l 759 0 l 759 231 q 706 126 739 173 q 631 47 674 79 q 538 -3 589 14 q 428 -21 486 -21 q 319 -4 371 -21 q 224 44 268 13 q 144 121 180 76 q 84 224 109 167 q 45 350 59 282 q 32 497 32 419 q 48 644 32 575 q 95 770 65 713 q 170 873 126 827 q 268 949 213 918 q 386 997 322 981 q 521 1014 450 1014 q 636 1002 581 1014 q 739 967 691 990 q 829 911 788 944 q 903 834 871 877 q 958 740 935 792 q 990 628 980 688 l 736 628 q 706 703 726 672 q 659 757 686 735 q 597 789 631 778 q 522 799 562 799 q 423 780 466 799 q 350 722 380 760 q 305 628 320 684 q 290 497 290 571 m 520 -274 l 369 -274 l 404 -52 l 604 -52 l 520 -274 z "},"ģ":{"ha":853,"x_min":26,"x_max":815,"o":"m 815 766 l 815 85 q 788 -69 815 -1 q 711 -185 761 -137 q 589 -259 661 -233 q 428 -284 518 -284 q 271 -261 342 -284 q 151 -198 201 -239 q 73 -99 100 -157 q 45 29 45 -41 l 286 29 q 296 -26 286 -1 q 324 -67 306 -50 q 367 -93 342 -84 q 423 -102 392 -102 q 487 -90 459 -102 q 534 -54 515 -77 q 563 4 553 -30 q 573 83 573 39 l 573 279 q 539 179 561 222 q 487 105 518 135 q 415 60 456 76 q 327 45 375 45 q 205 73 260 45 q 110 149 150 100 q 48 268 70 199 q 26 420 26 337 q 48 571 26 503 q 110 686 70 639 q 205 760 150 734 q 327 786 260 786 q 487 730 424 786 q 573 561 549 673 l 573 766 l 815 766 m 573 420 q 534 541 573 501 q 419 580 494 580 q 355 570 382 580 q 308 542 327 561 q 280 492 289 522 q 270 420 270 462 q 308 294 270 336 q 419 252 345 252 q 534 295 494 252 q 573 420 573 339 m 416 1067 l 567 1067 l 532 846 l 332 846 l 416 1067 z "},"Ĥ":{"ha":953,"x_min":42,"x_max":910,"o":"m 910 0 l 654 0 l 654 388 l 299 388 l 299 0 l 42 0 l 42 993 l 299 993 l 299 603 l 654 603 l 654 993 l 910 993 l 910 0 m 539 1045 l 477 1152 l 414 1045 l 272 1045 l 378 1267 l 574 1267 l 681 1045 l 539 1045 z "},"ĥ":{"ha":819,"x_min":-45,"x_max":784,"o":"m 281 0 l 39 0 l 39 1028 l 281 1028 l 281 531 q 369 722 303 658 q 542 786 435 786 q 723 703 663 786 q 784 453 784 619 l 784 0 l 542 0 l 542 401 q 511 535 542 491 q 417 578 481 578 q 316 532 351 578 q 281 395 281 486 l 281 0 m 222 1080 l 160 1187 l 97 1080 l -45 1080 l 61 1302 l 257 1302 l 364 1080 l 222 1080 z "},"Ħ":{"ha":953,"x_min":-33,"x_max":986,"o":"m 910 0 l 654 0 l 654 388 l 299 388 l 299 0 l 42 0 l 42 993 l 299 993 l 299 603 l 654 603 l 654 993 l 910 993 l 910 0 m 986 727 l -33 727 l -33 868 l 986 868 l 986 727 z "},"ħ":{"ha":819,"x_min":-35,"x_max":784,"o":"m 281 0 l 39 0 l 39 1028 l 281 1028 l 281 531 q 369 722 303 658 q 542 786 435 786 q 723 703 663 786 q 784 453 784 619 l 784 0 l 542 0 l 542 401 q 511 535 542 491 q 417 578 481 578 q 316 532 351 578 q 281 395 281 486 l 281 0 m 466 807 l -35 807 l -35 952 l 466 952 l 466 807 z "},"Ĩ":{"ha":341,"x_min":-29,"x_max":386,"o":"m 299 0 l 42 0 l 42 993 l 299 993 l 299 0 m 386 1256 q 380 1163 386 1201 q 359 1099 373 1124 q 324 1063 345 1074 q 272 1051 302 1051 q 240 1054 255 1051 q 212 1062 225 1057 q 190 1073 200 1067 q 173 1083 180 1078 l 151 1095 q 139 1102 146 1098 q 125 1109 133 1106 q 109 1114 117 1112 q 91 1116 100 1116 q 63 1104 73 1116 q 53 1060 53 1091 l 53 1058 l -29 1058 l -29 1061 q 0 1217 -29 1166 q 89 1267 29 1267 q 118 1264 105 1267 q 143 1257 132 1261 q 163 1248 154 1252 q 178 1239 172 1243 l 198 1226 q 212 1219 204 1223 q 229 1211 219 1214 q 248 1204 238 1207 q 269 1202 258 1202 q 295 1214 286 1202 q 305 1256 305 1226 l 305 1261 l 386 1261 l 386 1256 z "},"ĩ":{"ha":338,"x_min":-31,"x_max":384,"o":"m 290 0 l 48 0 l 48 766 l 290 766 l 290 0 m 384 1028 q 378 935 384 974 q 358 872 372 897 q 322 835 344 847 q 270 823 300 823 q 238 827 253 823 q 210 835 223 830 q 188 845 198 840 q 171 855 178 851 l 150 867 q 138 874 144 870 q 123 881 131 878 q 107 887 115 884 q 90 889 98 889 q 61 876 71 889 q 52 832 52 864 l 52 830 l -31 830 l -31 834 q -2 989 -31 939 q 87 1040 27 1040 q 116 1037 103 1040 q 141 1030 130 1034 q 161 1020 152 1025 q 176 1011 170 1015 l 197 999 q 210 991 202 995 q 227 983 218 987 q 246 977 236 980 q 267 974 256 974 q 294 986 284 974 q 303 1028 303 999 l 303 1033 l 384 1033 l 384 1028 z "},"Ī":{"ha":341,"x_min":-27,"x_max":368,"o":"m 299 0 l 42 0 l 42 993 l 299 993 l 299 0 m 368 1076 l -27 1076 l -27 1202 l 368 1202 l 368 1076 z "},"ī":{"ha":338,"x_min":-28,"x_max":366,"o":"m 290 0 l 48 0 l 48 766 l 290 766 l 290 0 m 366 849 l -28 849 l -28 975 l 366 975 l 366 849 z "},"Ĭ":{"ha":341,"x_min":-20,"x_max":362,"o":"m 299 0 l 42 0 l 42 993 l 299 993 l 299 0 m 89 1276 q 110 1197 89 1226 q 171 1169 132 1169 q 231 1197 210 1169 q 253 1276 253 1226 l 362 1276 q 351 1178 362 1221 q 315 1105 339 1135 q 255 1060 291 1076 q 171 1045 219 1045 q 86 1060 122 1045 q 27 1105 50 1076 q -9 1178 3 1135 q -20 1276 -20 1221 l 89 1276 z "},"ĭ":{"ha":338,"x_min":-22,"x_max":360,"o":"m 290 0 l 48 0 l 48 766 l 290 766 l 290 0 m 87 1049 q 109 970 87 998 q 169 942 130 942 q 230 970 208 942 q 251 1049 251 998 l 360 1049 q 349 950 360 993 q 313 878 337 907 q 254 833 290 848 q 169 818 218 818 q 85 833 120 818 q 25 878 49 848 q -11 950 1 907 q -22 1049 -22 993 l 87 1049 z "},"Į":{"ha":341,"x_min":39,"x_max":300,"o":"m 299 0 l 42 0 l 42 993 l 299 993 l 299 0 m 298 0 q 243 -7 270 0 q 195 -24 216 -14 q 161 -48 174 -35 q 148 -75 148 -62 q 154 -90 148 -83 q 173 -102 161 -97 q 202 -109 185 -107 q 241 -112 219 -112 q 271 -111 257 -112 q 300 -107 286 -109 l 300 -240 q 259 -244 280 -242 q 220 -245 239 -245 q 146 -237 180 -245 q 89 -214 113 -229 q 52 -178 65 -199 q 39 -132 39 -157 q 58 -74 39 -101 q 111 -29 77 -48 q 191 2 144 -9 q 291 14 237 13 l 298 0 z "},"į":{"ha":319,"x_min":20,"x_max":282,"o":"m 282 842 l 38 842 l 38 1028 l 282 1028 l 282 842 m 281 0 l 39 0 l 39 766 l 281 766 l 281 0 m 280 0 q 225 -7 252 0 q 177 -24 198 -14 q 143 -48 156 -35 q 130 -75 130 -62 q 136 -90 130 -83 q 155 -102 143 -97 q 184 -109 167 -107 q 223 -112 201 -112 q 253 -111 239 -112 q 282 -107 268 -109 l 282 -240 q 241 -244 261 -242 q 202 -245 221 -245 q 128 -237 162 -245 q 71 -214 95 -229 q 34 -178 47 -199 q 20 -132 20 -157 q 40 -74 20 -101 q 93 -29 59 -48 q 173 2 126 -9 q 273 14 219 13 l 280 0 z "},"İ":{"ha":341,"x_min":42,"x_max":299,"o":"m 299 0 l 42 0 l 42 993 l 299 993 l 299 0 m 264 1055 l 77 1055 l 77 1248 l 264 1248 l 264 1055 z "},"Ĳ":{"ha":1217,"x_min":42,"x_max":1175,"o":"m 299 0 l 42 0 l 42 993 l 299 993 l 299 0 m 362 453 l 618 453 l 618 360 q 629 294 618 325 q 658 241 639 264 q 706 206 677 219 q 769 194 734 194 q 833 206 806 194 q 880 242 861 219 q 909 295 899 264 q 918 362 918 326 l 918 993 l 1175 993 l 1175 358 q 1161 247 1175 298 q 1122 154 1147 196 q 1060 80 1097 112 q 979 25 1024 47 q 881 -9 934 2 q 768 -21 827 -21 q 656 -9 709 -21 q 558 25 603 2 q 477 80 513 47 q 415 154 440 112 q 376 247 390 196 q 362 358 362 298 l 362 453 z "},"ĳ":{"ha":639,"x_min":38,"x_max":601,"o":"m 282 842 l 38 842 l 38 1028 l 282 1028 l 282 842 m 281 0 l 39 0 l 39 766 l 281 766 l 281 0 m 601 842 l 357 842 l 357 1028 l 601 1028 l 601 842 m 600 66 q 582 -96 600 -29 q 524 -204 564 -162 q 423 -265 485 -246 q 271 -284 360 -284 l 241 -284 l 241 -90 l 263 -90 q 315 -79 295 -90 q 343 -52 334 -69 q 356 -13 353 -35 q 358 31 358 8 l 358 766 l 600 766 l 600 66 z "},"Ĵ":{"ha":876,"x_min":21,"x_max":911,"o":"m 21 453 l 277 453 l 277 360 q 288 294 277 325 q 317 241 298 264 q 365 206 336 219 q 428 194 393 194 q 492 206 465 194 q 539 242 520 219 q 568 295 558 264 q 577 362 577 326 l 577 993 l 834 993 l 834 358 q 820 247 834 298 q 781 154 806 196 q 719 80 756 112 q 638 25 683 47 q 540 -9 593 2 q 427 -21 486 -21 q 315 -9 368 -21 q 217 25 262 2 q 136 80 172 47 q 74 154 99 112 q 35 247 49 196 q 21 358 21 298 l 21 453 m 769 1045 l 707 1152 l 644 1045 l 502 1045 l 609 1267 l 805 1267 l 911 1045 l 769 1045 z "},"ĵ":{"ha":319,"x_min":-78,"x_max":367,"o":"m 282 66 q 264 -96 282 -29 q 206 -204 246 -162 q 104 -265 167 -246 q -49 -284 41 -284 l -78 -284 l -78 -90 l -56 -90 q -4 -79 -23 -90 q 25 -52 15 -69 q 38 -13 35 -35 q 40 31 40 8 l 40 766 l 282 766 l 282 66 m 224 818 l 162 925 l 99 818 l -43 818 l 64 1040 l 260 1040 l 367 818 l 224 818 z "},"Ķ":{"ha":943,"x_min":42,"x_max":948,"o":"m 504 496 l 948 0 l 624 0 l 299 371 l 299 0 l 42 0 l 42 993 l 299 993 l 299 582 l 615 993 l 918 993 l 504 496 m 462 -274 l 310 -274 l 346 -52 l 546 -52 l 462 -274 z "},"ķ":{"ha":834,"x_min":39,"x_max":828,"o":"m 481 382 l 828 0 l 530 0 l 281 283 l 281 0 l 39 0 l 39 1028 l 281 1028 l 281 452 l 524 766 l 802 766 l 481 382 m 406 -274 l 254 -274 l 290 -52 l 490 -52 l 406 -274 z "},"ĸ":{"ha":834,"x_min":39,"x_max":828,"o":"m 481 382 l 828 0 l 530 0 l 281 284 l 281 0 l 39 0 l 39 766 l 281 766 l 281 452 l 524 766 l 802 766 l 481 382 z "},"Ĺ":{"ha":738,"x_min":42,"x_max":720,"o":"m 299 993 l 299 213 l 720 213 l 720 0 l 42 0 l 42 993 l 299 993 m 402 1267 l 197 1267 l 94 1045 l 245 1045 l 402 1267 z "},"ĺ":{"ha":319,"x_min":39,"x_max":281,"o":"m 281 0 l 39 0 l 39 1028 l 281 1028 l 281 0 m 392 1302 l 187 1302 l 84 1080 l 235 1080 l 392 1302 z "},"Ļ":{"ha":738,"x_min":42,"x_max":720,"o":"m 299 993 l 299 213 l 720 213 l 720 0 l 42 0 l 42 993 l 299 993 m 397 -274 l 246 -274 l 281 -52 l 481 -52 l 397 -274 z "},"ļ":{"ha":319,"x_min":21,"x_max":281,"o":"m 281 0 l 39 0 l 39 1028 l 281 1028 l 281 0 m 173 -274 l 21 -274 l 57 -52 l 257 -52 l 173 -274 z "},"Ľ":{"ha":738,"x_min":42,"x_max":735,"o":"m 299 993 l 299 213 l 720 213 l 720 0 l 42 0 l 42 993 l 299 993 m 676 663 l 535 663 l 563 993 l 735 993 l 676 663 z "},"ľ":{"ha":319,"x_min":39,"x_max":523,"o":"m 281 0 l 39 0 l 39 1028 l 281 1028 l 281 0 m 465 698 l 324 698 l 351 1028 l 523 1028 l 465 698 z "},"Ŀ":{"ha":738,"x_min":42,"x_max":720,"o":"m 299 993 l 299 213 l 720 213 l 720 0 l 42 0 l 42 993 l 299 993 m 702 494 l 516 494 l 516 688 l 702 688 l 702 494 z "},"ŀ":{"ha":319,"x_min":39,"x_max":533,"o":"m 281 0 l 39 0 l 39 1028 l 281 1028 l 281 0 m 533 334 l 346 334 l 346 527 l 533 527 l 533 334 z "},"Ń":{"ha":1008,"x_min":42,"x_max":966,"o":"m 966 0 l 617 0 l 287 745 l 287 0 l 42 0 l 42 993 l 412 993 l 721 300 l 721 993 l 966 993 l 966 0 m 736 1259 l 531 1259 l 428 1037 l 579 1037 l 736 1259 z "},"ń":{"ha":819,"x_min":39,"x_max":784,"o":"m 281 0 l 39 0 l 39 766 l 281 766 l 281 531 q 369 722 303 658 q 542 786 435 786 q 723 703 663 786 q 784 453 784 619 l 784 0 l 542 0 l 542 401 q 511 535 542 491 q 417 578 481 578 q 316 532 351 578 q 281 395 281 486 l 281 0 m 644 1040 l 438 1040 l 335 818 l 487 818 l 644 1040 z "},"Ņ":{"ha":1008,"x_min":42,"x_max":966,"o":"m 966 0 l 617 0 l 287 745 l 287 0 l 42 0 l 42 993 l 412 993 l 721 300 l 721 993 l 966 993 l 966 0 m 464 -274 l 313 -274 l 348 -52 l 548 -52 l 464 -274 z "},"ņ":{"ha":819,"x_min":39,"x_max":784,"o":"m 281 0 l 39 0 l 39 766 l 281 766 l 281 531 q 369 722 303 658 q 542 786 435 786 q 723 703 663 786 q 784 453 784 619 l 784 0 l 542 0 l 542 401 q 511 535 542 491 q 417 578 481 578 q 316 532 351 578 q 281 395 281 486 l 281 0 m 420 -274 l 269 -274 l 305 -52 l 505 -52 l 420 -274 z "},"Ň":{"ha":1008,"x_min":42,"x_max":966,"o":"m 966 0 l 617 0 l 287 745 l 287 0 l 42 0 l 42 993 l 412 993 l 721 300 l 721 993 l 966 993 l 966 0 m 602 1037 l 406 1037 l 299 1259 l 442 1259 l 505 1152 l 567 1259 l 709 1259 l 602 1037 z "},"ň":{"ha":819,"x_min":39,"x_max":784,"o":"m 281 0 l 39 0 l 39 766 l 281 766 l 281 531 q 369 722 303 658 q 542 786 435 786 q 723 703 663 786 q 784 453 784 619 l 784 0 l 542 0 l 542 401 q 511 535 542 491 q 417 578 481 578 q 316 532 351 578 q 281 395 281 486 l 281 0 m 510 818 l 314 818 l 207 1040 l 349 1040 l 412 933 l 474 1040 l 617 1040 l 510 818 z "},"ŉ":{"ha":1073,"x_min":42,"x_max":1031,"o":"m 42 993 l 1031 993 l 1031 0 l 42 0 l 42 993 m 536 589 l 781 856 l 293 856 l 536 589 m 198 217 l 453 497 l 198 777 l 198 217 m 876 216 l 876 776 l 620 497 l 876 216 m 293 137 l 780 137 l 536 405 l 293 137 z "},"Ŋ":{"ha":1073,"x_min":42,"x_max":1031,"o":"m 42 993 l 1031 993 l 1031 0 l 42 0 l 42 993 m 536 589 l 781 856 l 293 856 l 536 589 m 198 217 l 453 497 l 198 777 l 198 217 m 876 216 l 876 776 l 620 497 l 876 216 m 293 137 l 780 137 l 536 405 l 293 137 z "},"ŋ":{"ha":1073,"x_min":42,"x_max":1031,"o":"m 42 993 l 1031 993 l 1031 0 l 42 0 l 42 993 m 536 589 l 781 856 l 293 856 l 536 589 m 198 217 l 453 497 l 198 777 l 198 217 m 876 216 l 876 776 l 620 497 l 876 216 m 293 137 l 780 137 l 536 405 l 293 137 z "},"Ō":{"ha":1043,"x_min":32,"x_max":1011,"o":"m 32 497 q 48 644 32 575 q 95 770 65 713 q 170 873 126 828 q 268 949 213 918 q 386 997 322 981 q 522 1014 450 1014 q 657 997 593 1014 q 775 949 721 981 q 873 873 830 918 q 948 770 917 828 q 995 644 978 713 q 1011 497 1011 575 q 995 349 1011 418 q 948 223 978 280 q 873 120 917 165 q 775 44 830 75 q 657 -4 721 12 q 522 -21 593 -21 q 386 -4 450 -21 q 268 44 322 12 q 170 120 213 75 q 95 223 126 165 q 48 349 65 280 q 32 497 32 418 m 290 497 q 305 365 290 422 q 350 271 320 309 q 422 213 379 233 q 522 194 466 194 q 620 213 577 194 q 693 271 664 233 q 738 365 723 309 q 753 497 753 422 q 738 628 753 571 q 693 723 723 684 q 620 780 664 761 q 522 799 577 799 q 422 780 466 799 q 350 723 379 761 q 305 628 320 684 q 290 497 290 571 m 718 1076 l 324 1076 l 324 1202 l 718 1202 l 718 1076 z "},"ō":{"ha":838,"x_min":24,"x_max":814,"o":"m 24 383 q 37 498 24 444 q 75 597 50 552 q 135 677 99 642 q 214 736 170 712 q 309 774 258 761 q 419 786 361 786 q 528 774 477 786 q 624 736 580 761 q 703 677 668 712 q 763 597 738 642 q 801 498 788 552 q 814 383 814 444 q 801 268 814 322 q 763 169 788 214 q 703 89 738 124 q 624 29 668 54 q 528 -8 580 5 q 419 -21 477 -21 q 309 -8 361 -21 q 214 29 258 5 q 135 89 170 54 q 75 169 99 124 q 37 268 50 214 q 24 383 24 322 m 267 383 q 277 299 267 335 q 307 237 288 262 q 355 200 326 213 q 419 187 383 187 q 484 200 456 187 q 531 237 512 213 q 560 299 550 262 q 570 383 570 335 q 560 467 570 431 q 531 528 550 504 q 484 566 512 553 q 419 578 456 578 q 355 566 383 578 q 307 528 326 553 q 277 467 288 504 q 267 383 267 431 m 616 849 l 222 849 l 222 975 l 616 975 l 616 849 z "},"Ŏ":{"ha":1043,"x_min":32,"x_max":1011,"o":"m 32 497 q 48 644 32 575 q 95 770 65 713 q 170 873 126 828 q 268 949 213 918 q 386 997 322 981 q 522 1014 450 1014 q 657 997 593 1014 q 775 949 721 981 q 873 873 830 918 q 948 770 917 828 q 995 644 978 713 q 1011 497 1011 575 q 995 349 1011 418 q 948 223 978 280 q 873 120 917 165 q 775 44 830 75 q 657 -4 721 12 q 522 -21 593 -21 q 386 -4 450 -21 q 268 44 322 12 q 170 120 213 75 q 95 223 126 165 q 48 349 65 280 q 32 497 32 418 m 290 497 q 305 365 290 422 q 350 271 320 309 q 422 213 379 233 q 522 194 466 194 q 620 213 577 194 q 693 271 664 233 q 738 365 723 309 q 753 497 753 422 q 738 628 753 571 q 693 723 723 684 q 620 780 664 761 q 522 799 577 799 q 422 780 466 799 q 350 723 379 761 q 305 628 320 684 q 290 497 290 571 m 440 1276 q 461 1197 440 1226 q 522 1169 483 1169 q 582 1197 560 1169 q 603 1276 603 1226 l 713 1276 q 701 1178 713 1221 q 666 1105 690 1135 q 606 1060 642 1076 q 522 1045 570 1045 q 437 1060 473 1045 q 377 1105 401 1076 q 342 1178 353 1135 q 330 1276 330 1221 l 440 1276 z "},"ŏ":{"ha":838,"x_min":24,"x_max":814,"o":"m 24 383 q 37 498 24 444 q 75 597 50 552 q 135 677 99 642 q 214 736 170 712 q 309 774 258 761 q 419 786 361 786 q 528 774 477 786 q 624 736 580 761 q 703 677 668 712 q 763 597 738 642 q 801 498 788 552 q 814 383 814 444 q 801 268 814 322 q 763 169 788 214 q 703 89 738 124 q 624 29 668 54 q 528 -8 580 5 q 419 -21 477 -21 q 309 -8 361 -21 q 214 29 258 5 q 135 89 170 54 q 75 169 99 124 q 37 268 50 214 q 24 383 24 322 m 267 383 q 277 299 267 335 q 307 237 288 262 q 355 200 326 213 q 419 187 383 187 q 484 200 456 187 q 531 237 512 213 q 560 299 550 262 q 570 383 570 335 q 560 467 570 431 q 531 528 550 504 q 484 566 512 553 q 419 578 456 578 q 355 566 383 578 q 307 528 326 553 q 277 467 288 504 q 267 383 267 431 m 337 1049 q 359 970 337 998 q 419 942 380 942 q 480 970 458 942 q 501 1049 501 998 l 610 1049 q 599 950 610 993 q 563 878 587 907 q 504 833 540 848 q 419 818 468 818 q 335 833 370 818 q 275 878 299 848 q 239 950 251 907 q 228 1049 228 993 l 337 1049 z "},"Ő":{"ha":1043,"x_min":32,"x_max":1011,"o":"m 32 497 q 48 644 32 575 q 95 770 65 713 q 170 873 126 828 q 268 949 213 918 q 386 997 322 981 q 522 1014 450 1014 q 657 997 593 1014 q 775 949 721 981 q 873 873 830 918 q 948 770 917 828 q 995 644 978 713 q 1011 497 1011 575 q 995 349 1011 418 q 948 223 978 280 q 873 120 917 165 q 775 44 830 75 q 657 -4 721 12 q 522 -21 593 -21 q 386 -4 450 -21 q 268 44 322 12 q 170 120 213 75 q 95 223 126 165 q 48 349 65 280 q 32 497 32 418 m 290 497 q 305 365 290 422 q 350 271 320 309 q 422 213 379 233 q 522 194 466 194 q 620 213 577 194 q 693 271 664 233 q 738 365 723 309 q 753 497 753 422 q 738 628 753 571 q 693 723 723 684 q 620 780 664 761 q 522 799 577 799 q 422 780 466 799 q 350 723 379 761 q 305 628 320 684 q 290 497 290 571 m 320 1045 l 395 1267 l 580 1267 l 467 1045 l 320 1045 m 549 1045 l 623 1267 l 807 1267 l 695 1045 l 549 1045 z "},"ő":{"ha":838,"x_min":24,"x_max":814,"o":"m 24 383 q 37 498 24 444 q 75 597 50 552 q 135 677 99 642 q 214 736 170 712 q 309 774 258 761 q 419 786 361 786 q 528 774 477 786 q 624 736 580 761 q 703 677 668 712 q 763 597 738 642 q 801 498 788 552 q 814 383 814 444 q 801 268 814 322 q 763 169 788 214 q 703 89 738 124 q 624 29 668 54 q 528 -8 580 5 q 419 -21 477 -21 q 309 -8 361 -21 q 214 29 258 5 q 135 89 170 54 q 75 169 99 124 q 37 268 50 214 q 24 383 24 322 m 267 383 q 277 299 267 335 q 307 237 288 262 q 355 200 326 213 q 419 187 383 187 q 484 200 456 187 q 531 237 512 213 q 560 299 550 262 q 570 383 570 335 q 560 467 570 431 q 531 528 550 504 q 484 566 512 553 q 419 578 456 578 q 355 566 383 578 q 307 528 326 553 q 277 467 288 504 q 267 383 267 431 m 218 818 l 292 1040 l 477 1040 l 364 818 l 218 818 m 446 818 l 520 1040 l 705 1040 l 592 818 l 446 818 z "},"Ŕ":{"ha":957,"x_min":42,"x_max":936,"o":"m 42 0 l 42 993 l 539 993 q 696 972 627 993 q 812 912 765 951 q 884 816 860 873 q 909 689 909 760 q 890 578 909 628 q 834 491 870 527 q 747 435 798 456 q 634 413 697 415 q 741 369 694 408 q 821 256 788 330 l 936 0 l 651 0 l 534 256 q 508 305 520 285 q 482 335 496 324 q 450 351 468 346 q 408 355 433 355 l 299 355 l 299 0 l 42 0 m 510 553 q 571 561 544 553 q 615 584 597 569 q 643 622 634 599 q 652 673 652 644 q 616 760 652 730 q 510 790 580 790 l 299 790 l 299 553 l 510 553 m 633 1267 l 427 1267 l 325 1045 l 476 1045 l 633 1267 z "},"ŕ":{"ha":587,"x_min":39,"x_max":567,"o":"m 281 0 l 39 0 l 39 766 l 281 766 l 281 489 q 307 604 290 552 q 353 691 325 655 q 422 746 382 727 q 516 766 462 766 l 567 766 l 567 539 l 464 539 q 375 527 410 539 q 318 490 339 515 q 289 426 298 465 q 281 335 281 388 l 281 0 m 525 1040 l 319 1040 l 217 818 l 368 818 l 525 1040 z "},"Ŗ":{"ha":957,"x_min":42,"x_max":936,"o":"m 42 0 l 42 993 l 539 993 q 696 972 627 993 q 812 912 765 951 q 884 816 860 873 q 909 689 909 760 q 890 578 909 628 q 834 491 870 527 q 747 435 798 456 q 634 413 697 415 q 741 369 694 408 q 821 256 788 330 l 936 0 l 651 0 l 534 256 q 508 305 520 285 q 482 335 496 324 q 450 351 468 346 q 408 355 433 355 l 299 355 l 299 0 l 42 0 m 510 553 q 571 561 544 553 q 615 584 597 569 q 643 622 634 599 q 652 673 652 644 q 616 760 652 730 q 510 790 580 790 l 299 790 l 299 553 l 510 553 m 472 -274 l 320 -274 l 356 -52 l 556 -52 l 472 -274 z "},"ŗ":{"ha":587,"x_min":21,"x_max":567,"o":"m 281 0 l 39 0 l 39 766 l 281 766 l 281 489 q 307 604 290 552 q 353 691 325 655 q 422 746 382 727 q 516 766 462 766 l 567 766 l 567 539 l 464 539 q 375 527 410 539 q 318 490 339 515 q 289 426 298 465 q 281 335 281 388 l 281 0 m 173 -274 l 21 -274 l 57 -52 l 257 -52 l 173 -274 z "},"Ř":{"ha":957,"x_min":42,"x_max":936,"o":"m 42 0 l 42 993 l 539 993 q 696 972 627 993 q 812 912 765 951 q 884 816 860 873 q 909 689 909 760 q 890 578 909 628 q 834 491 870 527 q 747 435 798 456 q 634 413 697 415 q 741 369 694 408 q 821 256 788 330 l 936 0 l 651 0 l 534 256 q 508 305 520 285 q 482 335 496 324 q 450 351 468 346 q 408 355 433 355 l 299 355 l 299 0 l 42 0 m 510 553 q 571 561 544 553 q 615 584 597 569 q 643 622 634 599 q 652 673 652 644 q 616 760 652 730 q 510 790 580 790 l 299 790 l 299 553 l 510 553 m 499 1045 l 303 1045 l 196 1267 l 339 1267 l 401 1160 l 464 1267 l 606 1267 l 499 1045 z "},"ř":{"ha":587,"x_min":39,"x_max":567,"o":"m 281 0 l 39 0 l 39 766 l 281 766 l 281 489 q 307 604 290 552 q 353 691 325 655 q 422 746 382 727 q 516 766 462 766 l 567 766 l 567 539 l 464 539 q 375 527 410 539 q 318 490 339 515 q 289 426 298 465 q 281 335 281 388 l 281 0 m 391 818 l 195 818 l 88 1040 l 231 1040 l 293 933 l 356 1040 l 498 1040 l 391 818 z "},"Ś":{"ha":942,"x_min":19,"x_max":923,"o":"m 466 1014 q 644 990 565 1014 q 778 923 723 967 q 862 816 833 879 q 891 673 891 753 l 647 673 q 634 731 647 705 q 597 774 621 757 q 539 802 573 792 q 463 812 505 812 q 396 805 428 812 q 341 785 365 798 q 303 752 317 772 q 289 707 289 733 q 302 665 289 681 q 340 639 314 649 q 405 622 366 628 q 496 607 443 615 l 531 602 q 595 592 562 598 q 662 579 628 587 q 727 561 695 572 q 789 534 760 550 q 843 498 818 519 q 885 448 867 476 q 913 385 903 420 q 923 303 923 349 q 892 164 923 225 q 802 63 861 104 q 661 0 744 22 q 474 -21 578 -21 q 278 3 363 -21 q 135 72 193 27 q 48 182 78 117 q 19 329 19 247 l 263 329 q 278 267 263 294 q 319 220 292 239 q 385 191 346 201 q 473 181 424 181 q 550 189 514 181 q 612 210 586 196 q 654 246 639 225 q 669 295 669 267 q 656 341 669 324 q 617 368 643 358 q 553 386 592 379 q 465 399 515 392 l 419 405 q 335 418 379 411 q 248 437 291 425 q 166 468 205 449 q 98 517 128 488 q 51 589 69 547 q 34 690 34 631 q 49 787 34 742 q 91 867 64 831 q 157 931 118 903 q 244 977 196 958 q 348 1005 292 995 q 466 1014 404 1014 m 694 1267 l 489 1267 l 386 1045 l 537 1045 l 694 1267 z "},"ś":{"ha":791,"x_min":17,"x_max":772,"o":"m 382 786 q 538 768 469 786 q 654 714 607 749 q 726 627 701 678 q 751 513 751 577 l 512 513 q 481 591 512 564 q 388 619 449 619 q 340 614 362 619 q 303 600 319 609 q 279 578 288 591 q 270 549 270 565 q 282 516 270 529 q 314 494 293 503 q 361 480 334 486 q 419 469 388 475 l 470 460 q 534 448 500 455 q 602 430 568 441 q 666 403 636 419 q 721 362 697 386 q 758 304 744 338 q 772 225 772 270 q 748 121 772 166 q 676 44 723 75 q 559 -4 628 12 q 401 -21 490 -21 q 236 -2 308 -21 q 116 52 164 16 q 42 139 67 87 q 17 259 17 191 l 257 259 q 292 177 257 205 q 399 149 327 149 q 455 154 430 149 q 497 168 480 159 q 524 191 514 177 q 533 222 533 205 q 522 256 533 243 q 491 278 511 269 q 441 294 470 288 q 375 306 412 300 l 324 315 q 264 327 297 320 q 199 344 232 333 q 136 371 167 355 q 83 411 106 387 q 45 467 59 434 q 32 544 32 500 q 56 646 32 601 q 124 722 80 691 q 234 770 169 753 q 382 786 299 786 m 615 1040 l 409 1040 l 307 818 l 458 818 l 615 1040 z "},"Ŝ":{"ha":942,"x_min":19,"x_max":923,"o":"m 466 1014 q 644 990 565 1014 q 778 923 723 967 q 862 816 833 879 q 891 673 891 753 l 647 673 q 634 731 647 705 q 597 774 621 757 q 539 802 573 792 q 463 812 505 812 q 396 805 428 812 q 341 785 365 798 q 303 752 317 772 q 289 707 289 733 q 302 665 289 681 q 340 639 314 649 q 405 622 366 628 q 496 607 443 615 l 531 602 q 595 592 562 598 q 662 579 628 587 q 727 561 695 572 q 789 534 760 550 q 843 498 818 519 q 885 448 867 476 q 913 385 903 420 q 923 303 923 349 q 892 164 923 225 q 802 63 861 104 q 661 0 744 22 q 474 -21 578 -21 q 278 3 363 -21 q 135 72 193 27 q 48 182 78 117 q 19 329 19 247 l 263 329 q 278 267 263 294 q 319 220 292 239 q 385 191 346 201 q 473 181 424 181 q 550 189 514 181 q 612 210 586 196 q 654 246 639 225 q 669 295 669 267 q 656 341 669 324 q 617 368 643 358 q 553 386 592 379 q 465 399 515 392 l 419 405 q 335 418 379 411 q 248 437 291 425 q 166 468 205 449 q 98 517 128 488 q 51 589 69 547 q 34 690 34 631 q 49 787 34 742 q 91 867 64 831 q 157 931 118 903 q 244 977 196 958 q 348 1005 292 995 q 466 1014 404 1014 m 524 1045 l 462 1152 l 399 1045 l 257 1045 l 364 1267 l 560 1267 l 667 1045 l 524 1045 z "},"ŝ":{"ha":791,"x_min":17,"x_max":772,"o":"m 382 786 q 538 768 469 786 q 654 714 607 749 q 726 627 701 678 q 751 513 751 577 l 512 513 q 481 591 512 564 q 388 619 449 619 q 340 614 362 619 q 303 600 319 609 q 279 578 288 591 q 270 549 270 565 q 282 516 270 529 q 314 494 293 503 q 361 480 334 486 q 419 469 388 475 l 470 460 q 534 448 500 455 q 602 430 568 441 q 666 403 636 419 q 721 362 697 386 q 758 304 744 338 q 772 225 772 270 q 748 121 772 166 q 676 44 723 75 q 559 -4 628 12 q 401 -21 490 -21 q 236 -2 308 -21 q 116 52 164 16 q 42 139 67 87 q 17 259 17 191 l 257 259 q 292 177 257 205 q 399 149 327 149 q 455 154 430 149 q 497 168 480 159 q 524 191 514 177 q 533 222 533 205 q 522 256 533 243 q 491 278 511 269 q 441 294 470 288 q 375 306 412 300 l 324 315 q 264 327 297 320 q 199 344 232 333 q 136 371 167 355 q 83 411 106 387 q 45 467 59 434 q 32 544 32 500 q 56 646 32 601 q 124 722 80 691 q 234 770 169 753 q 382 786 299 786 m 445 818 l 383 925 l 320 818 l 178 818 l 285 1040 l 481 1040 l 588 818 l 445 818 z "},"Ş":{"ha":942,"x_min":19,"x_max":923,"o":"m 466 1014 q 644 990 565 1014 q 778 923 723 967 q 862 816 833 879 q 891 673 891 753 l 647 673 q 634 731 647 705 q 597 774 621 757 q 539 802 573 792 q 463 812 505 812 q 396 805 428 812 q 341 785 365 798 q 303 752 317 772 q 289 707 289 733 q 302 665 289 681 q 340 639 314 649 q 405 622 366 628 q 496 607 443 615 l 531 602 q 595 592 562 598 q 662 579 628 587 q 727 561 695 572 q 789 534 760 550 q 843 498 818 519 q 885 448 867 476 q 913 385 903 420 q 923 303 923 349 q 892 164 923 225 q 802 63 861 104 q 661 0 744 22 q 474 -21 578 -21 q 278 3 363 -21 q 135 72 193 27 q 48 182 78 117 q 19 329 19 247 l 263 329 q 278 267 263 294 q 319 220 292 239 q 385 191 346 201 q 473 181 424 181 q 550 189 514 181 q 612 210 586 196 q 654 246 639 225 q 669 295 669 267 q 656 341 669 324 q 617 368 643 358 q 553 386 592 379 q 465 399 515 392 l 419 405 q 335 418 379 411 q 248 437 291 425 q 166 468 205 449 q 98 517 128 488 q 51 589 69 547 q 34 690 34 631 q 49 787 34 742 q 91 867 64 831 q 157 931 118 903 q 244 977 196 958 q 348 1005 292 995 q 466 1014 404 1014 m 516 3 l 505 -53 q 574 -61 543 -53 q 627 -82 605 -69 q 660 -115 649 -96 q 672 -158 672 -134 q 659 -204 672 -183 q 620 -240 645 -225 q 560 -263 595 -255 q 482 -272 525 -272 q 397 -264 442 -272 l 397 -173 q 464 -181 434 -181 q 523 -171 502 -181 q 543 -145 543 -161 q 535 -128 543 -136 q 512 -115 528 -120 q 474 -105 497 -109 q 420 -102 451 -102 l 439 3 l 516 3 z "},"ş":{"ha":791,"x_min":17,"x_max":772,"o":"m 382 786 q 538 768 469 786 q 654 714 607 749 q 726 627 701 678 q 751 513 751 577 l 512 513 q 481 591 512 564 q 388 619 449 619 q 340 614 362 619 q 303 600 319 609 q 279 578 288 591 q 270 549 270 565 q 282 516 270 529 q 314 494 293 503 q 361 480 334 486 q 419 469 388 475 l 470 460 q 534 448 500 455 q 602 430 568 441 q 666 403 636 419 q 721 362 697 386 q 758 304 744 338 q 772 225 772 270 q 748 121 772 166 q 676 44 723 75 q 559 -4 628 12 q 401 -21 490 -21 q 236 -2 308 -21 q 116 52 164 16 q 42 139 67 87 q 17 259 17 191 l 257 259 q 292 177 257 205 q 399 149 327 149 q 455 154 430 149 q 497 168 480 159 q 524 191 514 177 q 533 222 533 205 q 522 256 533 243 q 491 278 511 269 q 441 294 470 288 q 375 306 412 300 l 324 315 q 264 327 297 320 q 199 344 232 333 q 136 371 167 355 q 83 411 106 387 q 45 467 59 434 q 32 544 32 500 q 56 646 32 601 q 124 722 80 691 q 234 770 169 753 q 382 786 299 786 m 442 3 l 432 -53 q 501 -61 470 -53 q 554 -82 532 -69 q 587 -115 575 -96 q 599 -158 599 -134 q 585 -204 599 -183 q 547 -240 572 -225 q 487 -263 522 -255 q 409 -272 452 -272 q 323 -264 369 -272 l 323 -173 q 391 -181 360 -181 q 449 -171 429 -181 q 470 -145 470 -161 q 462 -128 470 -136 q 439 -115 455 -120 q 401 -105 424 -109 q 347 -102 378 -102 l 366 3 l 442 3 z "},"Ţ":{"ha":866,"x_min":11,"x_max":855,"o":"m 855 781 l 561 781 l 561 0 l 305 0 l 305 781 l 11 781 l 11 993 l 855 993 l 855 781 m 473 3 l 462 -53 q 531 -61 500 -53 q 584 -82 562 -69 q 617 -115 606 -96 q 629 -158 629 -134 q 615 -204 629 -183 q 577 -240 602 -225 q 517 -263 552 -255 q 439 -272 482 -272 q 353 -264 399 -272 l 353 -173 q 421 -181 391 -181 q 480 -171 459 -181 q 500 -145 500 -161 q 492 -128 500 -136 q 469 -115 485 -120 q 431 -105 454 -109 q 377 -102 408 -102 l 396 3 l 473 3 z "},"ţ":{"ha":575,"x_min":11,"x_max":548,"o":"m 548 6 q 453 -14 497 -7 q 370 -21 409 -21 q 170 56 238 -21 q 103 284 103 133 l 103 577 l 11 577 l 11 766 l 103 766 l 103 942 l 344 942 l 344 766 l 548 766 l 548 577 l 344 577 l 344 284 q 367 195 344 223 q 438 168 389 168 q 484 172 458 168 q 548 186 511 177 l 548 6 m 375 3 l 364 -53 q 433 -61 402 -53 q 486 -82 464 -69 q 519 -115 508 -96 q 531 -158 531 -134 q 518 -204 531 -183 q 479 -240 504 -225 q 419 -263 454 -255 q 341 -272 384 -272 q 256 -264 301 -272 l 256 -173 q 323 -181 293 -181 q 382 -171 361 -181 q 402 -145 402 -161 q 394 -128 402 -136 q 371 -115 387 -120 q 333 -105 356 -109 q 280 -102 310 -102 l 298 3 l 375 3 z "},"Ť":{"ha":866,"x_min":11,"x_max":855,"o":"m 855 781 l 561 781 l 561 0 l 305 0 l 305 781 l 11 781 l 11 993 l 855 993 l 855 781 m 532 1045 l 335 1045 l 228 1267 l 371 1267 l 434 1160 l 496 1267 l 638 1267 l 532 1045 z "},"ť":{"ha":575,"x_min":11,"x_max":604,"o":"m 548 6 q 453 -14 497 -7 q 370 -21 409 -21 q 170 56 238 -21 q 103 284 103 133 l 103 577 l 11 577 l 11 766 l 103 766 l 103 942 l 344 942 l 344 766 l 548 766 l 548 577 l 344 577 l 344 284 q 367 195 344 223 q 438 168 389 168 q 484 172 458 168 q 548 186 511 177 l 548 6 m 545 811 l 405 811 l 432 1141 l 604 1141 l 545 811 z "},"Ŧ":{"ha":866,"x_min":11,"x_max":855,"o":"m 855 781 l 561 781 l 561 0 l 305 0 l 305 781 l 11 781 l 11 993 l 855 993 l 855 781 m 740 365 l 126 365 l 126 507 l 740 507 l 740 365 z "},"ŧ":{"ha":575,"x_min":11,"x_max":548,"o":"m 548 6 q 453 -14 497 -7 q 370 -21 409 -21 q 170 56 238 -21 q 103 284 103 133 l 103 577 l 11 577 l 11 766 l 103 766 l 103 942 l 344 942 l 344 766 l 548 766 l 548 577 l 344 577 l 344 284 q 367 195 344 223 q 438 168 389 168 q 484 172 458 168 q 548 186 511 177 l 548 6 m 530 344 l 11 344 l 11 472 l 530 472 l 530 344 z "},"Ũ":{"ha":961,"x_min":42,"x_max":919,"o":"m 42 993 l 299 993 l 299 419 q 310 317 299 360 q 345 247 322 275 q 402 207 368 220 q 481 194 436 194 q 559 207 525 194 q 616 247 593 220 q 651 317 639 275 q 663 419 663 360 l 663 993 l 919 993 l 919 396 q 886 218 919 295 q 796 87 854 140 q 657 7 738 34 q 481 -21 577 -21 q 359 -9 416 -21 q 253 28 302 4 q 165 87 204 52 q 99 169 126 123 q 57 272 72 215 q 42 396 42 329 l 42 993 m 696 1256 q 690 1163 696 1201 q 669 1099 683 1124 q 634 1063 656 1074 q 582 1051 612 1051 q 550 1054 565 1051 q 522 1062 535 1057 q 500 1073 510 1067 q 483 1083 490 1078 l 461 1095 q 449 1102 456 1098 q 435 1109 443 1106 q 419 1114 427 1112 q 401 1116 410 1116 q 373 1104 383 1116 q 364 1060 364 1091 l 364 1058 l 281 1058 l 281 1061 q 310 1217 281 1166 q 399 1267 339 1267 q 428 1264 415 1267 q 453 1257 442 1261 q 473 1248 464 1252 q 488 1239 482 1243 l 508 1226 q 522 1219 514 1223 q 539 1211 530 1214 q 558 1204 548 1207 q 579 1202 568 1202 q 606 1214 596 1202 q 615 1256 615 1226 l 615 1261 l 696 1261 l 696 1256 z "},"ũ":{"ha":819,"x_min":35,"x_max":781,"o":"m 539 766 l 781 766 l 781 0 l 539 0 l 539 234 q 450 44 516 108 q 277 -21 384 -21 q 96 63 157 -21 q 35 313 35 147 l 35 766 l 277 766 l 277 365 q 308 231 277 275 q 402 187 339 187 q 504 234 469 187 q 539 370 539 280 l 539 766 m 624 1028 q 617 935 624 974 q 597 872 611 897 q 561 835 583 847 q 509 823 540 823 q 477 827 492 823 q 450 835 462 830 q 427 845 437 840 q 410 855 417 851 l 389 867 q 377 874 384 870 q 362 881 370 878 q 346 887 355 884 q 329 889 338 889 q 301 876 310 889 q 291 832 291 864 l 291 830 l 208 830 l 208 834 q 237 989 208 939 q 326 1040 266 1040 q 356 1037 342 1040 q 380 1030 369 1034 q 400 1020 391 1025 q 416 1011 409 1015 l 436 999 q 449 991 442 995 q 466 983 457 987 q 485 977 475 980 q 506 974 495 974 q 533 986 523 974 q 543 1028 543 999 l 543 1033 l 624 1033 l 624 1028 z "},"Ū":{"ha":961,"x_min":42,"x_max":919,"o":"m 42 993 l 299 993 l 299 419 q 310 317 299 360 q 345 247 322 275 q 402 207 368 220 q 481 194 436 194 q 559 207 525 194 q 616 247 593 220 q 651 317 639 275 q 663 419 663 360 l 663 993 l 919 993 l 919 396 q 886 218 919 295 q 796 87 854 140 q 657 7 738 34 q 481 -21 577 -21 q 359 -9 416 -21 q 253 28 302 4 q 165 87 204 52 q 99 169 126 123 q 57 272 72 215 q 42 396 42 329 l 42 993 m 678 1076 l 283 1076 l 283 1202 l 678 1202 l 678 1076 z "},"ū":{"ha":819,"x_min":35,"x_max":781,"o":"m 539 766 l 781 766 l 781 0 l 539 0 l 539 234 q 450 44 516 108 q 277 -21 384 -21 q 96 63 157 -21 q 35 313 35 147 l 35 766 l 277 766 l 277 365 q 308 231 277 275 q 402 187 339 187 q 504 234 469 187 q 539 370 539 280 l 539 766 m 605 849 l 211 849 l 211 975 l 605 975 l 605 849 z "},"Ŭ":{"ha":961,"x_min":42,"x_max":919,"o":"m 42 993 l 299 993 l 299 419 q 310 317 299 360 q 345 247 322 275 q 402 207 368 220 q 481 194 436 194 q 559 207 525 194 q 616 247 593 220 q 651 317 639 275 q 663 419 663 360 l 663 993 l 919 993 l 919 396 q 886 218 919 295 q 796 87 854 140 q 657 7 738 34 q 481 -21 577 -21 q 359 -9 416 -21 q 253 28 302 4 q 165 87 204 52 q 99 169 126 123 q 57 272 72 215 q 42 396 42 329 l 42 993 m 399 1276 q 420 1197 399 1226 q 481 1169 442 1169 q 541 1197 520 1169 q 563 1276 563 1226 l 672 1276 q 661 1178 672 1221 q 625 1105 649 1135 q 565 1060 601 1076 q 481 1045 530 1045 q 396 1060 432 1045 q 337 1105 360 1076 q 301 1178 313 1135 q 290 1276 290 1221 l 399 1276 z "},"ŭ":{"ha":819,"x_min":35,"x_max":781,"o":"m 539 766 l 781 766 l 781 0 l 539 0 l 539 234 q 450 44 516 108 q 277 -21 384 -21 q 96 63 157 -21 q 35 313 35 147 l 35 766 l 277 766 l 277 365 q 308 231 277 275 q 402 187 339 187 q 504 234 469 187 q 539 370 539 280 l 539 766 m 326 1049 q 348 970 326 998 q 408 942 369 942 q 469 970 447 942 q 490 1049 490 998 l 600 1049 q 588 950 600 993 q 553 878 576 907 q 493 833 529 848 q 408 818 457 818 q 324 833 360 818 q 264 878 288 848 q 229 950 240 907 q 217 1049 217 993 l 326 1049 z "},"Ů":{"ha":961,"x_min":42,"x_max":919,"o":"m 42 993 l 299 993 l 299 419 q 310 317 299 360 q 345 247 322 275 q 402 207 368 220 q 481 194 436 194 q 559 207 525 194 q 616 247 593 220 q 651 317 639 275 q 663 419 663 360 l 663 993 l 919 993 l 919 396 q 886 218 919 295 q 796 87 854 140 q 657 7 738 34 q 481 -21 577 -21 q 359 -9 416 -21 q 253 28 302 4 q 165 87 204 52 q 99 169 126 123 q 57 272 72 215 q 42 396 42 329 l 42 993 m 325 1197 q 337 1259 325 1231 q 369 1307 348 1287 q 417 1337 389 1326 q 479 1348 445 1348 q 541 1337 513 1348 q 589 1307 569 1326 q 621 1259 609 1287 q 632 1197 632 1231 q 621 1134 632 1162 q 589 1087 609 1107 q 541 1056 569 1067 q 479 1045 513 1045 q 417 1056 445 1045 q 369 1087 389 1067 q 337 1134 348 1106 q 325 1197 325 1162 m 423 1197 q 439 1150 423 1166 q 479 1133 454 1133 q 519 1150 504 1133 q 534 1197 534 1166 q 519 1244 534 1227 q 479 1260 504 1260 q 439 1244 454 1260 q 423 1197 423 1227 z "},"ů":{"ha":819,"x_min":35,"x_max":781,"o":"m 539 766 l 781 766 l 781 0 l 539 0 l 539 234 q 450 44 516 108 q 277 -21 384 -21 q 96 63 157 -21 q 35 313 35 147 l 35 766 l 277 766 l 277 365 q 308 231 277 275 q 402 187 339 187 q 504 234 469 187 q 539 370 539 280 l 539 766 m 253 969 q 264 1031 253 1003 q 296 1079 276 1059 q 344 1110 316 1099 q 406 1120 373 1120 q 468 1110 440 1120 q 516 1079 496 1099 q 548 1031 537 1059 q 559 969 559 1003 q 548 907 559 935 q 516 859 537 879 q 468 829 496 840 q 406 818 440 818 q 344 829 373 818 q 296 859 316 840 q 264 907 276 879 q 253 969 253 935 m 351 969 q 366 922 351 939 q 406 906 381 906 q 447 922 431 906 q 462 969 462 939 q 447 1016 462 1000 q 406 1033 431 1033 q 366 1016 381 1033 q 351 969 351 1000 z "},"Ű":{"ha":961,"x_min":42,"x_max":919,"o":"m 42 993 l 299 993 l 299 419 q 310 317 299 360 q 345 247 322 275 q 402 207 368 220 q 481 194 436 194 q 559 207 525 194 q 616 247 593 220 q 651 317 639 275 q 663 419 663 360 l 663 993 l 919 993 l 919 396 q 886 218 919 295 q 796 87 854 140 q 657 7 738 34 q 481 -21 577 -21 q 359 -9 416 -21 q 253 28 302 4 q 165 87 204 52 q 99 169 126 123 q 57 272 72 215 q 42 396 42 329 l 42 993 m 280 1045 l 354 1267 l 539 1267 l 426 1045 l 280 1045 m 508 1045 l 582 1267 l 766 1267 l 654 1045 l 508 1045 z "},"ű":{"ha":819,"x_min":35,"x_max":781,"o":"m 539 766 l 781 766 l 781 0 l 539 0 l 539 234 q 450 44 516 108 q 277 -21 384 -21 q 96 63 157 -21 q 35 313 35 147 l 35 766 l 277 766 l 277 365 q 308 231 277 275 q 402 187 339 187 q 504 234 469 187 q 539 370 539 280 l 539 766 m 207 818 l 281 1040 l 466 1040 l 353 818 l 207 818 m 435 818 l 509 1040 l 694 1040 l 581 818 l 435 818 z "},"Ų":{"ha":961,"x_min":42,"x_max":919,"o":"m 42 993 l 299 993 l 299 419 q 310 317 299 360 q 345 247 322 275 q 402 207 368 220 q 481 194 436 194 q 559 207 525 194 q 616 247 593 220 q 651 317 639 275 q 663 419 663 360 l 663 993 l 919 993 l 919 396 q 886 218 919 295 q 796 87 854 140 q 657 7 738 34 q 481 -21 577 -21 q 359 -9 416 -21 q 253 28 302 4 q 165 87 204 52 q 99 169 126 123 q 57 272 72 215 q 42 396 42 329 l 42 993 m 633 0 q 578 -7 605 0 q 530 -24 551 -14 q 496 -48 509 -35 q 483 -75 483 -62 q 489 -90 483 -83 q 508 -102 496 -97 q 537 -109 520 -107 q 576 -112 555 -112 q 606 -111 592 -112 q 635 -107 621 -109 l 635 -240 q 594 -244 615 -242 q 556 -245 574 -245 q 481 -237 515 -245 q 424 -214 448 -229 q 387 -178 400 -199 q 374 -132 374 -157 q 393 -74 374 -101 q 446 -29 412 -48 q 526 2 480 -9 q 626 14 572 13 l 633 0 z "},"ų":{"ha":819,"x_min":35,"x_max":782,"o":"m 539 766 l 781 766 l 781 0 l 539 0 l 539 234 q 450 44 516 108 q 277 -21 384 -21 q 96 63 157 -21 q 35 313 35 147 l 35 766 l 277 766 l 277 365 q 308 231 277 275 q 402 187 339 187 q 504 234 469 187 q 539 370 539 280 l 539 766 m 780 0 q 725 -7 752 0 q 677 -24 698 -14 q 643 -48 656 -35 q 630 -75 630 -62 q 636 -90 630 -83 q 655 -102 643 -97 q 684 -109 667 -107 q 723 -112 701 -112 q 753 -111 739 -112 q 782 -107 768 -109 l 782 -240 q 741 -244 761 -242 q 702 -245 721 -245 q 628 -237 662 -245 q 571 -214 595 -229 q 534 -178 547 -199 q 520 -132 520 -157 q 540 -74 520 -101 q 593 -29 559 -48 q 673 2 626 -9 q 773 14 719 13 l 780 0 z "},"Ŵ":{"ha":1519,"x_min":22,"x_max":1498,"o":"m 933 993 l 1074 165 l 1235 993 l 1498 993 l 1261 0 l 905 0 l 759 802 l 612 0 l 256 0 l 22 993 l 295 993 l 455 165 l 598 993 l 933 993 m 822 1045 l 760 1152 l 697 1045 l 555 1045 l 661 1267 l 857 1267 l 964 1045 l 822 1045 z "},"ŵ":{"ha":1287,"x_min":8,"x_max":1280,"o":"m 807 766 l 919 166 l 1043 766 l 1280 766 l 1094 0 l 758 0 l 644 602 l 529 0 l 193 0 l 8 766 l 255 766 l 379 156 l 492 766 l 807 766 m 706 818 l 644 925 l 581 818 l 439 818 l 546 1040 l 742 1040 l 849 818 l 706 818 z "},"Ŷ":{"ha":952,"x_min":-8,"x_max":960,"o":"m 960 993 l 603 354 l 603 0 l 347 0 l 347 354 l -8 993 l 271 993 l 477 588 l 687 993 l 960 993 m 539 1045 l 476 1152 l 414 1045 l 271 1045 l 378 1267 l 574 1267 l 681 1045 l 539 1045 z "},"ŷ":{"ha":824,"x_min":2,"x_max":821,"o":"m 821 766 l 541 -8 q 481 -132 516 -80 q 400 -218 446 -184 q 296 -268 354 -252 q 167 -284 238 -284 q 34 -272 106 -284 l 34 -81 q 83 -86 61 -84 q 125 -88 105 -88 q 175 -84 152 -88 q 217 -73 198 -81 q 253 -53 236 -65 q 282 -23 269 -40 l 2 766 l 258 766 l 414 181 l 572 766 l 821 766 m 474 809 l 412 916 l 349 809 l 207 809 l 314 1031 l 510 1031 l 617 809 l 474 809 z "},"Ź":{"ha":885,"x_min":42,"x_max":843,"o":"m 340 213 l 843 213 l 843 0 l 42 0 l 42 223 l 511 781 l 60 781 l 60 993 l 808 993 l 808 770 l 340 213 m 671 1267 l 466 1267 l 363 1045 l 514 1045 l 671 1267 z "},"ź":{"ha":755,"x_min":24,"x_max":731,"o":"m 291 189 l 731 189 l 731 0 l 24 0 l 24 200 l 427 576 l 37 576 l 37 766 l 704 766 l 704 565 l 291 189 m 608 1031 l 402 1031 l 300 809 l 451 809 l 608 1031 z "},"Ż":{"ha":885,"x_min":42,"x_max":843,"o":"m 340 213 l 843 213 l 843 0 l 42 0 l 42 223 l 511 781 l 60 781 l 60 993 l 808 993 l 808 770 l 340 213 m 532 1055 l 345 1055 l 345 1248 l 532 1248 l 532 1055 z "},"ż":{"ha":755,"x_min":24,"x_max":731,"o":"m 291 189 l 731 189 l 731 0 l 24 0 l 24 200 l 427 576 l 37 576 l 37 766 l 704 766 l 704 565 l 291 189 m 469 819 l 282 819 l 282 1013 l 469 1013 l 469 819 z "},"ſ":{"ha":1073,"x_min":42,"x_max":1031,"o":"m 42 993 l 1031 993 l 1031 0 l 42 0 l 42 993 m 536 589 l 781 856 l 293 856 l 536 589 m 198 217 l 453 497 l 198 777 l 198 217 m 876 216 l 876 776 l 620 497 l 876 216 m 293 137 l 780 137 l 536 405 l 293 137 z "},"ȷ":{"ha":319,"x_min":-78,"x_max":282,"o":"m 282 66 q 264 -96 282 -29 q 206 -204 246 -162 q 104 -265 167 -246 q -49 -284 41 -284 l -78 -284 l -78 -90 l -56 -90 q -4 -79 -23 -90 q 25 -52 15 -69 q 38 -13 35 -35 q 40 31 40 8 l 40 766 l 282 766 l 282 66 z "},"Ǿ":{"ha":1043,"x_min":32,"x_max":1011,"o":"m 159 131 q 106 205 129 165 q 65 291 82 245 q 40 389 49 337 q 32 497 32 440 q 48 644 32 575 q 95 770 65 713 q 170 873 126 828 q 268 949 213 918 q 386 997 322 981 q 522 1014 450 1014 q 655 998 592 1014 q 772 951 718 982 l 822 1014 l 1006 1014 l 884 861 q 938 788 914 828 q 978 702 961 748 q 1003 604 994 656 q 1011 497 1011 553 q 995 349 1011 418 q 948 223 978 281 q 873 120 917 166 q 775 44 830 75 q 657 -4 721 12 q 522 -21 593 -21 q 388 -5 451 -21 q 270 42 324 11 l 219 -21 l 39 -21 l 159 131 m 291 497 q 312 344 291 408 l 643 768 q 522 799 593 799 q 423 780 466 799 q 350 722 380 760 q 306 628 321 684 q 291 497 291 571 m 400 225 q 522 194 451 194 q 621 213 577 194 q 693 270 664 232 q 738 365 723 309 q 753 497 753 422 q 732 648 753 585 l 400 225 m 753 1267 l 548 1267 l 445 1045 l 597 1045 l 753 1267 z "},"Ș":{"ha":942,"x_min":19,"x_max":923,"o":"m 466 1014 q 644 990 565 1014 q 778 923 723 967 q 862 816 833 879 q 891 673 891 753 l 647 673 q 634 731 647 705 q 597 774 621 757 q 539 802 573 792 q 463 812 505 812 q 396 805 428 812 q 341 785 365 798 q 303 752 317 772 q 289 707 289 733 q 302 665 289 681 q 340 639 314 649 q 405 622 366 628 q 496 607 443 615 l 531 602 q 595 592 562 598 q 662 579 628 587 q 727 561 695 572 q 789 534 760 550 q 843 498 818 519 q 885 448 867 476 q 913 385 903 420 q 923 303 923 349 q 892 164 923 225 q 802 63 861 104 q 661 0 744 22 q 474 -21 578 -21 q 278 3 363 -21 q 135 72 193 27 q 48 182 78 117 q 19 329 19 247 l 263 329 q 278 267 263 294 q 319 220 292 239 q 385 191 346 201 q 473 181 424 181 q 550 189 514 181 q 612 210 586 196 q 654 246 639 225 q 669 295 669 267 q 656 341 669 324 q 617 368 643 358 q 553 386 592 379 q 465 399 515 392 l 419 405 q 335 418 379 411 q 248 437 291 425 q 166 468 205 449 q 98 517 128 488 q 51 589 69 547 q 34 690 34 631 q 49 787 34 742 q 91 867 64 831 q 157 931 118 903 q 244 977 196 958 q 348 1005 292 995 q 466 1014 404 1014 m 492 -274 l 340 -274 l 376 -52 l 576 -52 l 492 -274 z "},"Ț":{"ha":866,"x_min":11,"x_max":855,"o":"m 855 781 l 561 781 l 561 0 l 305 0 l 305 781 l 11 781 l 11 993 l 855 993 l 855 781 m 449 -274 l 297 -274 l 333 -52 l 533 -52 l 449 -274 z "},"˝":{"ha":572,"x_min":42,"x_max":529,"o":"m 42 797 l 117 1019 l 301 1019 l 189 797 l 42 797 m 270 797 l 344 1019 l 529 1019 l 417 797 l 270 797 z "},"Ẃ":{"ha":1519,"x_min":22,"x_max":1498,"o":"m 933 993 l 1074 165 l 1235 993 l 1498 993 l 1261 0 l 905 0 l 759 802 l 612 0 l 256 0 l 22 993 l 295 993 l 455 165 l 598 993 l 933 993 m 992 1267 l 786 1267 l 683 1045 l 835 1045 l 992 1267 z "},"Ẁ":{"ha":1519,"x_min":22,"x_max":1498,"o":"m 933 993 l 1074 165 l 1235 993 l 1498 993 l 1261 0 l 905 0 l 759 802 l 612 0 l 256 0 l 22 993 l 295 993 l 455 165 l 598 993 l 933 993 m 527 1267 l 733 1267 l 836 1045 l 684 1045 l 527 1267 z "},"Ẅ":{"ha":1519,"x_min":22,"x_max":1498,"o":"m 933 993 l 1074 165 l 1235 993 l 1498 993 l 1261 0 l 905 0 l 759 802 l 612 0 l 256 0 l 22 993 l 295 993 l 455 165 l 598 993 l 933 993 m 731 1055 l 544 1055 l 544 1248 l 731 1248 l 731 1055 m 975 1055 l 789 1055 l 789 1248 l 975 1248 l 975 1055 z "},"Ỳ":{"ha":952,"x_min":-8,"x_max":960,"o":"m 960 993 l 603 354 l 603 0 l 347 0 l 347 354 l -8 993 l 271 993 l 477 588 l 687 993 l 960 993 m 244 1267 l 450 1267 l 552 1045 l 401 1045 l 244 1267 z "},"Ǽ":{"ha":1289,"x_min":-5,"x_max":1267,"o":"m -5 0 l 393 993 l 1256 993 l 1256 781 l 818 781 l 818 595 l 1216 595 l 1216 397 l 818 397 l 818 213 l 1267 213 l 1267 0 l 562 0 l 562 196 l 334 196 l 265 0 l -5 0 m 562 399 l 562 842 l 406 399 l 562 399 m 1056 1267 l 851 1267 l 748 1045 l 899 1045 l 1056 1267 z "},"ǽ":{"ha":1348,"x_min":18,"x_max":1324,"o":"m 41 478 q 67 607 41 550 q 142 704 93 664 q 261 765 191 744 q 418 786 331 786 q 575 764 507 786 q 690 697 643 741 q 801 763 738 740 q 941 786 864 786 q 1049 773 998 786 q 1142 736 1100 760 q 1219 676 1185 711 q 1276 596 1252 641 q 1312 498 1299 551 q 1324 384 1324 444 q 1321 326 1324 355 l 782 326 q 800 258 786 288 q 834 208 813 228 q 884 176 855 187 q 948 165 913 165 q 1089 254 1047 165 l 1312 254 q 1261 139 1295 190 q 1179 52 1227 88 q 1071 -2 1131 17 q 941 -21 1011 -21 q 818 -4 875 -21 q 714 45 761 13 q 634 122 668 77 q 579 224 599 167 q 546 122 571 168 q 481 45 520 77 q 391 -4 442 14 q 279 -21 340 -21 q 172 -5 220 -21 q 90 41 124 11 q 37 112 56 70 q 18 204 18 153 q 40 302 18 259 q 104 375 62 345 q 207 421 147 405 q 346 436 268 436 l 553 436 l 553 454 q 544 518 553 490 q 516 565 534 546 q 473 594 499 584 q 413 605 447 605 q 354 596 379 605 q 313 571 329 587 q 289 531 297 555 q 281 478 281 508 l 41 478 m 1097 458 q 942 605 1072 605 q 835 567 875 605 q 784 458 795 530 l 1097 458 m 379 306 q 291 287 320 306 q 261 230 261 267 q 290 171 261 192 q 374 150 320 150 q 445 160 412 150 q 501 188 477 170 q 539 230 525 206 q 553 283 553 255 l 553 306 l 379 306 m 903 1040 l 698 1040 l 595 818 l 747 818 l 903 1040 z "},"ǿ":{"ha":838,"x_min":24,"x_max":814,"o":"m 710 669 q 787 544 760 616 q 814 383 814 472 q 801 268 814 322 q 763 169 788 214 q 703 89 738 124 q 624 29 668 54 q 528 -8 580 5 q 419 -21 477 -21 q 311 -9 362 -21 q 217 28 260 4 l 178 -21 l 33 -21 l 127 97 q 51 222 78 150 q 24 383 24 294 q 37 498 24 444 q 75 597 50 552 q 135 677 100 642 q 214 736 170 712 q 310 774 258 761 q 419 786 361 786 q 527 774 476 786 q 621 738 577 762 l 660 786 l 805 786 l 710 669 m 268 383 q 278 297 268 334 l 490 563 q 419 578 460 578 q 355 566 383 578 q 307 528 326 553 q 278 467 288 504 q 268 383 268 431 m 348 203 q 419 187 378 187 q 484 200 456 187 q 531 237 512 213 q 560 299 550 262 q 570 383 570 335 q 560 469 570 432 l 348 203 m 651 1040 l 446 1040 l 343 818 l 494 818 l 651 1040 z "},"ș":{"ha":791,"x_min":17,"x_max":772,"o":"m 382 786 q 538 768 469 786 q 654 714 607 749 q 726 627 701 678 q 751 513 751 577 l 512 513 q 481 591 512 564 q 388 619 449 619 q 340 614 362 619 q 303 600 319 609 q 279 578 288 591 q 270 549 270 565 q 282 516 270 529 q 314 494 293 503 q 361 480 334 486 q 419 469 388 475 l 470 460 q 534 448 500 455 q 602 430 568 441 q 666 403 636 419 q 721 362 697 386 q 758 304 744 338 q 772 225 772 270 q 748 121 772 166 q 676 44 723 75 q 559 -4 628 12 q 401 -21 490 -21 q 236 -2 308 -21 q 116 52 164 16 q 42 139 67 87 q 17 259 17 191 l 257 259 q 292 177 257 205 q 399 149 327 149 q 455 154 430 149 q 497 168 480 159 q 524 191 514 177 q 533 222 533 205 q 522 256 533 243 q 491 278 511 269 q 441 294 470 288 q 375 306 412 300 l 324 315 q 264 327 297 320 q 199 344 232 333 q 136 371 167 355 q 83 411 106 387 q 45 467 59 434 q 32 544 32 500 q 56 646 32 601 q 124 722 80 691 q 234 770 169 753 q 382 786 299 786 m 418 -274 l 267 -274 l 302 -52 l 502 -52 l 418 -274 z "},"ț":{"ha":575,"x_min":11,"x_max":548,"o":"m 548 6 q 453 -14 497 -7 q 370 -21 409 -21 q 170 56 238 -21 q 103 284 103 133 l 103 577 l 11 577 l 11 766 l 103 766 l 103 942 l 344 942 l 344 766 l 548 766 l 548 577 l 344 577 l 344 284 q 367 195 344 223 q 438 168 389 168 q 484 172 458 168 q 548 186 511 177 l 548 6 m 350 -274 l 199 -274 l 234 -52 l 434 -52 l 350 -274 z "},"ẃ":{"ha":1287,"x_min":8,"x_max":1280,"o":"m 807 766 l 919 166 l 1043 766 l 1280 766 l 1094 0 l 758 0 l 644 602 l 529 0 l 193 0 l 8 766 l 255 766 l 379 156 l 492 766 l 807 766 m 876 1040 l 670 1040 l 567 818 l 719 818 l 876 1040 z "},"ẁ":{"ha":1287,"x_min":8,"x_max":1280,"o":"m 807 766 l 919 166 l 1043 766 l 1280 766 l 1094 0 l 758 0 l 644 602 l 529 0 l 193 0 l 8 766 l 255 766 l 379 156 l 492 766 l 807 766 m 411 1040 l 617 1040 l 720 818 l 568 818 l 411 1040 z "},"ẅ":{"ha":1287,"x_min":8,"x_max":1280,"o":"m 807 766 l 919 166 l 1043 766 l 1280 766 l 1094 0 l 758 0 l 644 602 l 529 0 l 193 0 l 8 766 l 255 766 l 379 156 l 492 766 l 807 766 m 615 827 l 428 827 l 428 1021 l 615 1021 l 615 827 m 859 827 l 673 827 l 673 1021 l 859 1021 l 859 827 z "},"ỳ":{"ha":824,"x_min":2,"x_max":821,"o":"m 821 766 l 541 -8 q 481 -132 516 -80 q 400 -218 446 -184 q 296 -268 354 -252 q 167 -284 238 -284 q 34 -272 106 -284 l 34 -81 q 83 -86 61 -84 q 125 -88 105 -88 q 175 -84 152 -88 q 217 -73 198 -81 q 253 -53 236 -65 q 282 -23 269 -40 l 2 766 l 258 766 l 414 181 l 572 766 l 821 766 m 180 1031 l 385 1031 l 488 809 l 337 809 l 180 1031 z "}}}
